<?xml version="1.0" encoding="UTF-8"?>
<svg width="1667px" height="888px" viewBox="0 0 1667 888" version="1.1" xmlns="http://www.w3.org/2000/svg" xmlns:xlink="http://www.w3.org/1999/xlink">
    <title>其他，zjark登录背景</title>
    <defs>
        <filter x="-3.9%" y="-4.5%" width="107.8%" height="109.1%" filterUnits="objectBoundingBox" id="filter-1">
            <feOffset dx="0" dy="2" in="SourceAlpha" result="shadowOffsetOuter1"></feOffset>
            <feColorMatrix values="0 0 0 0 0   0 0 0 0 0   0 0 0 0 0  0 0 0 0.2 0" type="matrix" in="shadowOffsetOuter1" result="shadowMatrixOuter1"></feColorMatrix>
            <feMerge>
                <feMergeNode in="shadowMatrixOuter1"></feMergeNode>
                <feMergeNode in="SourceGraphic"></feMergeNode>
            </feMerge>
        </filter>
        <path d="M22.279191,8.95236638 L67.720809,34.8183722 C81.4951171,42.6589015 90,57.2781573 90,73.1146307 C90,81.3355932 83.328353,88 75.0984594,88 C72.5112725,88 69.9686602,87.327142 67.720809,86.0476336 L22.279191,60.1816278 C8.50488289,52.3410985 0,37.7218427 0,21.8853693 C0,13.6644068 6.67164697,7 14.9015406,7 C17.4887275,7 20.0313398,7.67285795 22.279191,8.95236638 Z" id="path-2"></path>
        <filter x="-2.8%" y="-3.1%" width="105.6%" height="106.2%" filterUnits="objectBoundingBox" id="filter-3">
            <feOffset dx="5" dy="-4" in="SourceAlpha" result="shadowOffsetInner1"></feOffset>
            <feComposite in="shadowOffsetInner1" in2="SourceAlpha" operator="arithmetic" k2="-1" k3="1" result="shadowInnerInner1"></feComposite>
            <feColorMatrix values="0 0 0 0 0.96138192   0 0 0 0 0.966369264   0 0 0 0 0.979676178  0 0 0 0.5 0" type="matrix" in="shadowInnerInner1"></feColorMatrix>
        </filter>
        <path d="M231.028735,391.115321 C232.251692,390.423385 233.748027,390.423882 234.970524,391.11663 C272.158722,409.652591 300.049871,423.554561 318.64397,432.822542 C318.723088,432.861977 318.841765,433.92113 319,436 C318.905299,438.374709 318.865947,440.018365 318.881943,440.930966 C318.894051,441.621755 318.727226,442.324744 318.361947,442.969354 C318.004563,443.600032 317.482512,444.121737 316.851597,444.478702 L177.899427,523.096377 C173.61908,525.518152 168.381905,525.516413 164.103167,523.091795 L87.146091,479.482785 C85.8731829,478.76147 85.1471572,477.447199 85.1183358,476.083442 C85.1085378,475.61983 85.0690926,474.258682 85,472 C85,468.666667 85.3333333,467 86,467 C130.674516,467 179.017427,441.705107 231.028735,391.115321 Z" id="path-4"></path>
        <filter x="-0.4%" y="-0.7%" width="100.9%" height="103.0%" filterUnits="objectBoundingBox" id="filter-5">
            <feOffset dx="0" dy="2" in="SourceAlpha" result="shadowOffsetOuter1"></feOffset>
            <feColorMatrix values="0 0 0 0 0   0 0 0 0 0   0 0 0 0 0  0 0 0 0.2 0" type="matrix" in="shadowOffsetOuter1"></feColorMatrix>
        </filter>
        <polygon id="path-6" points="163 405 251 355 251 424 163 474"></polygon>
        <filter x="-17.6%" y="-13.0%" width="135.2%" height="126.1%" filterUnits="objectBoundingBox" id="filter-7">
            <feOffset dx="0" dy="31" in="SourceAlpha" result="shadowOffsetInner1"></feOffset>
            <feComposite in="shadowOffsetInner1" in2="SourceAlpha" operator="arithmetic" k2="-1" k3="1" result="shadowInnerInner1"></feComposite>
            <feColorMatrix values="0 0 0 0 0.835294118   0 0 0 0 0.854901961   0 0 0 0 0.941176471  0 0 0 1 0" type="matrix" in="shadowInnerInner1"></feColorMatrix>
        </filter>
        <filter x="-1.4%" y="-1.4%" width="102.7%" height="102.8%" filterUnits="objectBoundingBox" id="filter-8">
            <feOffset dx="0" dy="2" in="SourceAlpha" result="shadowOffsetOuter1"></feOffset>
            <feColorMatrix values="0 0 0 0 0   0 0 0 0 0   0 0 0 0 0  0 0 0 0.2 0" type="matrix" in="shadowOffsetOuter1" result="shadowMatrixOuter1"></feColorMatrix>
            <feMerge>
                <feMergeNode in="shadowMatrixOuter1"></feMergeNode>
                <feMergeNode in="SourceGraphic"></feMergeNode>
            </feMerge>
        </filter>
        <path d="M-1.13686838e-13,5.30744241 L6,0.30744241 L9,0.30744241 L18.1620464,2 L23.8649129,3.98429702 L25,7.30744241 L35,13.3074424 L38,18.3074424 L38.9694949,22.4249244 L45.1863777,37.2942108 L48.0011831,40.8192453 L48.0011831,45.9237801 L46.9685972,49.5162294 C46.2998297,51.0319547 45.1248182,52.0294089 43.4435627,52.508592 C41.7623072,52.9877752 40.2858281,52.4244027 39.0141254,50.8184745 L39.336043,63.0206517 L5,54.3074424 L8,45.3074424 L-1.13686838e-13,14.4249244 L-1.13686838e-13,5.30744241 Z" id="path-9"></path>
        <filter x="-2.4%" y="-1.9%" width="104.8%" height="103.8%" filterUnits="objectBoundingBox" id="filter-11">
            <feOffset dx="0" dy="2" in="SourceAlpha" result="shadowOffsetOuter1"></feOffset>
            <feColorMatrix values="0 0 0 0 0   0 0 0 0 0   0 0 0 0 0  0 0 0 0.2 0" type="matrix" in="shadowOffsetOuter1" result="shadowMatrixOuter1"></feColorMatrix>
            <feMerge>
                <feMergeNode in="shadowMatrixOuter1"></feMergeNode>
                <feMergeNode in="SourceGraphic"></feMergeNode>
            </feMerge>
        </filter>
        <filter x="-2.1%" y="-1.8%" width="104.3%" height="103.6%" filterUnits="objectBoundingBox" id="filter-12">
            <feOffset dx="0" dy="2" in="SourceAlpha" result="shadowOffsetOuter1"></feOffset>
            <feColorMatrix values="0 0 0 0 0   0 0 0 0 0   0 0 0 0 0  0 0 0 0.2 0" type="matrix" in="shadowOffsetOuter1" result="shadowMatrixOuter1"></feColorMatrix>
            <feMerge>
                <feMergeNode in="shadowMatrixOuter1"></feMergeNode>
                <feMergeNode in="SourceGraphic"></feMergeNode>
            </feMerge>
        </filter>
        <path d="M87.5,118.502525 L87.499,118.501525 L1,69.2225253 L1,58.3958587 L47.2327586,34.5025253 L127.767241,34.5025253 L174,58.3958587 L174,69.2225253 L87.502,118.500525 L87.5,118.502525 L87.5,118.502525 Z" id="path-13"></path>
        <filter x="-0.6%" y="-1.2%" width="101.2%" height="104.8%" filterUnits="objectBoundingBox" id="filter-14">
            <feOffset dx="0" dy="2" in="SourceAlpha" result="shadowOffsetOuter1"></feOffset>
            <feColorMatrix values="0 0 0 0 0   0 0 0 0 0   0 0 0 0 0  0 0 0 0.2 0" type="matrix" in="shadowOffsetOuter1"></feColorMatrix>
        </filter>
        <polygon id="path-15" points="28.3400009 16.6649464 29.0738114 14.3202488 33.7041187 12.2904251 42.1227242 11.4934592 45.0456578 13.5332918 45.9117928 15.3891088 55.5900017 15.5749464 58.8600018 16.6649464 65.2077596 15.8935856 58.3705727 8.6608272 55.7827312 5.43524509 57.1119281 2.73440176 60.9143335 1.01900688e-14 66.1971618 3.54677723 71.9856687 6.84827963 78.9436566 12.1402487 81.1313928 17.7137352 80.2962008 20.8252765 75.7360735 27.3370151 64.207346 34.9572138 60.8345139 57.8488053 63.4237237 65.8513164 65.0300546 70.3015169 57.0046159 76.4805541 28.6923986 78.3157601 23.5182174 73.1364978 25.172778 67.0693699 28.2608343 60.1610874 20.2395938 46.878854 16.4259761 51.7283936 17.4064669 53.9104311 23.8996301 59.3015238 24.1533837 62.8218634 22.9193061 65.8513164 19.6200006 65.7149479 5.70468529 59.3015238 0.685662534 54.2799572 -2.68036961e-13 48.9646346 3.62278376 41.8099809 9.08607614 31.302535 11.4366381 24.6999749 18.496467 19.4905538"></polygon>
    </defs>
    <g id="登录页+首页" stroke="none" stroke-width="1" fill="none" fill-rule="evenodd">
        <g id="登录页面备份" transform="translate(-95.000000, -189.000000)">
            <g id="其他，zjark登录背景" transform="translate(95.000000, 189.000000)">
                <path d="M1222.68086,194.120793 L1398.64976,293.55312 C1410.86178,300.453599 1425.796,300.453207 1438.00766,293.552086 L1479.47114,270.120015 C1491.68194,263.21938 1506.61499,263.218471 1518.82663,270.11762 L1601.59139,316.876808 C1606.3999,319.593445 1608.09569,325.693779 1605.37905,330.502284 C1604.48463,332.085424 1603.17549,333.394732 1601.59246,334.289345 L1485.5288,399.879998 C1473.31804,406.780627 1458.38502,406.781564 1446.17339,399.882466 L1420.38205,385.311367 C1408.77705,378.75499 1394.58573,378.756369 1382.982,385.315 C1377.14262,388.615521 1375.08446,396.024877 1378.38498,401.86426 C1379.47043,403.784665 1381.05841,405.373181 1382.97845,406.459271 L1470.18071,455.786101 C1474.18603,458.051756 1475.59632,463.135393 1473.33066,467.140722 C1472.58618,468.456864 1471.49756,469.545599 1470.1815,470.290232 C1466.17855,472.555119 1464.76957,477.636204 1467.03446,481.639152 C1467.77933,482.955635 1468.8687,484.044384 1470.1856,484.788511 L1651.5945,587.295006 C1656.40282,590.011981 1658.09818,596.112434 1655.38121,600.920749 C1654.48691,602.503415 1653.17812,603.812369 1651.59556,604.706858 L1341.67951,779.876801 C1329.46745,786.779266 1314.53204,786.780171 1302.31915,779.879186 L1193.77967,718.548145 C1181.56742,711.647521 1166.63287,711.648042 1154.4211,718.549517 L1148.52923,721.879306 C1136.31825,728.780337 1121.38477,728.781331 1109.17287,721.881926 L1055.83033,691.744784 C1043.62253,684.847697 1028.69464,684.846224 1016.48548,691.7409 L816.11224,804.894354 C803.907151,811.786732 788.984807,811.787706 776.778818,804.896923 L729.754499,778.349758 C717.543072,771.455905 702.613326,771.46015 690.405822,778.360946 L516.13577,876.874291 C503.922758,883.778201 488.98551,883.779133 476.771636,876.876749 L320.403138,788.508757 C315.594965,785.791531 313.899918,779.690989 316.617144,774.882816 C317.511347,773.30051 318.819875,771.991822 320.402071,771.097425 L530.864083,652.125731 C543.077176,645.221813 558.014514,645.220955 570.228401,652.12347 L578.339204,656.707182 C590.547687,663.606643 605.477665,663.609036 617.688359,656.713488 L702.518513,608.808727 C707.327536,606.093005 709.024492,599.992995 706.30877,595.183972 C705.413612,593.598819 704.102728,592.288092 702.517467,591.393125 L641.705578,557.061439 C629.499522,550.170443 614.576985,550.171341 602.371758,557.063806 L406.112366,667.894267 C393.90721,674.786693 378.984768,674.787633 366.778743,667.896745 L171.422742,557.608896 C166.613378,554.893779 164.915655,548.793982 167.630772,543.984618 C168.525746,542.399326 169.836494,541.088418 171.421676,540.19325 L431.887765,393.105567 C444.092854,386.213237 459.01517,386.212294 471.22113,393.103082 L584.294544,456.937877 C596.500543,463.828687 611.422912,463.827721 623.628018,456.935331 L649.060503,442.573259 C653.869526,439.857538 655.566483,433.757528 652.850762,428.948505 C651.956995,427.365814 650.648765,426.05665 649.066712,425.161755 L593.385225,393.665261 C588.57814,390.946111 586.885535,384.844892 589.604685,380.037806 C590.498179,378.458232 591.804672,377.151575 593.384135,376.257883 L742.042465,292.144008 C754.262652,285.229581 769.213447,285.228647 781.434497,292.141548 L875.938763,345.598378 C888.154156,352.508078 903.097242,352.510551 915.314921,345.604895 L1183.32051,194.123212 C1195.53255,187.220738 1210.46797,187.219821 1222.68086,194.120793 Z M1105.16456,775.133596 L1133.60701,791.215704 C1138.41456,793.934023 1140.10822,800.034949 1137.3899,804.842504 C1136.4961,806.423264 1135.18872,807.730802 1133.60807,808.624799 L1087.21531,834.863991 C1074.99825,841.77382 1060.05335,841.774736 1047.83544,834.866404 L1019.39299,818.784296 C1014.58544,816.065977 1012.89178,809.965051 1015.6101,805.157496 C1016.5039,803.576736 1017.81128,802.269198 1019.39193,801.375201 L1065.78469,775.136009 C1078.00175,768.22618 1092.94665,768.225264 1105.16456,775.133596 Z M256.46364,763.075249 L257.408795,763.608069 C263.820671,767.222695 266.088291,775.350781 262.473665,781.762658 C261.279462,783.881018 259.528429,785.632265 257.410215,786.826727 L244.827106,793.922348 C232.632978,800.798622 217.731329,800.799533 205.53636,793.924751 L199.450218,790.493755 C194.639189,787.781589 192.937724,781.682835 195.649889,776.871806 C196.545937,775.282335 197.859791,773.96832 199.449152,773.072078 L217.172894,763.077652 C229.367022,756.201378 244.268671,756.200467 256.46364,763.075249 Z M1021.38526,492.550541 L933.480764,542.191163 C928.671735,544.906873 926.974765,551.00688 929.690476,555.815909 C930.585654,557.401106 931.896581,558.711863 933.481894,559.606835 L1043.87486,621.928038 C1056.08555,628.821459 1071.01429,628.817642 1083.22146,621.917977 L1224.45065,542.093235 C1229.25864,539.37569 1230.95328,533.275036 1228.23574,528.467043 C1227.34201,526.885818 1226.03449,525.577865 1224.45357,524.683604 L1200.13317,510.926614 C1187.91782,504.016916 1172.97477,504.014411 1160.75709,510.920014 L1146.67927,518.877001 C1134.46734,525.779354 1119.53212,525.780309 1107.31931,518.879518 L1060.73192,492.55553 C1048.52385,485.657414 1033.59508,485.655521 1021.38526,492.550541 Z M107.307985,477.084674 L140.559055,495.838673 C145.369523,498.551835 147.069726,504.650941 144.356564,509.461409 C143.460879,511.04947 142.148072,512.362437 140.560121,513.258317 L87.997182,542.912921 C75.7993396,549.794617 60.8906995,549.79553 48.692015,542.915326 L15.4409452,524.161327 C10.6304773,521.448165 8.93027432,515.349059 11.6434355,510.538591 C12.539121,508.95053 13.8519276,507.637563 15.4398792,506.741683 L68.002818,477.087079 C80.2006604,470.205383 95.1093005,470.20447 107.307985,477.084674 Z M777.82665,102.11763 L860.59139,148.876808 C865.399896,151.593445 867.09569,157.693779 864.379053,162.502284 C863.484634,164.085424 862.175487,165.394732 860.592456,166.289345 L744.528871,231.87996 C732.318067,238.78061 717.385,238.781524 705.17335,231.88237 L622.40861,185.123192 C617.600104,182.406555 615.90431,176.306221 618.620947,171.497716 C619.515366,169.914576 620.824513,168.605268 622.407544,167.710655 L738.471129,102.12004 C750.681933,95.2193904 765.615,95.2184758 777.82665,102.11763 Z M1545.35612,193.109296 L1557.58323,200.014238 C1562.39223,202.729997 1564.08914,208.830021 1561.37338,213.639023 C1560.47864,215.223406 1559.16857,216.533639 1557.58429,217.428572 L1531.98668,231.888295 C1519.77915,238.784152 1504.85226,238.785066 1492.64388,231.890704 L1480.41677,224.985762 C1475.60777,222.270003 1473.91086,216.169979 1476.62662,211.360977 C1477.52136,209.776594 1478.83143,208.466361 1480.41571,207.571428 L1506.01332,193.111705 C1518.22085,186.215848 1533.14774,186.214934 1545.35612,193.109296 Z M347.307985,106.084674 L380.559055,124.838673 C385.369523,127.551835 387.069726,133.650941 384.356564,138.461409 C383.460879,140.04947 382.148072,141.362437 380.560121,142.258317 L327.997182,171.912921 C315.79934,178.794617 300.890699,178.79553 288.692015,171.915326 L255.440945,153.161327 C250.630477,150.448165 248.930274,144.349059 251.643436,139.538591 C252.539121,137.95053 253.851928,136.637563 255.439879,135.741683 L308.002818,106.087079 C320.20066,99.2053828 335.109301,99.2044705 347.307985,106.084674 Z" id="形状" fill="#E8E5DF" opacity="0.5"></path>
                <g id="开关" filter="url(#filter-1)" transform="translate(1052.000000, 623.000000)">
                    <path d="M35.6554177,1.947734 L80.8445823,27.7523677 C94.5423665,35.5742937 103,50.1588625 103,65.9577608 C103,71.5396205 99.9268098,76.4021823 95.3835055,78.9389845 C93.9620406,79.7326745 89.6675388,82.0863463 82.5,86 C82.8866303,82.0910335 82.3348244,79.7110593 80.8445823,78.8600777 L35.6554177,53.055444 C26.5235616,47.8408266 16.9717557,33.435509 7,9.83949106 C16.6238089,4.40603746 21.5578923,1.62926559 21.8022501,1.50917544 C23.768888,0.542667213 25.9805813,0 28.3187542,0 C30.8915679,0 33.4200545,0.671261467 35.6554177,1.947734 Z" id="矩形备份-7" fill="#F8F9FD"></path>
                    <g id="矩形">
                        <use fill="#D5DAF0" fill-rule="evenodd" xlink:href="#path-2"></use>
                        <use fill="black" fill-opacity="1" filter="url(#filter-3)" xlink:href="#path-2"></use>
                    </g>
                    <path d="M67.5,36.7891571 C80.1740214,43.9749947 88,57.3765996 88,71.8944024 L88,72.351522 C88,79.8893682 81.8606265,86 74.2873255,86 C71.9072212,86 69.5681002,85.3834015 67.5,84.2108429 C54.8259786,77.0250053 47,63.6234004 47,49.1055976 L47,48.648478 C47,41.1106318 53.1393735,35 60.7126745,35 C63.0927788,35 65.4318998,35.6165985 67.5,36.7891571 Z" id="矩形" fill="#FEBC08"></path>
                </g>
                <g id="电脑" transform="translate(233.000000, 75.000000)">
                    <g id="编组-4">
                        <g id="矩形">
                            <use fill="black" fill-opacity="1" filter="url(#filter-5)" xlink:href="#path-4"></use>
                            <use fill="#D5DAF0" fill-rule="evenodd" xlink:href="#path-4"></use>
                        </g>
                        <path d="M87.148403,464.521298 L231.028735,383.115321 C232.251692,382.423385 233.748027,382.423882 234.970524,383.11663 L316.853909,429.517215 C318.775909,430.606348 319.451081,433.047354 318.361947,434.969354 C318.004563,435.600032 317.482512,436.121737 316.851597,436.478702 L177.899427,515.096377 C173.61908,517.518152 168.381905,517.516413 164.103167,515.091795 L87.146091,471.482785 C85.2240911,470.393652 84.5489193,467.952646 85.6380526,466.030646 C85.9954366,465.399968 86.5174881,464.878263 87.148403,464.521298 Z" id="矩形" fill="#F8F9FD"></path>
                        <polygon id="矩形" fill="#D5DAF0" points="155 400 243 350 163 474 155 469"></polygon>
                        <g id="矩形">
                            <use fill="#EDEDF7" fill-rule="evenodd" xlink:href="#path-6"></use>
                            <use fill="black" fill-opacity="1" filter="url(#filter-7)" xlink:href="#path-6"></use>
                        </g>
                        <path d="M15.2334887,189.386077 L344.07783,3.43788467 C347.072972,1.74425241 350.570179,1.76311443 353.438682,3.18059187 C354.595825,3.75239698 358.449598,5.69219969 365,9 C367,11.183348 368,12.8500147 368,14 L359,281.499747 C359,292.313848 353.179888,302.291038 343.766511,307.613923 L16,499 C10.7248547,496.487311 7.10684602,494.687952 5.14597401,493.601923 C3.58588324,492.737868 2.23742933,491.445735 1.29527495,489.779561 C0.446211394,488.278015 0,486.582368 0,484.85739 L0,215.500253 C0,204.686152 5.82011157,194.708962 15.2334887,189.386077 Z" id="矩形" fill="#D5DAF0"></path>
                        <path d="M25.2334887,194.386077 L354.07783,8.43788467 C358.885316,5.71944501 364.986285,7.41295239 367.704725,12.2204393 C368.553789,13.7219852 369,15.4176318 369,17.1426097 L369,286.499747 C369,297.313848 363.179888,307.291038 353.766511,312.613923 L24.9221704,498.562115 C20.1146835,501.280555 14.0137146,499.587048 11.2952749,494.779561 C10.4462114,493.278015 10,491.582368 10,489.85739 L10,220.500253 C10,209.686152 15.8201116,199.708962 25.2334887,194.386077 Z" id="矩形" fill="#A0A4C3"></path>
                        <path d="M10,463 L369,260 L369,286.499747 C369,297.313848 363.179888,307.291038 353.766511,312.613923 L24.9221704,498.562115 C20.1146835,501.280555 14.0137146,499.587048 11.2952749,494.779561 C10.4462114,493.278015 10,491.582368 10,489.85739 L10,463 L10,463 Z" id="矩形" fill="#F8F9FD"></path>
                    </g>
                    <g id="编组-3" transform="translate(52.000000, 79.000000)">
                        <polygon id="路径" fill="#D5DAF0" points="50 283.851 50 298.851 0 327.174 0 312.174"></polygon>
                        <polygon id="路径" fill="#D5DAF0" points="133 211.835 133 227.001 0 302.174 0 287.174 60 253.26 60 253.187 74 245.256 74 245.347 84 239.695 84 239.592"></polygon>
                        <polygon id="路径" fill="#FEC11B" points="133 185.835 133 201.001 0 276.174 0 261.174 60 227.26 60 227.187 74 219.256 74 219.347 84 213.695 84 213.592"></polygon>
                        <polygon id="路径" fill="#FEC11B" points="50 130.85 50 196.85 0 225.174 0 159.174"></polygon>
                        <polygon id="路径" fill="#D5DAF0" points="180 57.212 180 200.212 143 221.171 143 78.17"></polygon>
                        <polygon id="路径" fill="#D5DAF0" points="239 176.791 239 191.791 190 219.547 190 204.547"></polygon>
                        <polygon id="路径" fill="#FEC11B" points="239 151.791 239 166.791 190 194.547 190 179.547"></polygon>
                        <polygon id="路径" fill="#D5DAF0" points="74 168.256 74 183.256 60 191.186 60 176.186"></polygon>
                        <polygon id="路径" fill="#D5DAF0" points="133 134.835 133 149.835 84 177.591 84 162.591"></polygon>
                        <polygon id="路径" fill="#D5DAF0" points="239 125.791 239 140.791 190 168.547 190 153.547"></polygon>
                        <polygon id="路径" fill="#D5DAF0" points="74 143.256 74 158.256 60 166.186 60 151.186"></polygon>
                        <polygon id="路径" fill="#D5DAF0" points="281 128 281 143 249 161.127 249 146.127"></polygon>
                        <polygon id="路径" fill="#D5DAF0" points="133 109.835 133 124.835 84 152.591 84 137.591"></polygon>
                        <polygon id="路径" fill="#D5DAF0" points="281 76 281 91 280 91.566 280 91.791 190 142.547 190 127.547 249 94.274 249 94.126"></polygon>
                        <polygon id="路径" fill="#D5DAF0" points="74 117.256 74 132.256 60 140.186 60 125.186"></polygon>
                        <polygon id="路径" fill="#FEC11B" points="281 102 281 117 249 135.127 249 120.127"></polygon>
                        <polygon id="路径" fill="#D5DAF0" points="133 83.835 133 98.835 84 126.591 84 111.591"></polygon>
                        <polygon id="路径" fill="#D5DAF0" points="281 51 281 66 280 66.566 280 66.791 190 117.547 190 102.547 249 69.274 249 69.126"></polygon>
                        <polygon id="路径" fill="#FEC11B" points="281 26 281 41 280 41.566 280 41.791 190 92.547 190 77.547 249 44.273 249 44.126"></polygon>
                        <polygon id="路径" fill="#D5DAF0" points="281 0 281 15 280 15.566 280 15.791 190 66.547 190 51.547 249 18.273 249 18.126"></polygon>
                    </g>
                </g>
                <g id="其他，紫金山公园雕塑" filter="url(#filter-8)" transform="translate(1239.000000, 411.000000)">
                    <g id="编组-19" transform="translate(13.200001, 0.000000)">
                        <polygon id="矩形备份-23" fill="#777B8E" points="88.8000035 82.8000033 128.400005 60.0000024 128.400005 88.8000035 88.8000035 111.600004"></polygon>
                        <polygon id="矩形" fill="#F7A91A" points="138.000005 0 132.000005 24.000001 102.675004 134.325005 40.8000016 170.400007 38.4000015 169.200007 62.4000025 111.600004"></polygon>
                        <polygon id="路径" fill="#777B8E" points="109.200004 96.0000038 112.380004 97.8096039 102.675004 134.325005 70.4148028 153.133206 49.946402 141.487206 56.3760022 126.055205"></polygon>
                        <polygon id="矩形备份-24" fill="#5F6377" transform="translate(87.372865, 119.258462) rotate(-30.000000) translate(-87.372865, -119.258462) " points="126.744182 97.1196191 73.2015493 141.397304 48.0015483 141.397304 107.340334 99.0803887"></polygon>
                        <polygon id="矩形" fill="#FED544" points="138.000005 0 127.200005 24.000001 40.2750016 170.325007 26.8500011 162.750006 -2.01400363e-13 147.600006"></polygon>
                        <path d="M43.373,101.209204 L71.744,117.350204 L43.3,165.232204 L37.3,168.645204 L-1.15107928e-13,147.600006 L43.373,101.209204 Z" id="形状结合" fill="#959AB2"></path>
                        <polygon id="矩形备份-17" fill="#959AB2" points="128.400005 60.0000024 261.60001 135.600005 261.60001 164.400007 128.400005 88.8000035"></polygon>
                        <path d="M128.400005,88.8000035 L261.60001,164.400007 L140.400006,234.000009 L7.20000029,158.400006 L46.6870003,135.724004 L57.0000023,141.600006 L108.591861,112.207557 L112.361,98.0110035 L128.400005,88.8000035 Z" id="形状结合" fill="#B0B6D1"></path>
                        <polygon id="矩形备份-16" fill="#777B8E" points="7.20000029 129.600005 46.8000019 106.800004 46.8000019 135.600005 7.20000029 158.400006"></polygon>
                    </g>
                    <g id="编组-18" transform="translate(0.000000, 19.395727)">
                        <polygon id="矩形" fill="#D5DAF0" points="147.351619 -1.77817123e-13 291.600012 181.004281 282.075011 179.879281 146.151619 4.80000019 147.600006 100.604278 147.600006 94.6042778"></polygon>
                        <polygon id="矩形" fill="#F8F9FD" points="147.351619 4.80000019 291.600012 181.004281 294.075012 173.879281 148.800006 7.00427428 147.351619 -1.77817123e-13"></polygon>
                        <polygon id="矩形备份-25" fill="#D5DAF0" points="141.600006 8.20427432 145.060374 97.6061084 182.400007 77.8042771"></polygon>
                        <polygon id="矩形备份-25" fill="#F8F9FD" points="141.600006 8.20427432 145.060374 97.6061084 92.160805 67.5820288"></polygon>
                        <polygon id="矩形" fill="#F8F9FD" points="142.800006 9.40427437 152.400006 260.204284 154.875006 253.079284 144.248392 11.6085485 142.800006 4.60427418 140.400006 9.40427437 2.32500009 179.729281 10.8000004 179.804281"></polygon>
                        <polygon id="矩形" fill="#D5DAF0" points="142.800006 4.60427418 152.400006 260.204284 142.875006 259.079284 140.400006 9.40427437 2.32500009 179.729281 -4.94481559e-13 173.804281"></polygon>
                    </g>
                    <g id="编组-11" transform="translate(20.400001, 0.000000)">
                        <polygon id="矩形备份-18" fill="#777B8E" points="214.800009 158.400006 254.40001 135.600005 254.40001 164.400007 214.800009 187.200007"></polygon>
                        <polygon id="矩形" fill="#F7A91A" points="130.800005 0 270.000011 232.800009 207.600008 268.800011 124.800005 24.000001"></polygon>
                        <path d="M227.593207,161.879806 L270.000011,232.800009 L207.600008,268.800011 L180.498207,188.674806 L227.593207,161.879806 Z" id="形状结合" fill="#777B8E"></path>
                        <polygon id="矩形" fill="#FED544" points="130.800005 0 207.600008 268.800011 180.750007 253.65001 167.325007 246.07501 120.000005 24.000001"></polygon>
                        <path d="M150.530406,167.267807 L184.037406,186.331807 L207.600008,268.800011 L167.325007,246.07501 L150.530406,167.267807 Z" id="形状结合" fill="#959AB2"></path>
                        <polygon id="矩形" fill="#959AB2" transform="translate(224.175009, 216.176546) rotate(-30.000000) translate(-224.175009, -216.176546) " points="241.007653 178.395391 239.798326 189.190007 237.379673 210.779238 232.542366 253.957701 207.342365 253.957701 212.179672 210.779238 214.598325 189.190007 215.807652 178.395391"></polygon>
                        <polygon id="矩形" fill="#5F6377" transform="translate(227.316932, 214.362556) rotate(-30.000000) translate(-227.316932, -214.362556) " points="240.521596 176.581401 239.312269 187.376017 236.893616 208.965248 232.056309 252.143711 214.112268 187.376017 215.321595 176.581401"></polygon>
                        <polygon id="矩形" fill="#777B8E" points="133.200005 205.200008 172.800007 182.400007 172.800007 211.200008 133.200005 234.000009"></polygon>
                        <polygon id="矩形" fill="#959AB2" points="0 129.600005 133.200005 205.200008 133.200005 234.000009 0 158.400006"></polygon>
                    </g>
                    <path d="M54.7400008,109.879604 L59.5860008,112.630604 L30.0804012,129.574805 L153.585606,199.672808 L188.006001,179.905604 L192.854001,182.657604 L153.600006,205.200008 L20.4000008,129.600005 L54.7400008,109.879604 Z M213.473001,100.792604 L274.800011,135.600005 L243.206001,153.742604 L240.736001,149.625604 L265.118411,135.624005 L223.327001,111.904604 L223.200009,111.600004 L213.473001,100.792604 Z" id="形状结合" fill="#CBD2F3" fill-rule="nonzero"></path>
                </g>
                <g id="人物，工装5（俯视）" transform="translate(549.000000, 577.000000)">
                    <polygon id="矩形备份-8" fill="#CED4D6" transform="translate(48.368350, 59.652543) rotate(7.000000) translate(-48.368350, -59.652543) " points="49.946878 46.4800002 65.2967003 48.6572799 46.7898224 72.8250852 31.4400001 70.6478054"></polygon>
                    <g id="编组-2" transform="translate(1.869174, 79.678826)">
                        <polygon id="路径-19" fill="#473F5C" points="4.00182503 0.806446559 1.96710538 8.47225521 1.5588654 11.3347215 4.00182503 24.7265662 5.13082557 41.321174 3.67612701 50.2097538 5.13082557 63.6772968 16.411826 63.6772968 17.5074009 54.4009209 20.0295779 48.8839616 21.2187277 59.2937696 20.244172 66.2732283 21.064314 74.1561659 31.4635282 75.7512373 35.2280291 65.7344973 35.2280291 56.3038145 38.7546428 38.722257 39.513777 22.1382834 39.513777 12.0343832"></polygon>
                        <polygon id="路径-7备份" fill="#231E31" points="34.4066311 69.9430051 33.7233843 80.6535746 33.0943512 92.6135048 36.1534276 95.321174 43.6455307 97.9840418 44.1534276 101.321174 39.1534276 103.321174 34.1534276 103.321174 28.1534276 104.321174 25.5896926 104.282674 23.3360869 103.516368 22.6308256 102.321174 22.7694206 100.366901 22.7694206 98.3180652 23.4746819 92.9796513 19.8534737 77.4954447 20.1308256 68.321174 22.1308256 71.321174 28.1308256 73.321174 32.1308256 72.321174"></polygon>
                        <ellipse id="椭圆形" fill-opacity="0.100438" fill="#000000" transform="translate(25.117805, 95.173560) rotate(22.000000) translate(-25.117805, -95.173560) " cx="25.1178048" cy="95.1735595" rx="22.5" ry="9"></ellipse>
                        <polygon id="路径-7备份-3" fill="#231E31" points="17.6839829 57.321174 17.0007361 68.0317434 16.371703 79.9916737 17.6308256 82.821174 20.1479117 84.4302783 20.6558087 87.7674105 19.2899469 88.8232681 16.1308256 89.821174 13.3127762 91.6290813 11.1308256 91.821174 6.8360869 90.5163681 6.13082557 89.321174 6.0467724 87.7450697 6.0467724 85.696234 6.75203373 80.3578201 3.13082557 64.8736136 4.13082557 55.321174 5.70359986 58.0535978 13.1308256 60.321174 16.1308256 59.321174"></polygon>
                        <polyline id="路径-20" stroke="#736B88" stroke-width="0.54431997" points="20.1308256 49.321174 20.1308256 45.321174 18.1308256 31.321174 13.6919369 24.4798719 12.1308256 18.321174 12.4716687 13.7730553"></polyline>
                    </g>
                    <g id="编组-5" transform="translate(1.000000, 28.692558)">
                        <g id="编组-3">
                            <mask id="mask-10" fill="white">
                                <use xlink:href="#path-9"></use>
                            </mask>
                            <use id="路径-18" fill="#FF935F" xlink:href="#path-9"></use>
                            <polygon id="路径-21" fill="#E5FFA5" mask="url(#mask-10)" points="46.9131127 33.3268058 41.4772361 40.1860028 36.5269481 42.0605752 31.2724998 46.2410036 25 45.3074424 17.6804 43.4711312 8 39.3074424 4.68039996 36.1039488 4 31.3074424 8.08550104 35.3819628 17 39.3074424 25.3802576 41.1437537 31.2724998 42.0773149 35.3721873 38.7945417 39.8801148 37.4168885 45.558471 29.5462542"></polygon>
                        </g>
                        <path d="M45.1863777,37.2942108 L48.0011831,40.8192453 L48.0011831,45.9237801 L46.9685972,49.5162294 C46.2998297,51.0319547 45.1248182,52.0294089 43.4435627,52.508592 C41.7623072,52.9877752 40.2858281,52.4244027 39.0141254,50.8184745 L40.336043,63.0206517 L37,66.3074424 L29,66.3074424 L20,64.3074424 L6,56.3074424 L4.1905995,54.8270982 L7,45.3074424 L5,33.3074424 L8,41.3074424 L22,46.3074424 L29.6078766,47.4898633 L26.1054122,28.650133 L30.9374234,24.0134502 L37.9238547,42.490814 L42.3829515,40.8192453 L45.1863777,37.2942108 Z" id="路径-18" fill="#473F5C"></path>
                        <polyline id="路径" stroke="#736B88" stroke-width="0.54431997" points="40.336043 63.0206517 35.7429304 66.2931428 22 65.3074424 6 56.3074424 4.1905995 54.8270982"></polyline>
                    </g>
                    <g id="编组-4" transform="translate(0.440310, 0.000000)">
                        <path d="M28.783249,13.7121176 C30.2471705,21.6367188 28.7493079,27.2851437 26.55969,30 C25.9435384,30.7639521 24.55969,31 23.2464469,31.1569936 C23.1792407,31.9318129 23.1792407,33.2262952 23.2464469,35.0404406 L9.65668432,33.722274 C10.2738149,30.114004 10.5823802,27.3865145 10.5823802,25.5398056 C10.5823802,22.7697422 8.08946454,19.8263459 8.08946454,14.8915491 C8.08946454,9.95675232 13.9238754,4.65375501 19.8408998,5.89110157 C25.7579241,7.12844814 27.8395672,9.97179588 28.783249,13.7121176 Z" id="路径-13" fill="#FFC59D"></path>
                        <path d="M19.8408998,22.3914874 C20.5248087,27.1507399 24.4681362,30.0578601 26.55969,30 C25.9435384,30.7639521 24.55969,31 23.2464469,31.1569936 C23.1792407,31.9318129 23.1792407,33.2262952 23.2464469,35.0404406 L9.65668432,33.722274 C10.2738149,30.114004 10.5823802,27.3865145 10.5823802,25.5398056 C10.5823802,22.7697422 8.08946454,19.8263459 8.08946454,14.8915491 C8.08946454,9.95675232 13.9238754,4.65375501 19.8408998,5.89110157 C25.7579241,7.12844814 18.8972179,18.6511657 19.8408998,22.3914874 Z" id="路径-13" fill="#F1A774"></path>
                        <polygon id="路径-18" fill="#473F5C" points="4.04020801 35.0404406 8.08946454 30.6925576 18.7217364 30.6925576 24.4246029 32.6768546 27.5938546 36.7519904 23.1153815 35.643148 12.7675061 34.530832"></polygon>
                        <path d="M29.3540082,14.6173094 C30.1675666,17.2494259 26.9898427,22.3914874 26.133287,22.3914874 C25.2767313,22.3914874 26.0336145,19.9723683 24.55969,21 C23.0857655,22.0276317 24.0182488,22.1635712 22.4348658,23.626492 C20.8514829,25.0894127 19.2455924,29.3680666 18.7217364,31.8863661 C18.1978804,34.4046657 15.8170313,40.0069479 15.8170313,48.355905 C15.8170313,56.704862 11.7994436,66.8845835 8.08946454,67.895771 C4.3794855,68.9069585 2.55817547,65.2166454 1.04992974,59.2850404 C-0.458315986,53.3534353 -0.451945389,47.2168129 1.79413131,40.248538 C4.04020801,33.2802631 9.37050867,29.3160143 9.37050867,25.0367105 C9.37050867,20.7574067 5.71904832,21.1667675 8.08946454,11.1957437 C9.66974203,4.54839453 15.2391799,3.66074997 24.7977782,8.53281005 C27.2928927,10.8343986 28.811636,12.8625651 29.3540082,14.6173094 Z" id="路径-17" fill="#53443F"></path>
                        <path d="M17.6233693,0.91572078 C23.7375733,0.91572078 28.4976501,4.78663529 29.8077033,10.7017308 C31.6261914,10.6817393 33.3425208,11.2279984 34.9567413,12.3398596 L34.9567413,12.3398596 L34.9567413,13.2720117 C29.0488996,18.2177094 24.2498825,21.1270388 20.55969,22 C12.582278,23.8871566 7.30143704,23.9739493 4.7171671,22.260378 L4.7171671,22.260378 L4.04020801,21.4017434 C3.67705142,20.3177655 3.90500761,19.1869305 4.72407657,18.0092384 C4.58869497,17.1245232 4.55969001,16.1699827 4.55969001,15 C4.55969001,7.22146737 10.4084984,0.91572078 17.6233693,0.91572078 Z" id="形状结合" fill="#FF7E27"></path>
                    </g>
                </g>
                <g id="柱状图" filter="url(#filter-11)" transform="translate(642.000000, 517.000000)">
                    <g id="编组-20" transform="translate(114.000000, 0.000000)">
                        <polygon id="矩形" fill="#EDEDF7" points="0 14.7462687 26 29.4925373 26 148.268657 0 133.522388"></polygon>
                        <polygon id="矩形备份-30" fill="#D5DAF0" transform="translate(39.000000, 81.507463) scale(-1, 1) translate(-39.000000, -81.507463) " points="26 14.7462687 52 29.4925373 52 148.268657 26 133.522388"></polygon>
                        <polygon id="矩形" fill="#F8F9FD" points="0 14.7462687 26 -2.94689646e-14 52 14.7462687 26 29.4925373"></polygon>
                    </g>
                    <g id="编组-20备份" transform="translate(76.000000, 61.000000)">
                        <polygon id="矩形" fill="#FEC11B" points="0 14.7462687 26 29.4925373 26 108.268657 0 93.5223881"></polygon>
                        <polygon id="矩形备份-30" fill="#F7A91A" transform="translate(39.000000, 61.507463) scale(-1, 1) translate(-39.000000, -61.507463) " points="26 14.7462687 52 29.4925373 52 108.268657 26 93.5223881"></polygon>
                        <polygon id="矩形" fill="#FED544" points="0 14.7462687 26 0 52 14.7462687 26 29.4925373"></polygon>
                    </g>
                    <g id="编组-20备份-2" transform="translate(39.000000, 62.000000)">
                        <polygon id="矩形" fill="#EDEDF7" points="0 14.7462687 26 29.4925373 26 128.268657 0 113.522388"></polygon>
                        <polygon id="矩形备份-30" fill="#D5DAF0" transform="translate(39.000000, 71.507463) scale(-1, 1) translate(-39.000000, -71.507463) " points="26 14.7462687 52 29.4925373 52 128.268657 26 113.522388"></polygon>
                        <polygon id="矩形" fill="#F8F9FD" points="0 14.7462687 26 -1.14601529e-14 52 14.7462687 26 29.4925373"></polygon>
                    </g>
                    <g id="编组-20备份-3" transform="translate(0.000000, 143.000000)">
                        <polygon id="矩形" fill="#FEC11B" points="0 14.7462687 26 29.4925373 26 68.2686567 0 53.5223881"></polygon>
                        <polygon id="矩形备份-30" fill="#F7A91A" transform="translate(39.000000, 41.507463) scale(-1, 1) translate(-39.000000, -41.507463) " points="26 14.7462687 52 29.4925373 52 68.2686567 26 53.5223881"></polygon>
                        <polygon id="矩形" fill="#FED544" points="0 14.7462687 26 -9.65927172e-14 52 14.7462687 26 29.4925373"></polygon>
                    </g>
                </g>
                <g id="卡片" filter="url(#filter-12)" transform="translate(341.000000, 557.000000)">
                    <polygon id="矩形" fill="#D5DAF0" points="0 102 180 -2.0795865e-14 187 4 7 220 0 216"></polygon>
                    <polygon id="矩形" fill="#F8F9FD" points="7 106 187 4 187 118 7 220"></polygon>
                    <path d="M44,110 C61.1208272,110 75,119.849736 75,132 C75,144.150264 61.1208272,154 44,154 C26.8791728,154 13,144.150264 13,132 C13,119.849736 26.8791728,110 44,110 Z M44.9422577,114.398211 L38.0357809,124.521566 L22.5924295,126.144922 L33.7673436,134.024855 L31.1293042,145.151499 L44.9422577,139.898211 L58.7552111,145.151499 L56.1171717,134.024855 L67.2920858,126.144922 L51.8487344,124.521566 L44.9422577,114.398211 Z" id="形状结合" fill="#F7A91A" transform="translate(44.000000, 132.000000) rotate(-81.000000) translate(-44.000000, -132.000000) "></path>
                    <path d="M132,120.913 L132,132.914 L83,160.547 L83,148.547 L132,120.913 Z" id="形状结合" fill="#D5DAF0"></path>
                    <path d="M65,163.512 C65,167.218974 63.0026944,170.638383 59.7737908,172.459327 L29.2262092,189.686673 C27.5402645,190.637463 25.4027683,190.041503 24.4519777,188.355559 C24.1556799,187.830162 24,187.237186 24,186.634 C24,182.927026 25.9973056,179.507617 29.2262092,177.686673 L59.7737908,160.459327 C61.4597355,159.508537 63.5972317,160.104497 64.5480223,161.790441 C64.8443201,162.315838 65,162.908814 65,163.512 Z" id="路径" fill="#F7A91A"></path>
                    <polygon id="路径" fill="#D5DAF0" points="174 75 174 87 173 87.566 173 87.791 83 138.547 83 126.547 142 93.274 142 93.126"></polygon>
                    <polygon id="路径" fill="#FEC11B" points="174 53 174 65 173 65.566 173 65.791 83 116.547 83 104.547 142 71.273 142 71.126"></polygon>
                    <polygon id="路径" fill="#D5DAF0" points="174 30 174 42 173 42.566 173 42.791 83 93.547 83 81.547 142 48.273 142 48.126"></polygon>
                </g>
                <g id="其他，高空机械" transform="translate(885.000000, 0.000000)">
                    <g id="编组-16" transform="translate(98.000000, 218.000000)">
                        <path d="M50,0 L50,90 C50.6666667,89.3333333 51.6666667,89 53,89 C55,89 56,93 55,97 C54,101 49,105 46,105 C44,105 43,103.666667 43,101" id="路径-6" stroke="#777B8E" stroke-width="2" stroke-linecap="round" stroke-linejoin="round"></path>
                        <g id="编组-15" transform="translate(0.000000, 112.000000)">
                            <path d="M11.6607108,39.3922639 L79.548912,0.922283202 C81.8098069,-0.358890563 84.4810837,-0.245014741 86.5683668,0.988870615 C87.2469915,1.39003572 90.0575359,3.06041218 95,6 C91.6666667,5.86852344 90,6.20600295 90,7.0124385 L90,83.5972259 C90,91.880516 85.5459354,99.52397 78.3392892,103.607736 L13,147 C8.02808473,144.497319 4.84771139,142.839703 3.45887997,142.027153 C2.42938328,141.424836 1.54022214,140.55108 0.909844699,139.43865 C0.313470396,138.386224 0,137.197215 0,135.987561 L0,59.4027741 C0,51.119484 4.45406463,43.47603 11.6607108,39.3922639 Z" id="矩形" fill="#FEBC08"></path>
                            <path d="M20.6607108,44.3922639 L88.548912,5.9222832 C91.9124119,4.01629993 96.184172,5.1978506 98.0901553,8.5613505 C98.6865296,9.61377574 99,10.8027852 99,12.0124385 L99,88.5972259 C99,96.880516 94.5459354,104.52397 87.3392892,108.607736 L19.451088,147.077717 C16.0875881,148.9837 11.815828,147.802149 9.9098447,144.43865 C9.3134704,143.386224 9,142.197215 9,140.987561 L9,64.4027741 C9,56.119484 13.4540646,48.47603 20.6607108,44.3922639 Z" id="矩形" fill="#F7A91A"></path>
                            <path d="M43,60 L62,90 L69,71 L87,95 L21,134 L43,60 Z M77.9697021,32 C82.9569979,32 87,35.9539382 87,40.8313681 L87,40.8313681 L87,41.1271514 C87,50.5210238 81.8463068,59.1926505 73.5,63.8423101 C72.1380804,64.6010245 70.5976836,65 69.0302979,65 C64.0430021,65 60,61.0460618 60,56.1686319 L60,56.1686319 L60,55.8728486 C60,46.4789762 65.1536932,37.8073495 73.5,33.1576899 C74.8619196,32.3989755 76.4023164,32 77.9697021,32 Z" id="形状结合" fill="#F8F9FD"></path>
                        </g>
                        <polyline id="路径-7" stroke="#777B8E" stroke-linecap="round" stroke-linejoin="round" points="7 163 48 104 91 115"></polyline>
                    </g>
                    <g id="编组-5" transform="translate(201.000000, 371.000000)">
                        <g id="形状结合">
                            <use fill="black" fill-opacity="1" filter="url(#filter-14)" xlink:href="#path-13"></use>
                            <use fill="#D5DAF0" fill-rule="evenodd" xlink:href="#path-13"></use>
                        </g>
                        <polygon id="矩形" fill="#F8F9FD" points="0 58.0025253 86.5 8.50252532 173 58.0025253 86.5 107.502525"></polygon>
                        <path d="M87,92.2512627 L86.999,92.2502627 L29,59.2512627 L29,33.2512627 L60,17.2512627 L114,17.2512627 L145,33.2512627 L145,59.2512627 L87.001,92.2502627 L87,92.2512627 L87,92.2512627 Z" id="形状结合" fill="#D5DAF0"></path>
                        <polygon id="矩形" fill="#F8F9FD" points="29 33 87 0 145 33 87 66"></polygon>
                    </g>
                    <g id="编组-6" transform="translate(288.748711, 268.069219) rotate(-240.000000) translate(-288.748711, -268.069219) translate(155.248711, 174.569219)">
                        <path d="M221.539764,12.351597 L221.539245,41.758597 L236.539764,33.351597 L236.539764,39.351597 L222.549245,47.190597 L247.539764,61.351597 L247.539764,67.351597 L217.539764,50.351597 L217.539245,49.998597 L197.056245,61.477597 L221.539764,75.351597 L221.539764,81.351597 L191.733245,64.460597 L170.675245,76.261597 L195.539764,90.351597 L195.539764,96.351597 L165.539764,79.351597 L165.539245,79.139597 L145.182245,90.548597 L169.539764,104.351597 L169.539764,110.351597 L139.858245,93.531597 L118.800245,105.333597 L143.539764,119.351597 L143.539764,125.351597 L113.539764,108.351597 L113.539245,108.281597 L92.4202448,120.116597 L117.539764,134.351597 L117.539764,140.351597 L87.5397645,123.351597 L87.5392448,122.852597 L66.0392448,134.900597 L91.5397645,149.351597 L91.5397645,155.351597 L61.5397645,138.351597 L61.5392448,137.422597 L41.0482448,148.906597 L66.5397645,163.351597 L66.5397645,169.351597 L36.5397645,152.351597 L36.5392448,151.433597 L2.783321,170.351597 L0.185244785,168.459292 L1.05127019,165.351597 L35.5392448,146.018597 L35.5397645,114.351597 L40.5397645,114.351597 L40.5392448,143.215597 L60.5392448,132.005597 L60.5397645,100.351597 L65.5397645,100.351597 L65.5392448,129.202597 L86.5392448,117.431597 L86.5397645,85.351597 L91.5397645,85.351597 L91.5392448,114.628597 L112.539245,102.857597 L112.539764,70.351597 L117.539764,70.351597 L117.539245,100.054597 L138.539245,88.283597 L138.539764,55.351597 L143.539764,55.351597 L143.539245,85.480597 L164.539245,73.709597 L164.539764,41.351597 L169.539764,41.351597 L169.539245,70.906597 L190.539245,59.135597 L190.539764,26.351597 L195.539764,26.351597 L195.539245,56.332597 L216.539245,44.561597 L216.539764,12.351597 L221.539764,12.351597 Z" id="形状结合备份-3" fill="#D5DAF0"></path>
                        <path d="M234.771125,0.200961894 L239.869201,3.03108891 L221.138169,13.5479619 L246.052169,27.6659619 L263.995536,17.6147367 L266.359582,18.9137748 L266.593612,22.1147367 L248.749169,32.1139619 L248.842323,32.1147367 L248.842169,60.2069619 L266.842323,50.1147367 L266.842323,56.1147367 L118.842169,139.044962 L118.842323,139.114737 L118.719169,139.113962 L92.8421686,153.613962 L92.8423234,154.114737 L91.9501686,154.113962 L67.8421686,167.622962 L67.8423234,168.114737 L66.9661686,168.113962 L33.9519053,186.614737 L28.7557529,183.614737 L62.8421686,164.500962 L62.8421686,136.297962 L32.8371686,153.114737 L32.8371686,147.114737 L59.1951686,132.346962 L35.8423234,119.114737 L35.8421686,117.582962 L2.83716857,136.114737 L2.83716857,130.114737 L234.771125,0.200961894 Z M87.8421686,122.287962 L66.7401686,134.113962 L67.8423234,134.114737 L67.8421686,161.696962 L87.8421686,150.482962 L87.8421686,122.287962 Z M113.842169,107.716962 L91.7221686,120.113962 L92.8423234,120.114737 L92.8421686,147.678962 L113.842169,135.903962 L113.842169,107.716962 Z M139.842169,93.1459619 L118.487169,105.113962 L118.842323,105.114737 L118.842169,133.099962 L139.842169,121.324962 L139.842169,93.1459619 Z M60.8421686,103.546962 L39.8041686,115.358962 L64.5191686,129.363962 L84.1891686,118.343962 L60.8423234,105.114737 L60.8421686,103.546962 Z M165.842169,78.5759619 L144.842169,90.3439619 L144.842169,118.520962 L165.842169,106.745962 L165.842169,78.5759619 Z M86.8421686,88.9499619 L64.7721686,101.340962 L89.5141686,115.360962 L110.575169,103.561962 L86.8423234,90.1147367 L86.8421686,88.9499619 Z M191.842169,64.0049619 L170.842169,75.7729619 L170.842169,103.941962 L191.842169,92.1669619 L191.842169,64.0049619 Z M112.842169,74.3509619 L91.1281686,86.5429619 L115.899169,100.579962 L136.960169,88.7809619 L112.842323,75.1147367 L112.842169,74.3509619 Z M217.842169,49.4349619 L196.842169,61.2029619 L196.842169,89.3639619 L217.842169,77.5889619 L217.842169,49.4349619 Z M138.842169,59.7539619 L117.485169,71.7449619 L142.285169,85.7979619 L163.346169,73.9989619 L138.842323,60.1147367 L138.842169,59.7539619 Z M243.842169,34.8639619 L222.842169,46.6319619 L222.842169,74.7849619 L243.842169,63.0099619 L243.842169,34.8639619 Z M164.842169,45.1559619 L143.841169,56.9469619 L168.670169,71.0169619 L188.844169,59.7149619 L164.842323,46.1147367 L164.842169,45.1559619 Z M190.842169,30.5579619 L169.311169,42.6469619 L194.168169,56.7319619 L215.229169,44.9329619 L190.842323,31.1147367 L190.842169,30.5579619 Z M216.842169,15.9599619 L195.668169,27.8489619 L220.553169,41.9509619 L240.727169,30.6489619 L216.842323,17.1147367 L216.842169,15.9599619 Z" id="形状结合备份-4" fill="#EDEDF7"></path>
                    </g>
                    <g id="编组-17" transform="translate(345.000000, 0.000000)">
                        <polygon id="矩形" fill="#D5DAF0" points="44 50 88 25 88 118 44 143"></polygon>
                        <polygon id="矩形" fill="#DEE1F1" points="44 50 0 25 0 118 44 143"></polygon>
                        <polygon id="矩形" fill="#EFF1F9" points="44 50 0 25 44 2.84217094e-13 88 25"></polygon>
                    </g>
                    <g id="编组-14" transform="translate(228.000000, 148.000000)">
                        <polygon id="路径" fill="#FEBC08" points="41 13 33 65 0 57 0 42.182 5 34 5 15.188 23 10"></polygon>
                        <polygon id="路径" fill="#D5DAF0" points="43 14 35 66 2 58 2 43.182 7 35 7 16.188 25 11"></polygon>
                        <polygon id="路径" fill="#FED544" points="32 0 60 16 34 32 5 15.188"></polygon>
                        <polygon id="路径备份" fill="#FEC11B" points="0 43 28 59 28 73 -1.87350135e-16 57"></polygon>
                        <polygon id="路径" fill="#F7A91A" points="60 16 60 55 28 73 28 58.182 33 50 33 31.188"></polygon>
                        <path d="M57,21 L57,36.688 L37,47.938 L37,31.937 L56.444,21 L57,21 Z" id="形状结合" fill="#D5DAF0"></path>
                    </g>
                    <g id="编组-13" transform="translate(0.000000, 46.000000)">
                        <path d="M340,11 L340,40.493 L355,32 L355,38 L341.082,45.88 L366,60 L366,66 L336,49 L336,48.758 L315.719,60.241 L340,74 L340,80 L310.423,63.24 L289.473,75.101 L314,89 L314,95 L284.177,78.1 L264.109,89.462 L288,103 L288,109 L258.813,92.461 L237.863,104.323 L262,118 L262,124 L232.567,107.321 L211.617,119.183 L236,133 L236,139 L206.321,122.182 L185.371,134.044 L210,148 L210,154 L180.075,137.042 L160.507,148.121 L185,162 L185,168 L155.211,151.12 L135.644,162.199 L160,176 L160,182 L130.348,165.197 L108.898,177.342 L133,191 L133,197 L103.602,180.341 L84.035,191.42 L108,205 L108,211 L78.738,194.418 L57.788,206.28 L82,220 L82,226 L52.492,209.279 L31.042,221.424 L55,235 L55,241 L25.746,224.423 L0,239 L0,233 L24,219.411 L24,186 L29,186 L29,216.58 L51,204.124 L51,171 L56,171 L56,201.293 L77,189.403 L77,156 L82,156 L82,186.572 L102,175.248 L102,142 L107,142 L107,172.417 L129,159.961 L129,127 L134,127 L134,157.13 L154,145.806 L154,113 L159,113 L159,142.975 L179,131.651 L179,99 L184,99 L184,128.82 L205,116.93 L205,84 L210,84 L210,114.099 L231,102.208 L231,69 L236,69 L236,99.377 L257,87.487 L257,54 L262,54 L262,84.656 L283,72.766 L283,40 L288,40 L288,69.935 L309,58.045 L309,25 L314,25 L314,55.214 L335,43.324 L335,11 L340,11 Z" id="形状结合" fill="#D5DAF0"></path>
                        <path d="M349.56,0.668174377 L354.806,3.69717438 L339.336,12.457 L364.04,26.456 L379.279,17.8271744 L384.527,20.8561744 L366.612,31 L367,31 L367,59.192 L385,49 L385,55 L32.095,254.814 L32,255 L31.936,254.904 L30,256 L0,239 L0,232 L24,185 L257,53.076 L257,53 L257.067,53.038 L349.56,0.668174377 Z M25.551,191.879 L3.531,235.001 L30,250 L30,249 L51,207.875 L51,206.299 L25.551,191.879 Z M51,217.792 L36.405,246.373 L51,238.109 L51,217.792 Z M78,194.411 L56,206.867 L56,235.278 L78,222.822 L78,194.411 Z M104,179.689 L83,191.58 L83,219.991 L104,208.101 L104,179.689 Z M129,165.535 L109,176.859 L109,205.27 L129,193.946 L129,165.535 Z M51,175.712 L29.296,188.001 L54,202 L75.45,189.855 L51,176 L51,175.712 Z M156,150.247 L134,162.704 L134,191.115 L156,178.659 L156,150.247 Z M77,160.991 L56.042,172.857 L80.746,186.856 L101.696,174.994 L77,161 L77,160.991 Z M181,136.093 L161,147.417 L161,175.828 L181,164.504 L181,136.093 Z M102,146.836 L82.288,157.997 L106.992,171.996 L126.559,160.917 L102,147 L102,146.836 Z M206,121.937 L186,133.262 L186,161.673 L206,150.349 L206,121.937 Z M129,131.549 L107.152,143.919 L131.856,157.918 L153.306,145.773 L129,132 L129,131.549 Z M232,107.216 L211,119.107 L211,147.518 L232,135.628 L232,107.216 Z M154,117.394 L133.898,128.776 L158.602,142.774 L178.169,131.696 L154,118 L154,117.394 Z M258,92.495 L237,104.386 L237,132.797 L258,120.907 L258,92.495 Z M179,103.239 L158.762,114.698 L183.465,128.697 L203.032,117.618 L179,104 L179,103.239 Z M284,77.774 L263,89.665 L263,118.076 L284,106.186 L284,77.774 Z M205,88.519 L183.625,100.621 L208.328,114.619 L229.278,102.757 L205,89 L205,88.519 Z M310,63.053 L289,74.943 L289,103.355 L310,91.465 L310,63.053 Z M231,73.797 L209.871,85.76 L234.574,99.759 L255.524,87.897 L231,74 L231,73.797 Z M336,48.333 L315,60.223 L315,88.634 L336,76.744 L336,48.333 Z M257.067,59.038 L236.117,70.9 L260.821,84.898 L281.77,73.037 L257.067,59.038 Z M362,33.611 L341,45.502 L341,73.913 L362,62.023 L362,33.611 Z M283,44.354 L262.363,56.039 L287,70 L287,70.076 L307.134,58.676 L283,45 L283,44.354 Z M309,29.633 L287.727,41.678 L312.431,55.677 L333.38,43.816 L309,30 L309,29.633 Z M335,14.913 L313.973,26.818 L338.677,40.817 L358.744,29.455 L335,16 L335,14.913 Z" id="形状" fill="#EDEDF7"></path>
                    </g>
                </g>
                <g id="人物，工装4（俯视）" transform="translate(596.000000, 605.000000)">
                    <g id="编组-13" transform="translate(19.139150, 74.433435)">
                        <ellipse id="椭圆形" fill-opacity="0.100438" fill="#000000" cx="27.3608499" cy="104.566565" rx="25.5" ry="6"></ellipse>
                        <polygon id="路径-26" fill="#473F5C" transform="translate(25.345801, 39.600946) rotate(3.000000) translate(-25.345801, -39.600946) " points="41.9612993 5.77024151 45.5303796 15.8369188 46.9225238 25.9857835 48.0068345 45.7114838 46.8558761 55.1600647 46.5355114 59.2466682 47.0457482 66.0708179 46.0418231 70.0920698 34.6929088 69.851678 33.3417049 66.9163285 33.1393396 63.0549682 31.7903177 59.5203325 29.0643989 44.6629008 26.5848941 38.3241862 25.3757376 50.3752436 24.106104 58.6849607 25.611675 67.3214422 24.0420004 72.5664049 20.3959928 78.045441 11.9072225 69.2826318 10.7405001 64.6945679 10.9072311 58.6117682 7.6086982 47.8818049 5.10314793 35.1370039 2.68476792 17.7225679 5.31910195 6.62296489 11.0084525 1.15645102"></polygon>
                        <polygon id="路径-7备份-3" fill="#231E31" points="24.1487986 67.266569 24.2197825 78.5599566 22.8200109 96.6970407 23.8945234 101.015352 24.3401128 105.967971 23.8945234 108.713425 13.7827078 108.713425 12.4678032 108.242348 11.8566482 107.33808 9.20085078 104.32657 9.20085078 101.558492 11.3808508 99.96657 13.0793317 96.8288359 9.41257075 75.2299764 9.68930742 67.266569 11.3808508 69.4465691 14.6508509 71.6265691 19.0108511 71.6265691 23.3708512 69.4465691"></polygon>
                        <polygon id="路径-7备份-4" fill="#231E31" transform="translate(40.114820, 87.989997) scale(-1, 1) translate(-40.114820, -87.989997) " points="48.2495378 67.266569 48.1933841 78.5599566 46.9207501 96.6970407 47.9952626 101.015352 48.440852 105.967971 47.4867122 108.713425 38.3287879 108.68657 36.793447 107.623425 36.1487878 106.50657 33.9687878 105.41657 31.7887877 103.824648 31.7887877 101.05657 35.0587878 98.87657 37.2387879 95.6065699 33.51331 75.2299764 33.7900466 67.266569 35.0587878 69.4465691 38.3287879 70.5365691 42.688788 70.5365691 45.9587881 69.4465691"></polygon>
                        <polyline id="路径-27" stroke="#736B88" stroke-width="0.545000017" points="26.6500164 38.390785 25.0182035 32.511305 23.3863906 28.1771544 23.3863906 23.1878332"></polyline>
                    </g>
                    <g id="编组-12" transform="translate(0.000000, 9.462420)">
                        <polygon id="路径-30" fill="#FFC59D" points="22.7512167 70.517056 23.9324116 71.2054519 25.5569335 73.7820266 30.8184707 69.4876168 27.8815732 66.4788219 23.5182174 65.241455"></polygon>
                        <g id="编组-10" transform="translate(45.206746, 0.000000)">
                            <polygon id="路径-31" fill="#FFC59D" points="10.8230608 11.8427058 7.16474024 10.8619416 4.34591934 8.72949065 3.20394102 5.83734486 2.2201949 5.16707264 2.2201949 4.37965381 3.4470769 4.12537862 4.8627821 4.60669922 4.54085552 3.74373885 3.79718549 2.94744074 1.36506594 3.52817419 1.1563097e-13 3.20138941 1.1563097e-13 2.23013465 3.20394102 1.25888964 3.60167031 0.308189449 4.8627821 0 6.81607344 1.25888964 9.69236581 1.52897872 10.8230608 2.02980438 13.1511695 5.83734486 13.9223276 7.30924834 16.5278875 9.70852584 12.2418035 12.9140355"></polygon>
                            <polyline id="路径-32" stroke="#F1A774" stroke-width="0.545000017" stroke-linecap="round" stroke-linejoin="round" points="3.20394102 1.25888964 4.13933826 0.938451038 4.89184981 0.938451038 6.92778509 2.94744074"></polyline>
                            <polyline id="路径-33" stroke="#F1A774" stroke-width="0.545000017" stroke-linecap="round" stroke-linejoin="round" points="4.47305694 4.50679141 5.19300065 5.01963296 5.86215961 6.06260307 6.0963897 7.05420406 6.41889465 7.55809372"></polyline>
                        </g>
                        <g id="路径-28" transform="translate(0.000000, 5.482634)">
                            <mask id="mask-16" fill="white">
                                <use xlink:href="#path-15"></use>
                            </mask>
                            <use id="蒙版" fill="#FF935F" xlink:href="#path-15"></use>
                            <polygon fill="#E5FFA5" mask="url(#mask-16)" points="67.8326285 14.4755561 72.9239888 16.7137946 74.3344558 25.2268918 59.3571937 45.9803595 54.3291123 48.807001 31.6152423 53.0308594 27.2349982 51.9248911 25.5541907 52.8679792 17.3461999 45.4468276 15.4935692 44.2960353 7.83854751 42.9159532 3.17522754 40.1804447 4.49267721 37.7750048 9.38616255 40.9728802 19.7294839 42.9159532 27.2543384 49.4411679 31.0300748 50.6700576 54.3295476 46.4166445 59.3571937 43.6065462 71.0401242 24.879975 71.822757 23.8175222 71.0401242 18.2737843 64.6124383 15.0419377"></polygon>
                        </g>
                        <polygon id="路径-25" fill="#473F5C" points="65.2077596 21.3762197 58.3705727 14.1434613 55.7827312 10.9178792 57.1119281 8.21703588 60.9143335 5.48263412 66.1971618 9.02941135 71.9856687 12.3309138 78.9436566 17.6228829 81.1313928 23.1963693 80.2962008 26.3079107 75.7360735 32.8196492 64.207346 40.4398479 61.924514 63.3314394 63.4237237 71.3339505 65.0300546 75.784151 57.1317535 82.7260138 28.6923986 83.7983942 23.5182174 78.6191319 25.172778 72.5520041 28.2608343 65.6437215 20.2395938 52.3614881 16.4259761 57.2110278 17.4064669 59.3930653 23.8996301 64.7841579 24.1533837 68.3044976 22.9193061 71.3339505 19.6200006 71.197582 5.70468529 64.7841579 0.685662534 59.7625913 -2.68036961e-13 54.4472687 3.62278376 47.292615 6.98950624 49.3258547 13.344444 50.7494617 20.2395938 44.0944832 25.172778 50.7494617 29.0738114 59.3930653 32.4580881 60.0282212 53.9111013 55.9952066 57.4933409 54.0503949 59.7251161 32.6511489 69.1839259 30.1826091 74.9400984 26.6520463 74.2512938 21.3762197 70.451053 19.7781901"></polygon>
                        <polygon id="路径-29" fill="#FFC59D" points="23.9324116 65.2402638 25.6797393 65.2402638 27.5184534 65.0677385 29.9462289 64.3347869 32.8852827 64.3347869 32.5593918 65.6437215 30.5499739 66.108315 28.4041434 67.6106598 26.9759203 69.0382273 24.8469812 69.4876168 23.9794585 66.4678722"></polygon>
                        <polyline id="路径" stroke="#736B88" stroke-width="0.545000017" points="65.0300546 75.784151 57.1317535 82.7260138 42.5100013 85.3675824 28.6923986 83.7983942 23.5182174 78.6191319"></polyline>
                    </g>
                    <g id="编组-11" transform="translate(25.773891, 0.000000)">
                        <path d="M3.29992016,13.8774912 C3.29992016,16.0862486 3.29992016,17.2855537 3.29992016,17.4754067 C2.98710139,17.0540477 2.73517207,17.0540477 2.54413218,17.4754067 C2.25757235,18.1074452 3.11820831,21.487053 3.56794273,22.1435773 C4.01767715,22.8001015 4.43814344,23.6027751 4.92307613,23.6027751 C5.06488945,24.3633638 5.27741813,24.9853912 5.56066218,25.4688573 C5.56066218,26.825011 5.56066218,28.2669285 5.56066218,29.7946099 C13.123065,28.5662486 17.4586835,28.5088992 18.5675176,29.6225618 L18.5675176,27.8613832 C19.7436343,26.7146338 20.4669383,25.4749788 20.7374293,24.1424182 C20.8408748,23.632799 20.9213284,22.9845693 20.9833585,22.2548584 C21.0217084,21.8037174 21.4978929,21.2432071 21.5232384,20.7432777 C21.5533467,20.1494043 22.0183215,18.6303177 22.0269692,17.7479697 C22.0333291,17.0990614 22.1514462,16.462917 21.6656305,16.4370071 C21.8640032,15.1269576 22.0337975,13.8886182 22.0269692,13.1494108 C22.0096252,11.2717871 19.4147661,9.19574416 14.242392,6.92128196 C6.94741078,9.34999742 3.29992016,11.6687338 3.29992016,13.8774912 Z" id="路径-23" fill="#FFC59D"></path>
                        <path d="M4.92307613,21.5101226 C5.37281055,22.1666468 4.43814344,23.6027751 4.92307613,23.6027751 C5.06488945,24.3633638 5.27741813,24.9853912 5.56066218,25.4688573 C5.56066218,26.825011 5.56066218,28.2669285 5.56066218,29.7946099 C10.7571413,28.8421292 15.0927597,28.7847798 18.5675176,29.6225618 L18.5675176,27.8613832 C19.3252298,27.0190308 19.8277033,26.3737638 20.0749381,25.9255822 C19.5544894,25.2304132 20.0749381,23.716092 20.0749381,22.1435773 C20.0749381,20.5710626 18.530226,28.1809469 16.6859995,27.8613832 C13.1264928,27.2445994 10.729315,27.1187658 8.61611447,28.4445863 C6.77569359,29.5992651 4.75912625,21.2707878 4.92307613,21.5101226 Z" id="路径-23" fill="#F1A774"></path>
                        <path d="M21.5232384,15.081854 C19.2589701,17.961756 18.6188132,17.4583612 18.0354318,20.1379807 C17.6465108,21.9243936 17.0579111,23.4097107 16.2696325,24.5939317 C13.7041916,25.3885652 11.908107,25.7858819 10.8813788,25.7858819 C9.34128653,25.7858819 6.94056077,25.2588444 6.61495689,24.0394582 C6.28935301,22.820072 5.13262127,20.8664859 4.21627071,19.1709463 C3.60537034,18.0405866 3.29992016,16.4580067 3.29992016,14.4232066 L5.98924189,8.30181865 L14.0057322,6.92128196 L21.5232384,13.1494108 C21.5169656,13.6374721 21.5169656,14.2816199 21.5232384,15.081854 Z" id="路径-24" fill="#53443F"></path>
                        <path d="M12.37611,0.147978294 C17.5259965,0.147978294 21.7060454,3.93489452 22.8248637,9.32266655 C24.0997335,10.5316673 24.411626,11.8321042 24.6753604,12.5495007 C24.7185337,12.8308854 24.6586057,13.2809513 24.670258,13.447588 C24.0922135,15.7572145 23.2759819,21.798164 12.3761222,21.8001761 C1.47626258,21.8021881 1.18418552,17.4649076 0.190712026,15.022714 C0.179818735,14.8669326 0.195491822,14.5681288 0.190831671,14.3762703 C0.389328229,13.6270612 0.608471126,12.4253664 1.29319797,11.1857581 C1.78239425,4.82843726 6.65079964,0.147978294 12.37611,0.147978294 Z" id="形状结合" fill="#FF7E27"></path>
                        <polygon id="蒙版" fill="#473F5C" points="2.56610965 31.610001 3.29992016 29.2653034 7.93022749 27.2354797 16.348833 26.4385137 19.2717666 28.4783464 21.0961102 30.5200009 16.7361101 30.5200009 4.84063372 31.4206107"></polygon>
                    </g>
                </g>
            </g>
        </g>
    </g>
</svg>