<svg xml:space="preserve" style="enable-background:new 0 0 3000 3000;" viewBox="0 0 3000 3000" y="0px" x="0px" xmlns:xlink="http://www.w3.org/1999/xlink" xmlns="http://www.w3.org/2000/svg" id="Layer_1" version="1.1">
<style type="text/css">
	.st0{fill:none;}
	.st1{fill:#FFFFFF;stroke:#1A1A1A;stroke-width:4.1978;stroke-linecap:round;stroke-linejoin:round;stroke-miterlimit:10;}
	.st2{fill:#1C0311;stroke:#1A1A1A;stroke-width:2.0989;stroke-linecap:round;stroke-linejoin:round;stroke-miterlimit:10;}
	.st3{fill:none;stroke:#1A1A1A;stroke-width:4.1978;stroke-linecap:round;stroke-linejoin:round;}
	.st4{fill:none;stroke:#1A1A1A;stroke-width:4.1978;stroke-linecap:round;stroke-linejoin:round;stroke-dasharray:25.2713,25.2713;}
	.st5{fill:none;stroke:#1A1A1A;stroke-width:4.1978;stroke-linecap:round;stroke-linejoin:round;stroke-dasharray:25.5263,25.5263;}
	.st6{fill:none;stroke:#1A1A1A;stroke-width:4.1978;stroke-linecap:round;stroke-linejoin:round;stroke-dasharray:25.3864,25.3864;}
	.st7{fill:#FFFFFF;}
	.st8{fill:none;stroke:#FFFFFF;stroke-width:2.0989;stroke-miterlimit:10;}
	.st9{fill:none;stroke:#1A1A1A;stroke-width:4.1978;stroke-linecap:round;stroke-linejoin:round;stroke-miterlimit:10;}
	.st10{fill:none;stroke:#FFFFFF;stroke-width:6.2967;stroke-linecap:round;stroke-linejoin:round;stroke-miterlimit:10;}
	.st11{fill:none;stroke:#1A1A1A;stroke-width:6.2967;stroke-linecap:round;stroke-linejoin:round;stroke-miterlimit:10;}
	.st12{fill:#54CAFA;stroke:#1A1A1A;stroke-width:4.1978;stroke-linecap:round;stroke-linejoin:round;stroke-miterlimit:10;}
</style>
<g>
	<rect height="3000" width="3000" class="st0"></rect>
	<g>
		<path d="M1241.6,2499.5h1588.8c0,0-130.2,243.6-858.4,225.7s-653.5-132.7-653.5-132.7s-306.2-3.9-347.2-37.4
			c-41-33.4-336.2,48.7-486,9.1c-149.8-39.6,0-63.7,0-63.7L1241.6,2499.5z" class="st1"></path>
		<g>
			<path d="M275,2500.6c853.3,0,1706.6,0,2559.9,0c128.7-287.9-29.2-580.6-224.1-630.7
				c-176.4-45.4-425.2,97.3-492.9,366.9c-32.2-30.9-119.7-106.1-249.3-117.6c-160.4-14.3-320.6,74.5-414.5,226.9
				c-26.3-25-296.5-273.9-672.2-201.7C459.1,2206.4,300.1,2459.2,275,2500.6z" class="st1"></path>
		</g>
		<circle r="71.8" cy="1707.8" cx="2744.2" class="st1"></circle>
		<path d="M2495.2,408.3c0-74.2-60.2-134.4-134.4-134.4H751.3c-74.2,0-134.4,60.2-134.4,134.4v7.5h1878.4V408.3z" class="st2"></path>
		<path d="M616.8,415.8v937.3c0,74.2,60.2,134.4,134.4,134.4h1609.5c74.2,0,134.4-60.2,134.4-134.4V415.8H616.8z" class="st1"></path>
		<path d="M2693.5,845.5h-282.1c-7.3,0-13.3-6-13.3-13.3V716.9c0-7.3,6-13.3,13.3-13.3h282.1c7.3,0,13.3,6,13.3,13.3
			v115.3C2706.8,839.5,2700.9,845.5,2693.5,845.5z" class="st1"></path>
		<path d="M2693.5,1028.2h-282.1c-7.3,0-13.3-6-13.3-13.3V899.6c0-7.3,6-13.3,13.3-13.3h282.1c7.3,0,13.3,6,13.3,13.3
			v115.3C2706.8,1022.2,2700.9,1028.2,2693.5,1028.2z" class="st2"></path>
		<path d="M1795.6,854.5c0,0-13,3.9-20.2,1.9" class="st1"></path>
		<g>
			<g>
				<path d="M766.2,899.4c0,0,1.2,4.3,3.7,12" class="st3"></path>
				<path d="M778.3,935.2c34.8,92.3,151.1,336.4,430.4,416c230.9,65.8,369.8,44,422.3,30.1" class="st4"></path>
				<path d="M1643.1,1377.8c7.9-2.5,11.9-4.2,11.9-4.2" class="st3"></path>
			</g>
		</g>
		<g>
			<g>
				<line y2="428.3" x2="833.4" y1="415.8" x1="833.4" class="st3"></line>
				<line y2="1462.2" x2="833.4" y1="453.9" x1="833.4" class="st5"></line>
				<line y2="1487.5" x2="833.4" y1="1474.9" x1="833.4" class="st3"></line>
			</g>
		</g>
		<g>
			<g>
				<line y2="530.6" x2="629.4" y1="530.6" x1="616.8" class="st3"></line>
				<line y2="530.6" x2="2469.9" y1="530.6" x1="654.8" class="st6"></line>
				<line y2="530.6" x2="2495.2" y1="530.6" x1="2482.6" class="st3"></line>
			</g>
		</g>
		<g>
			<g>
				<polygon points="528.2,1441.1 584.3,1514.1 712.8,1415.4 658.6,1340.9" class="st7"></polygon>
				<path d="M809.1,1421.5l135.2-103.8l-5-117l-89.8,69c5,15.1,0.2,32.4-13.2,42.6c-13.4,10.3-31.3,10.4-44.6,1.7
					c-3.6-2.3-6.8-5.3-9.5-8.8c-3.1-4.1-5.3-8.6-6.6-13.3c-4-14.7,0.9-30.9,13.7-40.8c12.8-9.8,29.8-10.4,42.9-2.7l90.4-69.4
					l-111.8-35l-135.2,103.8l-11.7,89l-5.4,4.1l54.2,74.5l7.3-5.6L809.1,1421.5z" class="st7"></path>
				
					<rect height="92.1" width="66.6" class="st7" transform="matrix(0.793 -0.6092 0.6092 0.793 -802.7922 632.7588)" y="1451.8" x="496.5"></rect>
				
					<rect height="92.1" width="190.1" class="st7" transform="matrix(0.793 -0.6092 0.6092 0.793 -871.4962 586.9279)" y="1530" x="333"></rect>
			</g>
			<g>
				<polygon points="528.2,1441.1 584.3,1514.1 712.8,1415.4 658.6,1340.9" class="st8"></polygon>
				<path d="M809.1,1421.5l135.2-103.8l-5-117l-89.8,69c5,15.1,0.2,32.4-13.2,42.6c-13.4,10.3-31.3,10.4-44.6,1.7
					c-3.6-2.3-6.8-5.3-9.5-8.8c-3.1-4.1-5.3-8.6-6.6-13.3c-4-14.7,0.9-30.9,13.7-40.8c12.8-9.8,29.8-10.4,42.9-2.7l90.4-69.4
					l-111.8-35l-135.2,103.8l-11.7,89l-5.4,4.1l54.2,74.5l7.3-5.6L809.1,1421.5z" class="st8"></path>
				
					<rect height="92.1" width="66.6" class="st2" transform="matrix(0.793 -0.6092 0.6092 0.793 -802.7922 632.7588)" y="1451.8" x="496.5"></rect>
				
					<rect height="92.1" width="190.1" class="st8" transform="matrix(0.793 -0.6092 0.6092 0.793 -871.4962 586.9279)" y="1530" x="333"></rect>
			</g>
			<g>
				<polygon points="528.2,1441.1 584.3,1514.1 712.8,1415.4 658.6,1340.9" class="st9"></polygon>
				<path d="M809.1,1421.5l135.2-103.8l-5-117l-89.8,69c5,15.1,0.2,32.4-13.2,42.6c-13.4,10.3-31.3,10.4-44.6,1.7
					c-3.6-2.3-6.8-5.3-9.5-8.8c-3.1-4.1-5.3-8.6-6.6-13.3c-4-14.7,0.9-30.9,13.7-40.8c12.8-9.8,29.8-10.4,42.9-2.7l90.4-69.4
					l-111.8-35l-135.2,103.8l-11.7,89l-5.4,4.1l54.2,74.5l7.3-5.6L809.1,1421.5z" class="st9"></path>
				
					<rect height="92.1" width="66.6" class="st9" transform="matrix(0.793 -0.6092 0.6092 0.793 -802.7922 632.7588)" y="1451.8" x="496.5"></rect>
				
					<rect height="92.1" width="190.1" class="st9" transform="matrix(0.793 -0.6092 0.6092 0.793 -871.4962 586.9279)" y="1530" x="333"></rect>
			</g>
		</g>
		<path d="M544,730.4v-57.9h-59.7c-2.4-8.6-5.8-16.7-10-24.2l42.2-42.2l-40.9-40.9l-42.2,42.2
			c-7.5-4.3-15.7-7.7-24.2-10v-59.7h-57.9v59.7c-8.6,2.4-16.7,5.8-24.2,10l-42.2-42.2L243.8,606l42.2,42.2
			c-4.3,7.5-7.7,15.7-10,24.2h-59.7v57.9H276c2.4,8.6,5.8,16.7,10,24.2l-42.2,42.2l40.9,40.9l42.2-42.2c7.5,4.3,15.7,7.7,24.2,10
			v59.7h57.9v-59.7c8.6-2.4,16.7-5.8,24.2-10l42.2,42.2l40.9-40.9l-42.2-42.2c4.3-7.5,7.7-15.7,10-24.2H544z M430.3,730.4
			c-5.1,8.8-12.4,16.1-21.2,21.2c-4.3,2.5-9,4.5-14,5.8c-4.8,1.3-9.8,2-15,2c-5.2,0-10.2-0.7-15-2c-5-1.3-9.6-3.3-13.9-5.8
			c-8.8-5.1-16.1-12.4-21.2-21.2c-2.5-4.3-4.5-9-5.8-14c-1.3-4.8-1.9-9.8-1.9-15c0-5.2,0.7-10.2,2-15c1.3-5,3.3-9.6,5.8-14
			c5.1-8.8,12.4-16.1,21.2-21.2c4.3-2.5,9-4.5,13.9-5.8c4.8-1.3,9.8-2,15-2c5.2,0,10.2,0.7,15,2c5,1.3,9.6,3.3,14,5.8
			c8.8,5.1,16.1,12.4,21.2,21.2c2.5,4.3,4.5,9,5.8,14c1.3,4.8,2,9.8,2,15c0,5.2-0.7,10.2-1.9,15
			C434.8,721.4,432.8,726.1,430.3,730.4z" class="st1"></path>
		<circle r="36.7" cy="344.8" cx="835.9" class="st1"></circle>
		<path d="M1223.5,372.2H938.1c-4.5,0-8.2-3.7-8.2-8.2v-32.2c0-4.5,3.7-8.2,8.2-8.2h285.5c4.5,0,8.2,3.7,8.2,8.2V364
			C1231.7,368.5,1228.1,372.2,1223.5,372.2z" class="st1"></path>
		<path d="M911.8,544.4v217.1c0,23.6,19.1,42.6,42.6,42.6h1046.2c23.6,0,42.6-19.1,42.6-42.6V544.4H911.8z" class="st1"></path>
		<path d="M2043.4,525.6c0-23.6-19.1-42.6-42.6-42.6H954.5c-23.6,0-42.6,19.1-42.6,42.6v18.8h1131.5V525.6z" class="st2"></path>
		<path d="M2023,872.5H932.2c-11.2,0-20.3,9.1-20.3,20.3v148.7c0,11.2,9.1,20.3,20.3,20.3H2023
			c11.2,0,20.3-9.1,20.3-20.3V892.8C2043.4,881.6,2034.3,872.5,2023,872.5z" class="st1"></path>
		<g>
			<path d="M1362.3,2107.5c-26.7-24.9-56.1-56.2-49.9-92.1c4.7-27.1,28.4-46.1,45.1-68c23.1-30.3,33.9-70.6,25.2-107.6
				c-8.7-37.1-38.2-69.4-75.3-78c-37.1-8.6-79.7,9.2-96.6,43.4c-13.2,26.7-10.2,58.2-12.9,87.9c-2.7,29.7-15.5,63.1-43.9,71.9
				c-23.8,7.4-49-5.3-69.3-19.8c-20.3-14.5-40.4-31.7-65.1-34.9c-29-3.7-58,14.3-72.7,39.6c-14.7,25.3-16.7,56.4-11.6,85.1
				c5.2,28.8,16.9,55.9,28.6,82.7l-76.9,88.1l-25.2,293.8h264.2c27.2-12.3,52.7-28.5,77.9-44.6c20.9-13.3,41.7-26.6,62.6-39.9
				c14.1-9,29.8-20.5,30.7-37.2c1.9-33.9-55.8-47-54.9-81c0.4-13.8,11.6-25.5,24.3-30.9c12.7-5.4,26.9-5.9,40.7-6.8
				c21.2-1.4,42.7-3.9,62-12.8c19.2-8.9,36.1-25.3,40.6-46.1C1417.7,2164.7,1389,2132.4,1362.3,2107.5z" class="st2"></path>
			<path d="M1250.4,1943.2c0,0-27.9,162.4-114.8,242.4c-86.9,79.9-101.8,187-98.1,234.3s-39.8,79.7-39.8,79.7" class="st10"></path>
			<path d="M1149.6,2350.2c0,0-78-26.8-109.9,20.2" class="st10"></path>
			<path d="M1048.8,2143.4c0,0,36.9,17.9,34.6,105.5" class="st10"></path>
			<path d="M1259.1,2104.9c0,0-26.3,38.4-92.2,45.3" class="st10"></path>
		</g>
		<g>
			<path d="M979.5,2431.8c27.4-53.8-0.1-96.5-45.7-126.2c-45-41.8-11.1-69.3,28.9-94.7c71.9-62.8,0.3-177.2-87.7-139.6
				c-31.6,15.3-68.3,59.2-105.2,33.5c-21.2-16.8-14.2-49.5-11.9-76.5c7-67.6-43.9-163.9-120.9-151.5c-34.3,8.6-53.9,45.6-85.8,60.8
				c-94.3,41-167.5-91.8-259.4-83.2c-178.3,40-121.7,351.7,133.6,313.2c20.4,1.7,41.7,9.4,53.1,26.4c37.1,58.1-57.8,127-22.3,185.4
				c30.9,44.4,92.2,21.5,137.1,20.6c63-1.9,88.1,53,53.3,99.5H891C927.7,2487.1,960.8,2467.1,979.5,2431.8z" class="st1"></path>
			<path d="M729.8,2499.5l19.6-37.3c85.9-296.9-364.1-451.9-364.1-451.9" class="st1"></path>
			<path d="M790.5,2228.8c0,0,10.3,66.2-36.2,105" class="st1"></path>
			<path d="M600.6,2010.3c1.2,3.1,37.8,64.4,8,121.5" class="st1"></path>
			<path d="M605,2222.6c0,0,78.7-9.1,107.2,16.3" class="st1"></path>
			<path d="M405.2,2056.4c0,0,42.9,13.7,81.5-1.2" class="st1"></path>
		</g>
		<line y2="2499.8" x2="2934" y1="2499.8" x1="66" class="st11"></line>
		<polygon points="1083.6,1329 1104.5,1283 1144.9,1302.5 1125.2,1347.8" class="st2"></polygon>
		<g>
			<path d="M1709.8,2557.3c-3.4-11.1-7.5-24-8.6-25c-1.9-1.9-59.3,0-59.3,0s-8.9,4.3-22.2,11
				C1641.7,2569.3,1676.2,2567.5,1709.8,2557.3z" class="st2"></path>
			<path d="M1719.1,2606.1c0.8-7.6-0.4-17.9-4.3-32.4c0,0-2.3-7.7-5-16.5c-33.6,10.2-68,12.1-90.1-14.1
				c-37,18.6-107.9,55.4-115.5,68.8c-4.7,8.3-7.1,18.7-5.5,27.5C1572.3,2646.2,1652.6,2638.5,1719.1,2606.1z" class="st1"></path>
			<path d="M1498.7,2639.6c1.9,10.6,9.5,18.9,26.1,18.7c30.3-0.5,141.5-18.2,163.8-26.1c14.9-5.3,28.6-7.6,30.5-26
				C1652.6,2638.5,1572.3,2646.2,1498.7,2639.6z" class="st1"></path>
			<path d="M2496.5,2480.7c-14.4-14.8-27.4-26-27.4-26l-75.6,36.9c0,0-11.1,10.5-25.7,24.4
				C2414.5,2527.4,2468.2,2516,2496.5,2480.7z" class="st2"></path>
			<path d="M2354.3,2610.4c-22.3,6.4-47.1,9.1-70.6,4.5c0.7,2.5,1.8,5,3.4,7.8c8.9,15.4,67.7,2.3,126.5-18.2
				c54.4-19,120.7-44,120.1-70.8C2487.2,2582.2,2414.1,2588,2354.3,2610.4z" class="st1"></path>
			<path d="M2496.5,2480.7c-28.3,35.3-82,46.7-128.7,35.3c-25.1,23.9-60.7,57.9-69.5,67.1
				c-11.5,11.9-17.6,20.6-14.6,31.9c23.5,4.6,48.3,1.9,70.6-4.5c59.8-22.4,132.9-28.3,179.4-76.7c0-2.2-0.5-4.4-1.5-6.6
				C2525.7,2512.6,2510.4,2495,2496.5,2480.7z" class="st1"></path>
			<path d="M2075.7,1798.7c23.7,229,292.5,691.5,298.1,697.1s87.8,11.2,100.8-28s-74.7-334.2-106.4-435.1
				c22.4-106.4,29.9-399.6-28-515.7s-145.6-130.3-145.6-130.3l-151.2,50.4" class="st1"></path>
			<path d="M2208.7,1561.3c0,0,36.3,71.9-36.5,191.4c-88.7,145.6-335.5,204.1-404.6,226.6
				c19.3,156.8-35.5,514.1-64.1,568.9c-29.9,19.9-74.7-8.7-74.7-8.7s-79.7-407-42.3-624.9s372.2-413.3,372.2-413.3l161.2-64.1" class="st1"></path>
			<path d="M1927.3,1520.8c0,0,94.2,22.3,150.3,2.1c56.1-20.2,121.6-49.4,131.1-101c-0.2-25.5-0.2-25.5-0.2-25.5
				l-261.9,104L1927.3,1520.8z" class="st2"></path>
			<path d="M1872.5,942.3c0,0-30.8-67.2-26.1-98s71.9-65.4,0.9-127.9s-119.5,8.4-124.2,40.1s-4.7,85.9,52.3,99.9
				c-1.9,104.6-1.9,104.6-1.9,104.6" class="st1"></path>
			<polygon points="1796.8,852.2 1775.4,856.4 1775.2,865.9" class="st2"></polygon>
			<path d="M2126,600.6c0,0-42-55.5-92.4-58.3s-59.8,21-48.1,35s41.1,18.7,47.6,18.7s-19.6,13.5-17.3,19.1
				s24.3,2.3,35.5-1.9s33.1-5.6,38.7,2.8S2126,600.6,2126,600.6z" class="st1"></path>
			<path d="M1887.4,947c0,0,172.7,22.4,217.5-53.2s24.8-210.8-22.4-267c-11-11.3,0.9-23.3,14.9-28.9
				s28.9-15.9,51.3,15.9s113.9,185.8,95.7,329.6c-16.7,132.1-77.1,199.8-162,210.1C1992.9,1065.5,1887.4,947,1887.4,947z" class="st12"></path>
			<path d="M1199.4,854.1c0,0-53.2-66.3-55.1-93.4s3.7-41.1,20.5-45.3s23.3,21.9,36.4,27.5s31.3-15.4,34.1,1.9
				s-20.5,52.3-18.7,71.4s9.8,24.7,9.8,24.7L1199.4,854.1z" class="st1"></path>
			<path d="M1810,1164.5c-404.2,76.6-618.1-301.7-622.2-310.3s23.3-34.4,36.5-27.7c13.3,6.7,272,142.8,479.2,131.6
				c60.7-3.7,66.8-4.2,88.7-13.1s84-24.3,101.3-10.7s86.4,53.7,177.8,169.4s145.6,277.3,136.3,306.2s-85.9,114.8-242.7,106.4
				c-113-9.3-300.5-206.8-341.6-348.7" class="st12"></path>
			<path d="M1725.5,699.2c-5.1-42.8,45.3-68.6,82-53c53.1,15.3,56.8,86.6,106.1,105.3c13,4,27.3,2.2,40.2,6.3
				c42.1,13.8,44.3,72,14.3,99.7c-37.5,38.9-121.6,47.9-139.9-14.4c-7.2-19.9-27.8-42.9,4.8-50.4c32-14.9,20.3-51-15.3-38.6
				c-17.2-0.7-33.6-9.8-49.6-15.6C1748.1,733.3,1727.8,721.6,1725.5,699.2z" class="st2"></path>
		</g>
		<g>
			<rect height="69.7" width="219.9" class="st1" y="1115.3" x="2439.3"></rect>
			<rect height="51.1" width="132.4" class="st1" y="1214.8" x="2439.3"></rect>
			<rect height="166.6" width="21.9" class="st1" y="1107.1" x="2398.1"></rect>
		</g>
		<g>
			<rect height="209.7" width="310.4" class="st1" y="1022.9" x="190.8"></rect>
			<polygon points="279.2,1162.2 325.6,1081.8 372,1162.2" class="st1"></polygon>
			<ellipse ry="42.3" rx="41.3" cy="1123.3" cx="382.5" class="st2"></ellipse>
		</g>
		<g>
			<path d="M2697.3,490.3c2.8,12.5,11.4,22.3,22.6,27.6l-24.4,5.4l-19.2-13l-139.9,31l29.8,20.2l186.2-41.3l0.3-0.2
				c21.8-6.6,35.4-27.7,30.7-48.8c-4.9-22.2-28.2-35.9-52-30.6C2707.6,445.8,2692.4,468.1,2697.3,490.3z M2773.4,473.4
				c3.8,17-8,34.1-26.2,38.2c-18.3,4.1-36.1-6.5-39.9-23.5c-3.8-17,8-34.1,26.2-38.2C2751.8,445.9,2769.6,456.4,2773.4,473.4z" class="st1"></path>
			<path d="M2726.2,620.3c23.6,5.9,47.3-7.1,52.8-29.2c5.3-20.9-7.8-42.5-29.3-49.7l-0.3-0.2l-177-44.4l-38.4,17.4
				l139,34.9l19.5-12.5l24.2,6.1c-11.4,4.9-20.3,14.5-23.4,26.9C2687.9,591.7,2702.5,614.4,2726.2,620.3z M2728.5,611
				c-18.1-4.6-29.4-22-25.2-38.9c4.2-16.9,22.4-26.9,40.5-22.4s29.4,22,25.1,38.9C2764.8,605.5,2746.7,615.6,2728.5,611z" class="st1"></path>
			<circle r="11.4" cy="529.8" cx="2665.2" class="st1"></circle>
		</g>
	</g>
</g>
</svg>
