<svg viewBox="0 0 238.41 158.17" xmlns:xlink="http://www.w3.org/1999/xlink" xmlns="http://www.w3.org/2000/svg"><defs><style>.cls-1{fill:url(#未命名的渐变_217);}.cls-2{fill:url(#未命名的渐变_19);}.cls-3{fill:url(#未命名的渐变_19-2);}.cls-4{fill:url(#未命名的渐变_31);}.cls-5{fill:url(#未命名的渐变_162);}.cls-6{fill:url(#未命名的渐变_164);}.cls-7{fill:url(#未命名的渐变_164-2);}.cls-8{fill:url(#未命名的渐变_164-3);}.cls-9{fill:url(#未命名的渐变_164-4);}.cls-10{fill:url(#未命名的渐变_164-5);}.cls-11{fill:url(#未命名的渐变_248);}.cls-12{fill:url(#未命名的渐变_234);}.cls-13{fill:url(#未命名的渐变_14);}.cls-14{fill:#fed4c2;}.cls-15{fill:#ffd5c3;}.cls-16{fill:#feb99b;}.cls-17{fill:url(#未命名的渐变_18);}.cls-18{fill:#343434;}.cls-19{fill:#5c5c5c;}.cls-20{fill:#3e3e3e;}.cls-21{fill:#301b20;}.cls-22{fill:url(#未命名的渐变_18-2);}.cls-23{fill:#007adc;}</style><linearGradient gradientUnits="userSpaceOnUse" y2="89.77" x2="119.2" y1="158.17" x1="119.2" id="未命名的渐变_217"><stop stop-color="#fff" offset="0"></stop><stop stop-color="#fdfeff" offset="0.38"></stop><stop stop-color="#f6fafe" offset="0.53"></stop><stop stop-color="#e9f4fc" offset="0.65"></stop><stop stop-color="#d8eaf9" offset="0.75"></stop><stop stop-color="#c1def6" offset="0.84"></stop><stop stop-color="#a4cff1" offset="0.91"></stop><stop stop-color="#83beec" offset="0.98"></stop><stop stop-color="#7ab9eb" offset="1"></stop></linearGradient><linearGradient gradientUnits="userSpaceOnUse" y2="100.56" x2="24.2" y1="109.67" x1="24.2" id="未命名的渐变_19"><stop stop-color="#fff" offset="0"></stop><stop stop-color="#7ab9eb" offset="1"></stop></linearGradient><linearGradient xlink:href="#未命名的渐变_19" y2="78.24" x2="210.66" y1="91.98" x1="210.66" id="未命名的渐变_19-2"></linearGradient><linearGradient gradientUnits="userSpaceOnUse" y2="91.5" x2="78.25" y1="116.31" x1="78.25" id="未命名的渐变_31"><stop stop-opacity="0.5" stop-color="#5caae8" offset="0"></stop><stop stop-opacity="0.31" stop-color="#99caf1" offset="0.29"></stop><stop stop-opacity="0.14" stop-color="#d0e7f8" offset="0.6"></stop><stop stop-opacity="0.04" stop-color="#f2f8fd" offset="0.85"></stop><stop stop-opacity="0" stop-color="#fff" offset="1"></stop></linearGradient><linearGradient gradientUnits="userSpaceOnUse" gradientTransform="matrix(1, 0, 0, -1, 0, -1351.22)" y2="-1386.09" x2="162.01" y1="-1474.4" x1="73.7" id="未命名的渐变_162"><stop stop-color="#7ab9eb" offset="0"></stop><stop stop-color="#83beed" offset="0.03"></stop><stop stop-color="#a3cff2" offset="0.14"></stop><stop stop-color="#bedcf6" offset="0.25"></stop><stop stop-color="#d2e7f9" offset="0.38"></stop><stop stop-color="#e0eefb" offset="0.53"></stop><stop stop-color="#e8f3fd" offset="0.71"></stop><stop stop-color="#ebf4fd" offset="1"></stop></linearGradient><linearGradient gradientUnits="userSpaceOnUse" gradientTransform="matrix(1, 0, 0, -1, 0, -1351.22)" y2="-1396.09" x2="98.7" y1="-1388.51" x1="98.7" id="未命名的渐变_164"><stop stop-color="#5caae8" offset="0"></stop><stop stop-color="#5eabe8" offset="0"></stop><stop stop-color="#83beee" offset="0.1"></stop><stop stop-color="#a3cff2" offset="0.2"></stop><stop stop-color="#bedcf6" offset="0.31"></stop><stop stop-color="#d2e7f9" offset="0.43"></stop><stop stop-color="#e0eefb" offset="0.56"></stop><stop stop-color="#e8f3fd" offset="0.73"></stop><stop stop-color="#ebf4fd" offset="1"></stop></linearGradient><linearGradient xlink:href="#未命名的渐变_164" y2="-1461.78" x2="123.16" y1="-1454.14" x1="123.16" id="未命名的渐变_164-2"></linearGradient><linearGradient xlink:href="#未命名的渐变_164" y2="-1420.48" x2="138.76" y1="-1410.79" x1="138.76" id="未命名的渐变_164-3"></linearGradient><linearGradient xlink:href="#未命名的渐变_164" y2="-1429.43" x2="98.7" y1="-1415.64" x1="98.7" id="未命名的渐变_164-4"></linearGradient><linearGradient xlink:href="#未命名的渐变_164" y2="-1454.23" x2="93.09" y1="-1444.74" x1="93.09" id="未命名的渐变_164-5"></linearGradient><linearGradient gradientUnits="userSpaceOnUse" y2="106.81" x2="118.84" y1="63.48" x1="118.84" id="未命名的渐变_248"><stop stop-color="#5caae8" offset="0"></stop><stop stop-color="#6cb2ea" offset="0.09"></stop><stop stop-color="#80bced" offset="0.25"></stop><stop stop-color="#8ec3ef" offset="0.43"></stop><stop stop-color="#96c8f1" offset="0.64"></stop><stop stop-color="#99c9f1" offset="1"></stop></linearGradient><linearGradient gradientUnits="userSpaceOnUse" gradientTransform="matrix(1, 0, 0, -1, 0, -1351.22)" y2="-1444" x2="119.39" y1="-1413.43" x1="119.39" id="未命名的渐变_234"><stop stop-color="#b8daf5" offset="0"></stop><stop stop-color="#beddf6" offset="0.04"></stop><stop stop-color="#d2e7f9" offset="0.2"></stop><stop stop-color="#e0eefb" offset="0.39"></stop><stop stop-color="#e8f3fd" offset="0.62"></stop><stop stop-color="#ebf4fd" offset="1"></stop></linearGradient><linearGradient gradientUnits="userSpaceOnUse" gradientTransform="matrix(0, 1.05, -1.45, 0, 236.52, -43.22)" y2="76.57" x2="80.45" y1="65.74" x1="78.69" id="未命名的渐变_14"><stop stop-opacity="0.5" stop-color="#5caae8" offset="0"></stop><stop stop-opacity="0" stop-color="#fff" offset="1"></stop></linearGradient><linearGradient gradientUnits="userSpaceOnUse" gradientTransform="matrix(-1, 0.03, 0.03, 1, 954, -10.61)" y2="8.73" x2="816.54" y1="12.41" x1="823.34" id="未命名的渐变_18"><stop stop-color="#007adc" offset="0"></stop><stop stop-color="#0ab0ed" offset="1"></stop></linearGradient><linearGradient xlink:href="#未命名的渐变_18" gradientTransform="translate(261.97)" y2="19.27" x2="-124.51" y1="34.48" x1="-150.85" id="未命名的渐变_18-2"></linearGradient></defs><title>数据加载失败，请稍后重试</title><g id="图层_2"><g id="图层_1-2"><ellipse ry="34.2" rx="119.2" cy="123.97" cx="119.2" class="cls-1"></ellipse><circle r="4.56" cy="105.11" cx="24.2" class="cls-2"></circle><circle r="6.87" cy="85.11" cx="210.66" class="cls-3"></circle><path d="M94.2,116.31,80.07,91.5c-5.48.52-12.68,1.68-17.78,2.41Z" class="cls-4"></path><circle r="44.15" cy="79.02" cx="117.86" class="cls-5" id="椭圆_9-2"></circle><path d="M99.6,38.58a23.23,23.23,0,0,1,3.33-1.3,5.1,5.1,0,0,1-8.91,5q-.1-.18-.19-.37A55.1,55.1,0,0,1,99.6,38.58Z" class="cls-6" id="椭圆_10"></path><path d="M123.16,102.92a3.82,3.82,0,1,1-3.82,3.82h0a3.82,3.82,0,0,1,3.82-3.82Z" class="cls-7" id="椭圆_10-2"></path><circle r="4.84" cy="64.41" cx="138.76" class="cls-8" id="椭圆_10-3"></circle><circle r="6.89" cy="71.31" cx="98.7" class="cls-9" id="椭圆_10-3-2"></circle><circle r="4.75" cy="98.26" cx="93.09" class="cls-10" id="椭圆_10-4"></circle><path d="M32.28,94.38c2.52,12.28,43.74,14.19,92.06,4.27,42-8.64,75.61-23.39,82-35.16-3.64,12-38.47,27.89-82.71,37-48.32,9.92-89.53,8-92.06-4.27a7.41,7.41,0,0,1,1-5A6.53,6.53,0,0,0,32.28,94.38Z" class="cls-11" id="椭圆_11"></path><path d="M124,99.73c-48.32,9.92-89.54,8-92.06-4.27-1.78-8.68,16.24-20.22,44-29.74L74.15,70C54.8,77.16,42.74,85.1,44,91c2,9.5,37.14,10.31,78.59,1.79S196,69.71,194.06,60.21c-1.31-6.38-17.62-8.84-40.74-7.19L151,49.85c31.2-2.79,54,.63,55.9,9.67C209.41,71.8,172.28,89.81,124,99.73Z" class="cls-12" id="形状_15"></path><ellipse transform="translate(78.14 168.5) rotate(-83.61)" ry="12.82" rx="7.53" cy="40.56" cx="133.28" class="cls-13"></ellipse><path d="M113.89,41.54c.13-1.26.55-1.55.74-1.62a.08.08,0,0,1,.11.07,1,1,0,0,0,.13.41.18.18,0,0,0,.32,0l.78-1.86-3-1.22a11.64,11.64,0,0,0-.63,3.06,1.64,1.64,0,0,0,.2.94.92.92,0,0,0,1.19.47A.28.28,0,0,0,113.89,41.54Z" class="cls-14"></path><rect height="3.23" width="2.67" y="64.93" x="145" class="cls-15"></rect><rect transform="translate(-9.67 34.75) rotate(-12.5)" height="3.56" width="2.67" y="59.76" x="152.49" class="cls-16"></rect><path d="M140,37.8c-.16-1.26-.59-1.53-.79-1.59a.08.08,0,0,0-.11.07,1,1,0,0,1-.12.41.18.18,0,0,1-.32,0l-.83-1.84,3-1.3a11.64,11.64,0,0,1,.72,3,1.64,1.64,0,0,1-.18.95.92.92,0,0,1-1.17.51A.28.28,0,0,1,140,37.8Z" class="cls-14"></path><polygon points="133.88 13.19 136.21 22.34 141.06 33.43 137.52 34.96 132.06 24.2 128.02 11.25 133.88 13.19" class="cls-17"></polygon><path d="M125.41,37.28s1.7,6.3,20.62,6a64.7,64.7,0,0,0,5.84,17.07l3.4.46-3-19.08A4.91,4.91,0,0,0,149.28,38C145.65,36.43,134,34.47,134,34.47Z" class="cls-18"></path><path d="M122.71,36.89s-.42,8.85,18.82,10.45a64.39,64.39,0,0,0,3.3,17.82l3.14.17.32-19.25a4.91,4.91,0,0,0-2.22-4.22c-3.29-2.15-14.37-6.17-14.37-6.17Z" class="cls-19"></path><path d="M145,67c-.26-.12-.69.19-1,1.22s-.71,1.5.1,1.88,5.47,2.07,6.79,2.57c.45.17.51-.33.53-.45.11-.52,0-1.39-1.36-2.07-1-.58-1.63-2-2.1-2.16s-.83.2-1.58-.13A14.79,14.79,0,0,1,145,67Z" class="cls-20"></path><path d="M152.4,62c-.27-.11-.68.22-1,1.26s-.64,1.53.18,1.88,5.56,1.83,6.9,2.26c.45.15.49-.35.51-.47.08-.52,0-1.39-1.45-2-1-.54-1.72-1.9-2.19-2.06s-.82.23-1.58-.06A14.79,14.79,0,0,1,152.4,62Z" class="cls-20"></path><rect transform="translate(0.09 20.91) rotate(-9.42)" height="6.2" width="3.36" y="6.79" x="125.31" class="cls-16"></rect><path d="M129.85,2.53s1.55,5.38.18,6.12c-1.15.62-4.39-.07-5.16-1-.92-1.1-.52-3.84-.52-3.84L127,1.34l2.55.37Z" class="cls-15"></path><path d="M125,8.4s.49,0,.38-1.08a.15.15,0,0,0-.12-.13,1.11,1.11,0,0,1-.9-1.45c.19-1.16,1.2-.46,1.55,0a.06.06,0,0,0,.11,0c0-.87.09-3.38,1.8-3.78,2.07-.48,2,1.42,2,1.42s.27-.16,0-1.53c0,0,.43.26.38,1.13,0,0,.23-.1.16-.69a2.31,2.31,0,0,0-1-1.63A5.1,5.1,0,0,0,125.07.3a2.11,2.11,0,0,0-1.11.77,1.77,1.77,0,0,0-.3.65,2,2,0,0,0-1.51,2.16c.2,1.68.89,2.81,1.68,3.19A2.63,2.63,0,0,1,125,8.4Z" class="cls-21"></path><path d="M137,36l-3.13-22.84s-.9-3.14-5.14-2.91c0,0,.18,1.75-.67,1.95s-2.79-2.43-2.79-2.43-4.87,2.74-5.55,5h0a2,2,0,0,0-.06.26L117.24,26,112.69,37.2l3.58,1.43,5.09-10.74L122.74,38Z" class="cls-22"></path><path d="M121.44,27.73l-.08.16h0a1.45,1.45,0,0,0,1.18-1.13L125,15.08Z" class="cls-23"></path></g></g></svg>