<svg viewBox="0 0 400 300" fill="none" xmlns="http://www.w3.org/2000/svg"><path fill-rule="evenodd" clip-rule="evenodd" d="M61.17 116.842c9.442-1.528 13.264-2.678 22.483-11.608 9.22-8.93 18.568 4.098 32.432-1.133 13.864-5.23 15.131-11.564 36.337 7.836 9.775 8.245 17.55 4.981 22.341 8.245 3.194 2.176 6.273 7.54 9.237 16.092H61.17c-9.78-3.421-14.67-6.262-14.67-8.523 0-3.393 5.227-9.381 14.67-10.909Z" fill="url(#a)"/><path fill-rule="evenodd" clip-rule="evenodd" d="M208.17 130.342c9.442-1.528 13.264-2.678 22.483-11.608 9.219-8.93 18.568 4.098 32.432-1.133 13.864-5.23 15.131-11.563 36.337 7.836 9.775 8.245 17.55 4.981 22.341 8.245 3.194 2.176 6.273 7.54 9.237 16.092H208.17c-9.78-3.421-14.67-6.262-14.67-8.523 0-3.393 5.227-9.381 14.67-10.909Z" fill="url(#b)"/><path opacity=".4" fill-rule="evenodd" clip-rule="evenodd" d="m113.022 125.932 79.234-15.432a1.598 1.598 0 0 1 1.876 1.265l18.362 94.651a1.602 1.602 0 0 1-1.265 1.876l-79.235 15.431a1.598 1.598 0 0 1-1.876-1.263l.001-.002-18.363-94.65a1.603 1.603 0 0 1 1.266-1.876Z" fill="url(#c)"/><path opacity=".4" fill-rule="evenodd" clip-rule="evenodd" d="m285.806 129.463-77.968-20.931a1.597 1.597 0 0 0-1.959 1.131L180.971 202.8c-.227.853.28 1.73 1.132 1.96l77.968 20.932a1.599 1.599 0 0 0 1.96-1.129l-.001-.002 24.908-93.137a1.607 1.607 0 0 0-1.132-1.961Z" fill="url(#d)"/><path d="M245.951 82.302h-96.23a1.6 1.6 0 0 0-1.6 1.6v133.324a1.6 1.6 0 0 0 1.6 1.6h96.23a1.6 1.6 0 0 0 1.6-1.6V83.902a1.6 1.6 0 0 0-1.6-1.6Z" fill="url(#e)"/><path d="M167.663 106.102h-4.877a3.203 3.203 0 0 0-3.203 3.204v4.898a3.203 3.203 0 0 0 3.203 3.203h4.877a3.203 3.203 0 0 0 3.203-3.203v-4.898a3.203 3.203 0 0 0-3.203-3.204Z" fill="url(#f)"/><path d="M234.949 106.102h-56.224a.8.8 0 0 0-.8.8v9.705a.8.8 0 0 0 .8.8h56.224a.8.8 0 0 0 .8-.8v-9.705a.8.8 0 0 0-.8-.8Z" fill="url(#g)"/><path d="M167.663 128.711h-4.877a3.203 3.203 0 0 0-3.203 3.203v4.898a3.203 3.203 0 0 0 3.203 3.204h4.877a3.203 3.203 0 0 0 3.203-3.204v-4.898a3.203 3.203 0 0 0-3.203-3.203Z" fill="url(#h)"/><path d="M234.942 128.711h-56.225a.8.8 0 0 0-.8.8v9.705c0 .441.359.8.8.8h56.225c.441 0 .8-.359.8-.8v-9.705a.8.8 0 0 0-.8-.8Z" fill="url(#i)"/><path d="M167.663 151.023h-4.877a3.203 3.203 0 0 0-3.203 3.204v4.898a3.203 3.203 0 0 0 3.203 3.203h4.877a3.203 3.203 0 0 0 3.203-3.203v-4.898a3.203 3.203 0 0 0-3.203-3.204Z" fill="url(#j)"/><path d="M234.942 151.023h-56.225a.8.8 0 0 0-.8.8v9.705a.8.8 0 0 0 .8.8h56.225a.8.8 0 0 0 .8-.8v-9.705a.8.8 0 0 0-.8-.8Z" fill="url(#k)"/><path d="M218.449 75.274h-40.521a1.6 1.6 0 0 0-1.6 1.6v11.637a1.6 1.6 0 0 0 1.6 1.6h40.521a1.6 1.6 0 0 0 1.6-1.6V76.874a1.6 1.6 0 0 0-1.6-1.6Z" fill="url(#l)"/><path fill-rule="evenodd" clip-rule="evenodd" d="M206.011 238.774c89.653 0 40.873-4.974 57.96-8.105 15.371-2.816 37.529-3.588 37.529-7.38 0-8.008-40.254-13.515-95.489-13.515-55.234 0-100.011 6.492-100.011 14.5s44.777 14.5 100.011 14.5Z" fill="url(#m)"/><path fill-rule="evenodd" clip-rule="evenodd" d="M252.081 180.212c-.749 3.776-.397 5.996 1.056 6.661 1.902.8.106 2.831-.278 3.034-.257.136-.043.468.64.997 1.203.641 2.087.897 2.652.766.565-.13 1.254-.773 2.068-1.927-1.515-1.1-2.043-1.982-1.582-2.646.46-.665 1.159-1.358 2.097-2.08.911-.704.876-1.24-.105-1.607.237-.666.325-1.426.264-2.279l-3.193-.919-3.25-.716-.369.716Z" fill="url(#n)"/><path fill-rule="evenodd" clip-rule="evenodd" d="M240.775 226.124c-1.717 1.243-2.935 1.897-3.655 1.96-1.079.094-1.581 1.081-.533 1.498 1.048.417 4.199-.593 5.022-.666.824-.072 2.968.031 1.957-2.184-.675-1.476-1.229-2.081-1.662-1.814l-1.197.428.068.778Z" fill="#3E3E6E"/><path fill-rule="evenodd" clip-rule="evenodd" d="M245.148 227.993c-1.759 1.183-2.999 1.793-3.72 1.831-1.082.057-1.618 1.025-.585 1.478 1.032.454 4.216-.445 5.042-.489.825-.043 2.965.134 2.031-2.114-.623-1.499-1.155-2.123-1.597-1.872l-.829-.207-.342 1.373Z" fill="#3E3E6E"/><path fill-rule="evenodd" clip-rule="evenodd" d="M254.217 181.07c3.111-.895 3.938.48 3.938 1.062 0 .387-.098 1.03-.294 1.928.382-.172.652-.303.808-.392.955-.545 1.586-1.512 1.811-2.265.421-1.407-.815-4.391-4.02-3.946-1.117-.214-1.294-1.875-3.235-.853-1.942 1.022-2.596.236-2.596 1.284s.08 4.277 3.588 3.182Z" fill="#353564"/><path fill-rule="evenodd" clip-rule="evenodd" d="M243.989 196.737c-6.335 7.547-6.634 12.592-.896 15.133 5.349 2.364 8.606 1.165 8.606 0 0-1.166-3.201-2.235-6.348-4.107-2.098-1.248-.808-4.235 3.87-8.962l-5.232-2.064Z" fill="#FFC5B3"/><path fill-rule="evenodd" clip-rule="evenodd" d="M244.573 226.946c3.852-19.492 7.815-27.654 11.887-24.486 4.072 3.168 6.661 7.992 7.767 14.473.045.198 1.005.071 2.881-.379 1.875-.45 2.934-.323 3.177.379 0 5.699-2.572 8.76-7.717 9.181-11.929.977-7.022-5.849-7.022-12.885 0 5.623-7.68 13.021-7.68 14.343-1.864.322-2.962.113-3.293-.626Z" fill="#5C5CBB"/><path fill-rule="evenodd" clip-rule="evenodd" d="M252.807 189.743c1.07 0 1.602 2.139 5.412 0 1.173-.072 5.486 1.792 9.319 7.457 2.555 3.778 3.689 10.355 3.401 19.733-.528.878-2.566 1.317-6.112 1.317-3.547 0-5.75-3.983-6.608-11.95-5.289-2.366-8.92-4.062-10.893-5.09-2.958-1.541-5.011-2.588-5.617-3.53-.606-.943 1.795-2.747 4.415-4.85 2.628-2.108 6.208-3.087 6.683-3.087Z" fill="url(#o)"/><path fill-rule="evenodd" clip-rule="evenodd" d="M248.224 213.492c1.765-8.661 4.068-12.56 6.908-11.697 4.26 1.295 5.062 16.333 4.655 16.999-.272.444-4.126-1.323-11.563-5.302Z" fill="#5C5CBB"/><path fill-rule="evenodd" clip-rule="evenodd" d="M255.002 209.921c-3.911-8.98-7.163-11.225-9.754-6.735-2.592 4.49-4.31 12.108-5.156 22.852h4.293l3.162-12.397c.91 9.495 6.072 13.628 15.485 12.397 2.881-1.563.205-6.935-8.03-16.117Z" fill="#5C5CBB"/><path fill-rule="evenodd" clip-rule="evenodd" d="M260.189 201.795c-2.186 6.574-3.733 9.861-4.644 9.861-1.067 0-6.975-.947-10.194-2.481-.897-.427-.82-1.757-2.254-2.459-1.353-.662-6.449.266-1.836 3.655 4.613 3.388 13.037 6.665 16.168 6.125 3.131-.541 7.234-6.936 8.078-12.06.303-1.319-1.347-1.685-4.947-1.099l-.371-1.542Z" fill="url(#p)"/><path fill-rule="evenodd" clip-rule="evenodd" d="M259.963 194.423c-1.216 5.943-1.718 9.077-1.506 9.403.318.489 6.807 2.719 7.495 2.452 1.248-.475 1.406-6.058.85-9.541-.37-2.321-2.65-3.093-6.839-2.314Z" fill="url(#q)"/><path fill-rule="evenodd" clip-rule="evenodd" d="M109.418 208.012h1.408a.9.9 0 0 1 .9.9v14.553a.9.9 0 0 1-.9.9h-1.408a.9.9 0 0 1-.9-.9v-14.553a.9.9 0 0 1 .9-.9Z" fill="#F0F0F3" fill-opacity=".9"/><path fill-rule="evenodd" clip-rule="evenodd" d="M106.833 188.502c-2.978 6.11-13.235 24.848 1.136 26.946 14.372 2.098 13.731-10.374 11.21-14.838-2.52-4.463-5.366-6.962-5.366-12.108 0-5.145-4.001-6.109-6.98 0Z" fill="url(#r)"/><path fill-rule="evenodd" clip-rule="evenodd" d="M287.373 206.974h.869a.45.45 0 0 1 .45.45v7.9a.45.45 0 0 1-.45.45h-.869a.45.45 0 0 1-.45-.45v-7.9a.45.45 0 0 1 .45-.45Z" fill="#F0F0F3" fill-opacity=".9"/><path fill-rule="evenodd" clip-rule="evenodd" d="M286.125 196.143c-1.705 3.424-7.576 13.923.65 15.099 8.226 1.176 7.859-5.813 6.417-8.314-1.443-2.501-3.072-3.901-3.072-6.785 0-2.883-2.29-3.423-3.995 0Z" fill="url(#s)"/><defs><linearGradient id="a" x1="115.25" y1="102.307" x2="115.25" y2="136.274" gradientUnits="userSpaceOnUse"><stop stop-color="#F6F6F7"/><stop offset="1" stop-color="#FCFCFF" stop-opacity=".07"/></linearGradient><linearGradient id="b" x1="302.916" y1="129.936" x2="298.235" y2="138.965" gradientUnits="userSpaceOnUse"><stop stop-color="#F6F6F7"/><stop offset="1" stop-color="#FCFCFF" stop-opacity=".07"/></linearGradient><linearGradient id="c" x1="166.094" y1="131.242" x2="142.074" y2="232.04" gradientUnits="userSpaceOnUse"><stop stop-color="#F4F4F9"/><stop offset="1" stop-color="#E2E3E9"/></linearGradient><linearGradient id="d" x1="232.493" y1="131.05" x2="249.43" y2="233.287" gradientUnits="userSpaceOnUse"><stop stop-color="#F4F4F9"/><stop offset="1" stop-color="#E2E2E9"/></linearGradient><linearGradient id="e" x1="207.338" y1="103.359" x2="157.335" y2="230.867" gradientUnits="userSpaceOnUse"><stop stop-color="#F4F4F9"/><stop offset=".982" stop-color="#E3E3EA"/><stop offset="1" stop-color="#E2E2E9"/></linearGradient><linearGradient id="f" x1="162.344" y1="107.394" x2="167.916" y2="117.398" gradientUnits="userSpaceOnUse"><stop stop-color="#FAC251"/><stop offset="1" stop-color="#FFE7D6" stop-opacity=".69"/></linearGradient><linearGradient id="g" x1="206.837" y1="106.102" x2="206.837" y2="117.407" gradientUnits="userSpaceOnUse"><stop stop-color="#FCFCFF"/><stop offset="1" stop-color="#FAFAFC"/></linearGradient><linearGradient id="h" x1="162.344" y1="130.003" x2="167.916" y2="140.007" gradientUnits="userSpaceOnUse"><stop stop-color="#FAC251"/><stop offset="1" stop-color="#FFE7D6" stop-opacity=".69"/></linearGradient><linearGradient id="i" x1="206.83" y1="128.711" x2="206.83" y2="140.016" gradientUnits="userSpaceOnUse"><stop stop-color="#FCFCFF"/><stop offset="1" stop-color="#FAFAFC"/></linearGradient><linearGradient id="j" x1="162.344" y1="152.315" x2="167.916" y2="162.319" gradientUnits="userSpaceOnUse"><stop stop-color="#FAC251"/><stop offset="1" stop-color="#FFE7D6" stop-opacity=".69"/></linearGradient><linearGradient id="k" x1="206.83" y1="151.023" x2="206.83" y2="162.328" gradientUnits="userSpaceOnUse"><stop stop-color="#FCFCFF"/><stop offset="1" stop-color="#FAFAFC"/></linearGradient><linearGradient id="l" x1="198.189" y1="90.111" x2="198.189" y2="75.274" gradientUnits="userSpaceOnUse"><stop stop-color="#EBEBEF"/><stop offset="1" stop-color="#DFDFE5"/></linearGradient><linearGradient id="m" x1="140.131" y1="224.198" x2="273.577" y2="235.137" gradientUnits="userSpaceOnUse"><stop stop-color="#EDEDF2"/><stop offset="1" stop-color="#F9F9FC" stop-opacity=".88"/></linearGradient><linearGradient id="n" x1="254.018" y1="182.424" x2="257.247" y2="187.785" gradientUnits="userSpaceOnUse"><stop stop-color="#FFD2C4"/><stop offset="1" stop-color="#FFB8A3"/></linearGradient><linearGradient id="o" x1="266.785" y1="217.427" x2="256.817" y2="193.111" gradientUnits="userSpaceOnUse"><stop stop-color="#6E6EE9"/><stop offset="1" stop-color="#5B5BEA"/></linearGradient><linearGradient id="p" x1="233.283" y1="207.586" x2="258.365" y2="217.606" gradientUnits="userSpaceOnUse"><stop stop-color="#FFD2C4"/><stop offset="1" stop-color="#FFB8A3"/></linearGradient><linearGradient id="q" x1="262.759" y1="195.098" x2="262.759" y2="202.011" gradientUnits="userSpaceOnUse"><stop stop-color="#4949E2" stop-opacity="0"/><stop offset="1" stop-color="#4949E2"/></linearGradient><linearGradient id="r" x1="110.546" y1="184.274" x2="110.546" y2="215.684" gradientUnits="userSpaceOnUse"><stop stop-color="#EBEBEE"/><stop offset="1" stop-color="#FCFCFD"/></linearGradient><linearGradient id="s" x1="288.25" y1="193.774" x2="288.25" y2="211.374" gradientUnits="userSpaceOnUse"><stop stop-color="#EBEBEE"/><stop offset="1" stop-color="#FCFCFD"/></linearGradient></defs></svg>