<svg xmlns:xlink="http://www.w3.org/1999/xlink" xmlns="http://www.w3.org/2000/svg" version="1.1" viewBox="0 0 120 120" height="120px" width="120px">
    <title>Blankpage_zwjlsvg</title>
    <defs>
        <linearGradient id="linearGradient-1" y2="100%" x2="50%" y1="0%" x1="50%">
            <stop offset="0%" stop-color="#F0F0F0"></stop>
            <stop offset="100%" stop-color="#DBDBDB"></stop>
        </linearGradient>
        <linearGradient id="linearGradient-2" y2="100%" x2="50%" y1="0%" x1="50%">
            <stop offset="0%" stop-color="#F8F8F8"></stop>
            <stop offset="100%" stop-color="#E7E7E7"></stop>
        </linearGradient>
    </defs>
    <g fill-rule="evenodd" fill="none" stroke-width="1" stroke="none" id="调整">
        <g transform="translate(-1053.000000, -221.000000)" id="切图备份">
            <g transform="translate(932.000000, 160.000000)" id="编组-4备份">
                <rect height="242" width="362" y="0" x="0" id="矩形备份-12"></rect>
                <g transform="translate(136.000000, 79.000000)" id="编组-3">
                    <path transform="translate(46.359054, 79.256608) rotate(5.000000) translate(-46.359054, -79.256608)" fill-rule="nonzero" fill="#000000" fill-opacity="0.05" id="路径" d="M78.9503255,77.036952 C80.7447866,78.31027 81.9959007,76.7673533 85.7661446,77.8817054 C89.5363884,78.9960574 91.4884881,82.6947131 91.522496,85.1606995 C91.5575653,87.7469779 88.3737349,91.1798155 84.3278614,92.4273981 L83.6415666,92.6253395 C83.4088898,92.6879452 83.1723834,92.7471309 82.9322942,92.8027612 L82.5695042,92.8835232 L81.8634446,93.0223861 L81.139799,93.1407814 C80.1637846,93.2846838 79.1442979,93.3721281 78.0950342,93.3956023 C75.9965069,93.4425505 68.8878619,94.2183775 67.1245946,93.7983804 L66.4740485,93.6313381 C62.5295405,92.5430563 60.3115963,89.2695424 60.2769435,86.7350564 C60.2529407,84.979509 59.6273739,84.2172683 58.6260269,83.6918887 C57.9584622,83.3416357 56.4347344,83.267836 54.0548435,83.4704898 L42.0469504,85.5974769 L39.1325463,86.0909149 L34.4293694,86.9428463 L26.1062059,88.4836966 L24.0212699,88.8536895 L21.5060941,89.2776678 L19.5716508,89.5798453 L18.1687813,89.7815566 L17.2573172,89.9029719 L15.9270511,90.0639183 L15.0655604,90.1561715 L14.2249389,90.235648 L13.4056894,90.3017124 L12.6083146,90.3537293 L11.8333172,90.3910635 L11.0812002,90.4130796 L10.3524662,90.4191421 L9.99702488,90.4159922 L9.6476179,90.4086158 L8.9671582,90.3808652 L8.31158981,90.3352552 L7.68141548,90.2711501 L7.37600821,90.2319635 L7.07713799,90.1879148 L6.4992601,90.0849139 C3.48853739,89.4817378 1.62564866,88.0081194 1.25381316,85.2303229 C0.801929733,81.8545285 3.00529064,79.5331796 7.03213462,77.7476042 L7.38173895,77.5958549 L8.03316219,77.3290875 L8.36937183,77.1986717 L9.0623629,76.9435113 L9.41897462,76.818661 L10.1520061,76.5741553 L10.5282563,76.4543942 L11.2998009,76.2195908 L12.0961723,75.9907265 L12.9166918,75.7673778 L14.1912636,75.4417709 L15.5163499,75.1261932 L16.8896598,74.8192161 L18.3089021,74.5194109 L19.7717859,74.225349 L21.7862243,73.8397311 L24.9338368,73.2682784 L35.7036078,71.3924087 L38.0697485,70.961615 L40.4001071,70.5174049 L42.1202482,70.1794568 L62.0307178,66.6498183 L65.0900686,66.0533163 L66.5625628,65.7806006 L67.9943499,65.5286929 L69.3834903,65.3004315 L70.7280443,65.0986548 L71.5986856,64.9802523 L72.4480738,64.8757232 L73.2756344,64.7859085 L74.0807926,64.7116492 L74.8629736,64.6537863 L75.6216027,64.6131608 L75.9919058,64.5995748 L76.3561053,64.5906136 C76.8892781,72.0392938 77.7540182,76.1880733 78.9503255,77.036952 Z"></path>
                    <g transform="translate(6.000000, 0.000000)" id="编组-10备份">
                        <path fill="url(#linearGradient-1)" id="矩形" d="M11.6746079,1.47362958 L53.6746079,0.334338358 C60.299588,0.154629272 65.8158784,5.37955374 65.9955875,12.0045338 C65.998529,12.1129729 66,12.2214469 66,12.3299259 L66,65.5263991 C66,71.9413707 60.954673,77.2218847 54.5463537,77.513955 L12.5463537,79.4281781 C5.92580938,79.7299209 0.314186877,74.6075202 0.0124440516,67.9869759 C0.00414909285,67.804976 3.57502537e-15,67.6228109 0,67.4406222 L0,13.4692171 C2.75660975e-15,6.96853523 5.17631638,1.64990212 11.6746079,1.47362958 Z"></path>
                        <path fill="url(#linearGradient-2)" id="矩形" d="M12.7609095,5.467978 L58.7609095,4.24552869 C63.729718,4.11348268 67.8647776,8.03445339 67.9968236,13.0032619 C67.9989411,13.0829411 68,13.162645 68,13.2423523 L68,68.5352299 C68,73.3496761 64.2111128,77.3115159 59.4014587,77.5262716 L13.4014587,79.5802158 C8.43584344,79.8019353 4.23067779,75.956248 4.00895829,70.9906328 C4.00298684,70.8568965 4,70.7230436 4,70.5891741 L4,14.4648017 C4,9.58736567 7.88519495,5.59755004 12.7609095,5.467978 Z"></path>
                        <path fill="#FFFFFF" id="矩形" d="M13.8370136,9.3631501 L57.8370136,8.16747558 C61.1494993,8.07746071 63.907771,10.6897894 63.9977859,14.0022751 C63.9992619,14.0565914 64,14.1109252 64,14.1652615 L64,67.7108429 C64,70.9181402 61.4776231,73.5583119 58.2736637,73.7045987 L14.2736637,75.7135563 C10.9634038,75.8646965 8.1573845,73.3037241 8.00624423,69.9934642 C8.00208195,69.9023023 8,69.8110573 8,69.7198005 L8,15.360936 C8,12.1107078 10.5879849,9.45144057 13.8370136,9.3631501 Z"></path>
                        <g fill-rule="nonzero" transform="translate(14.000000, 15.785515)" id="编组-2">
                            <g transform="translate(0.771287, 0.305710)" id="编组-8">
                                <path fill="#EDEDED" id="路径" d="M40.4372184,4.26435671 L19.0202079,5.5638691 C18.7375688,5.56428852 18.4762266,5.39967604 18.3347903,5.13212095 C18.1933541,4.86456586 18.1933541,4.53479694 18.3347903,4.26724186 C18.4762266,3.99968677 18.7375688,3.83507429 19.0202079,3.83551562 L40.4372184,2.53602162 C40.7198575,2.53558381 40.9811998,2.70019629 41.122636,2.96775138 C41.2640722,3.23530646 41.2640722,3.56507538 41.122636,3.83263047 C40.9811998,4.10018556 40.7198575,4.26479804 40.4372184,4.26435671 Z"></path>
                                <path fill="#EDEDED" id="路径" d="M32.2585021,10.8846094 L20.7676233,11.3933544 C20.2903339,11.3933544 19.9034143,11.0064348 19.9034143,10.5291454 C19.9034143,10.051856 20.2903339,9.66493642 20.7676233,9.66493642 L32.2585021,9.1561915 C32.7357915,9.1561915 33.122711,9.54311103 33.122711,10.0204005 C33.122711,10.4976899 32.7357915,10.8846094 32.2585021,10.8846094 Z"></path>
                                <path fill="#EDEDED" id="路径" d="M1.04210395,27.3511696 C0.592880621,27.3511696 0.228713161,26.964269 0.228713161,26.487003 C0.228713161,26.0097369 0.592880621,25.6228363 1.04210395,25.6228363 L40.4153224,23.6228363 C40.8645457,23.6228363 41.2287132,24.0097369 41.2287132,24.487003 C41.2287132,24.964269 40.8645457,25.3511696 40.4153224,25.3511696 L1.04210395,27.3511696 Z"></path>
                                <path fill="#EDEDED" id="路径" d="M1.04214218,32.7659223 C0.59289774,32.7659223 0.228713161,32.3790028 0.228713161,31.9017134 C0.228713161,31.4244239 0.59289774,31.0375044 1.04214218,31.0375044 L40.4152841,29.0375044 C40.8645286,29.0375044 41.2287132,29.4244239 41.2287132,29.9017134 C41.2287132,30.3790028 40.8645286,30.7659223 40.4152841,30.7659223 L1.04214218,32.7659223 Z"></path>
                                <path fill="#F3F3F3" id="路径" d="M40.4153454,41.7493146 L1.04208091,43.5172686 C0.592870304,43.5172686 0.228713161,43.130368 0.228713161,42.6531019 C0.228713161,42.1758359 0.592870304,41.7889353 1.04208091,41.7889353 L40.4153454,40.0209813 C40.864556,40.0209813 41.2287132,40.4078819 41.2287132,40.8851479 C41.2287132,41.362414 40.864556,41.7493146 40.4153454,41.7493146 Z"></path>
                                <path fill="#F3F3F3" id="路径" d="M40.416976,47.0833184 L1.04045036,48.9320266 C0.592140282,48.9320266 0.228713161,48.5451071 0.228713161,48.0678176 C0.228713161,47.5905282 0.592140282,47.2036087 1.04045036,47.2036087 L40.416976,45.3549004 C40.865286,45.3549004 41.2287132,45.74182 41.2287132,46.2191094 C41.2287132,46.6963988 40.865286,47.0833184 40.416976,47.0833184 Z"></path>
                                <path fill="#F3F3F3" id="路径" d="M16.4327002,8.21559882 C16.4350664,10.0714965 15.8067728,11.8731271 14.6508331,13.3250793 C14.2769419,13.7976635 13.8512753,14.2268655 13.3817996,14.6046526 C12.1006077,15.6439682 10.5352339,16.2718379 8.8909558,16.4059251 C8.66711861,16.4253126 8.44146781,16.4341252 8.21409857,16.4341252 C7.76355055,16.4341252 7.31376488,16.39709 6.86933407,16.3230983 C6.71253347,16.2984233 6.55917503,16.2684503 6.40581659,16.2332109 C6.13890161,16.1738065 5.87533062,16.1002655 5.61621767,16.0128987 C4.77590582,15.7332218 3.98659247,15.3189294 3.27910182,14.7862004 C3.09054454,14.6452006 2.90904606,14.4953883 2.7327963,14.3367635 C2.51723197,14.1455597 2.31300966,13.9419388 2.12117087,13.7269393 C2.07005844,13.6705394 2.01893367,13.612377 1.96962075,13.5542146 C-0.394225598,10.7875478 -0.656607248,6.79555522 1.32477819,3.74328946 C3.30616363,0.691023693 7.05925328,-0.694316331 10.5485632,0.338606971 C14.0378732,1.37153027 16.4320793,4.57662407 16.4327002,8.2156094 L16.4327002,8.21559882 Z"></path>
                                <circle r="3.36794077" cy="7.65245969" cx="7.92805755" fill="#FFDCD5" id="椭圆形"></circle>
                                <path fill="#2F2E41" id="路径" d="M11.6774786,6.01071259 C11.6927471,5.70976862 11.6078236,5.4122525 11.4359953,5.16471375 L11.3143935,4.99198898 C10.8754911,4.14599014 10.1511275,3.38459119 9.620658,2.82764195 C9.22228772,2.40993003 8.82400909,2.2090053 8.44147133,2.22839278 C8.16311832,2.24826956 7.90395542,2.37753892 7.72063626,2.58794228 C6.69132071,2.52507974 5.72254614,3.07797323 5.25313965,3.99617785 C3.64047198,4.84745537 4.1216303,7.36078573 4.12688078,7.3872232 L4.51647206,8.0411098 L4.5605345,7.95827241 C4.5605345,7.95650991 4.56578321,7.94945992 4.57284025,7.93535994 C4.64865938,7.79964763 5.06105208,7.04529867 5.33954433,6.56766182 C5.44119161,6.40474511 5.57637919,6.26535169 5.73610628,6.15876238 C5.99694053,5.98054184 6.29673352,5.86751505 6.61030508,5.82917533 L7.46685423,5.71813799 L7.14258288,6.20458732 L9.4760768,6.20458732 L10.3731616,6.09883746 C10.4630931,6.46719946 11.1751491,7.896585 11.2614604,8.06930976 L11.2685104,8.08340974 L11.3160978,8.18034711 L11.582279,7.44891061 C11.7376875,6.98577831 11.7704858,6.49028842 11.6774786,6.01071259 Z"></path>
                                <path fill="#FA7268" id="路径" d="M3.30382437,14.8038077 C3.44834917,14.613458 4.19741064,13.7251592 5.92113328,13.2545724 L6.83410703,12.2376113 L10.4948145,11.6542246 L12.3577744,12.6835231 L14.6507838,13.3250723 C14.2769163,13.7976658 13.8512602,14.226869 13.3817855,14.6046455 C12.1005888,15.6439531 10.5352177,16.2718218 8.8909417,16.405918 C8.66710451,16.4253055 8.44150482,16.4341182 8.21414263,16.4341182 C7.7635871,16.4342197 7.31379401,16.3970808 6.86935698,16.3230806 C6.71249469,16.2984057 6.5591574,16.2684432 6.40582011,16.2331933 C6.13890189,16.1738018 5.87533023,16.1002606 5.6162212,16.0128811 C4.7854108,15.7368485 4.00457837,15.3285779 3.30382437,14.8038077 C3.29501188,14.7985202 3.28796189,14.7914702 3.2791494,14.7861828 L3.30382437,14.8038077 Z"></path>
                            </g>
                        </g>
                    </g>
                    <g transform="translate(50.000000, 18.785515)" id="undraw_map_re_60yfw备份">
                        <polygon points="25.5795757 67.619667 23.9776047 67.619667 23.2154672 61.4404243 25.5799463 61.4404243" fill-rule="nonzero" fill="#FFC5B9" id="路径"></polygon>
                        <polygon points="19.3714286 66.6101128 17.8087379 66.9630183 15.7041515 61.1033298 18.0105747 60.5826799" fill-rule="nonzero" fill="#FFC5B9" id="路径"></polygon>
                        <path fill-rule="nonzero" fill="#2F2E41" id="路径" d="M20.122884,67.9968106 C18.6837616,68.990244 15.4400225,69.564029 14.6833839,69.2793135 C13.9267454,68.994598 14.6833839,66.9028893 16.7641239,66.9028893 L17.380146,65.9586334 L18.941933,66.057946 L19.3817863,65.9586334 C20.219863,66.9399849 20.4668955,67.6193773 20.122884,67.9968106 Z"></path>
                        <path transform="translate(26.194614, 68.274285) scale(-1, 1) rotate(13.000000) translate(-26.194614, -68.274285)" fill-rule="nonzero" fill="#2F2E41" id="路径" d="M28.9826618,68.6156433 C27.5435394,69.6090767 24.2998002,70.1828617 23.5431617,69.8981462 C22.7865232,69.6134307 23.5431617,67.521722 25.6239017,67.521722 L26.2399238,66.5774661 L27.8017107,66.6767787 L28.2415641,66.5774661 C29.0796408,67.5588176 29.3266733,68.23821 28.9826618,68.6156433 Z"></path>
                        <path fill-rule="nonzero" fill="#FA7268" id="路径" d="M27.6086476,29.8430095 C30.2652054,33.0322683 28.1148918,52.8401242 27.1871185,54.7753754 C25.9482091,57.3596267 26.7308381,62.524081 25.8550767,64.2385408 L23.3148836,64.2385408 L22.6906361,57.2584373 L22.1408546,56.4713234 L22.0571986,50.175528 C21.8322828,49.643001 21.8121485,48.4396781 21.9967958,46.5655594 L21.8992644,40.7363515 C19.0291846,45.6936458 17.3081306,48.3154159 16.7361026,48.6016617 C18.3836291,55.1746297 19.2188117,59.30936 19.2416503,61.0058525 L19.9220155,64.0086297 L16.795646,64.2881168 L15.4159869,60.2159297 C14.3997791,59.3000305 13.3672124,57.2940863 12.3182869,54.1980972 C11.2693614,51.1021082 10.8855789,48.9275824 11.1669395,47.6745201 L13.0483617,43.3078935 L13.8173263,41.5231911 L18.1116412,32.5564437 L27.6086476,29.8430095 Z"></path>
                        <path fill="#FFDCD5" id="路径-4" d="M5.94827543,18.4333344 L5.27009174,17.3895275 C4.83443551,16.5719148 4.08928054,16.3675116 3.03462682,16.776318 C1.45264626,17.3895275 1.3718101,16.3403398 0.554824829,16.184494 C-0.262160437,16.0286483 0.529026031,17.9663925 1.68086243,18.1998634 C2.83269882,18.4333344 4.11911201,18.1998634 5.27009174,19.3090823 C6.03741155,20.0485615 6.26347278,19.7566455 5.94827543,18.4333344 Z"></path>
                        <path transform="translate(41.831975, 19.103608) scale(-1, 1) translate(-41.831975, -19.103608)" fill="#FFDCD5" id="路径-4" d="M44.5385828,19.4333344 L43.7300746,17.997982 C43.3159141,17.6701867 42.6818267,17.6038294 41.8278125,17.7989101 C40.5467912,18.091531 40.3051416,17.6065553 39.4729182,17.3139343 C38.6406947,17.0213133 39.4252116,19.0868139 40.5384013,19.0868139 C41.651591,19.0868139 42.6754099,19.4333344 43.5399119,20.5495911 C44.1162465,21.2937622 44.4491368,20.9216766 44.5385828,19.4333344 Z"></path>
                        <path fill="#FFCBC1" id="路径-2" d="M19.2825127,10.1155281 C19.2825127,10.1155281 19.3838387,10.955527 19.5864906,12.6355247 L22.5,12.6355247 L22.2617226,9.16346741 C20.2755826,9.79817454 19.2825127,10.1155281 19.2825127,10.1155281 Z"></path>
                        <path fill-rule="nonzero" fill="#EAEAEA" id="路径" d="M22.7618588,12.0481651 L23.217659,13.2043475 L23.810398,13.4490624 C28.3916817,9.58369474 30.2942116,18.0321874 31.3533173,19.8406667 C32.3113271,21.1676098 35.2260102,20.4648354 40.0973663,17.7323436 L41.9885406,20.4578209 C36.6567935,22.8165181 33.6097646,24.1255362 32.8474541,24.3848752 C31.7039883,24.7738836 30.2647595,24.2290574 29.6522484,23.9150352 L26.7876968,19.9801339 C26.6500441,21.6628262 27.7234426,27.5335875 28.3916817,28.9133343 C28.8371744,29.8331655 29.0033726,31.3220322 28.8902764,33.3799345 C27.6632753,33.2310478 26.9624154,33.1566045 26.7876968,33.1566045 C26.4661312,33.1566045 23.5209619,33.5854896 17.952189,34.4432599 L16.5058134,33.7116281 L17.1320755,30.6999744 L16.7170379,29.3535727 C17.516183,23.0190354 17.7710732,20.0537848 17.4817086,20.4578209 C17.0476616,21.063875 16.5774018,22.6653382 16.0709292,23.5085536 C15.5747778,24.4274914 14.6913021,24.8837487 13.4205022,24.8773255 C12.1497023,24.8709023 9.1739663,23.264995 4.49329433,20.0596037 L5.55947876,17.2498894 C10.1362178,20.4325701 12.7565589,21.5018806 13.4205022,20.4578209 C13.8717384,19.70438 13.7219021,16.6804605 14.4258575,15.0668737 C15.129813,13.4532868 16.7915618,12.8414713 18.5622148,13.8335736 C18.6846341,13.8818589 18.8005935,13.9320075 18.9103258,13.9839054 L19.1334645,13.6663177 L19.1458168,12.1506893 L22.7618588,12.0481651 Z"></path>
                        <circle r="3.55660377" cy="7.19811321" cx="20.6886792" fill-rule="nonzero" fill="#FFDCD5" id="椭圆形"></circle>
                        <path transform="translate(24.350000, 7.216267) scale(-1, 1) translate(-24.350000, -7.216267)" fill="#FFDCD5" id="椭圆形备份" d="M24.5320755,8.13253403 C24.946289,8.13253403 25.1,7.46421356 25.1,7.05 C25.1,6.63578644 24.7642136,6.3 24.35,6.3 C23.9357864,6.3 23.6,6.63578644 23.6,7.05 C23.6,7.46421356 24.1178619,8.13253403 24.5320755,8.13253403 Z"></path>
                        <path fill-rule="nonzero" fill="#2F2E41" id="路径" d="M18.5,5.47086143 C18.5779152,5.47144038 18.9810582,5.5295179 19.709429,5.64509401 C19.7992894,5.65935284 19.9452178,5.6827102 20.1472144,5.71516609 C20.4515042,5.63427297 20.6721794,5.57935034 20.80924,5.55039821 C21.0508897,5.49935306 21.2701683,5.85082223 21.4701385,5.83153725 C22.0830859,5.77242504 22.5017664,5.4758785 22.7231172,5.71516609 C22.9064071,5.91330849 23.6428805,5.81226146 24.0113525,6.3496666 C24.1375066,6.53365842 24.1766143,6.70299562 24.1286755,6.85767819 C24.2838567,6.85818284 24.3864104,6.82843813 24.4363365,6.76844406 C24.5569917,6.24063419 25.0012264,5.99214935 25.1000131,4.98563576 C25.1000131,3.88379478 24.9158649,1.72039509 22.1127586,1.35310078 C22.0802726,1.34884409 22.0802726,1.14637967 22.1127586,0.745707512 C21.7778009,1.05512633 21.5586506,1.1936357 21.4553078,1.16123562 C21.3740815,1.1357695 21.5331226,0.768175272 21.4553078,0.745707512 C21.2908482,0.698222464 20.90243,1.00472189 20.80924,1 C20.109976,0.964568651 19.2887667,1.40216236 18.5,1.64474869 C17.5060845,1.95042882 17.2317941,2.39417405 16.95,3.64150943 C16.7997103,4.00268007 16.7286186,4.58428618 16.7367249,5.38632774 L17.1231308,7.10649109 L17.4998894,6.3 L17.6937008,5.47086143 L18.0248604,5.61205387 C18.0992632,5.46006118 18.1887684,5.38481914 18.293376,5.38632774 L18.5,5.47086143 Z"></path>
                        <path fill="#FFDCD5" id="椭圆形" d="M17.1320755,8.13253403 C17.546289,8.13253403 17.7,7.46421356 17.7,7.05 C17.7,6.63578644 17.3642136,6.3 16.95,6.3 C16.5357864,6.3 16.2,6.63578644 16.2,7.05 C16.2,7.46421356 16.7178619,8.13253403 17.1320755,8.13253403 Z"></path>
                    </g>
                </g>
            </g>
        </g>
    </g>
</svg>