<svg xmlns="http://www.w3.org/2000/svg" xmlns:xlink="http://www.w3.org/1999/xlink" viewBox="0 0 456.01 262.12"><defs><style>.cls-1,.cls-2,.cls-21,.cls-28,.cls-29,.cls-3,.cls-4,.cls-5,.cls-6{fill:none;stroke-miterlimit:10;}.cls-1,.cls-2,.cls-3,.cls-4,.cls-5,.cls-6{stroke-width:2px;}.cls-1{stroke:url(#未命名的渐变_26);}.cls-2{stroke:url(#未命名的渐变_26-2);}.cls-3{stroke:url(#未命名的渐变_26-3);}.cls-4{stroke:url(#未命名的渐变_26-4);}.cls-5{stroke:url(#未命名的渐变_26-5);}.cls-6{stroke:url(#未命名的渐变_26-6);}.cls-10,.cls-11,.cls-12,.cls-7,.cls-9{opacity:0.4;}.cls-7{fill:url(#未命名的渐变_26-7);}.cls-8{opacity:0.7;}.cls-9{fill:url(#未命名的渐变_26-8);}.cls-10{fill:url(#未命名的渐变_26-9);}.cls-11{fill:url(#未命名的渐变_26-10);}.cls-12{fill:url(#未命名的渐变_26-11);}.cls-13{fill:#7dccf5;}.cls-14{fill:#69bff5;}.cls-15{fill:#57b3f5;}.cls-16{fill:#8cd7ff;}.cls-17{fill:#4899e3;}.cls-18{fill:#4888e3;}.cls-19{fill:#ebfcff;}.cls-20{fill:#e49056;}.cls-21{stroke:#4986d9;stroke-width:0.09px;}.cls-22{fill:#a4e5ff;}.cls-23{fill:#257fba;}.cls-24{fill:#398eed;}.cls-25{fill:#ffb056;}.cls-26{fill:#fae6d2;}.cls-27{fill:#ffeed2;}.cls-28{stroke:#000;}.cls-28,.cls-29{stroke-width:0.23px;}.cls-29{stroke:#e55c5c;}.cls-29,.cls-30{opacity:0.2;}.cls-30{fill:#e55c5c;}</style><linearGradient id="未命名的渐变_26" x1="1" y1="91.35" x2="1" y2="181.12" gradientUnits="userSpaceOnUse"><stop offset="0" stop-color="#81cfff"/><stop offset="1" stop-color="#5ecfff" stop-opacity="0"/></linearGradient><linearGradient id="未命名的渐变_26-2" x1="455.01" y1="72.11" x2="455.01" y2="161.88" xlink:href="#未命名的渐变_26"/><linearGradient id="未命名的渐变_26-3" x1="40.9" y1="143.88" x2="40.9" y2="199.51" xlink:href="#未命名的渐变_26"/><linearGradient id="未命名的渐变_26-4" x1="64.97" y1="95.36" x2="64.97" y2="123.17" xlink:href="#未命名的渐变_26"/><linearGradient id="未命名的渐变_26-5" x1="397.23" y1="104.2" x2="397.23" y2="132.02" xlink:href="#未命名的渐变_26"/><linearGradient id="未命名的渐变_26-6" x1="424.75" y1="133.49" x2="424.75" y2="189.13" xlink:href="#未命名的渐变_26"/><linearGradient id="未命名的渐变_26-7" x1="232.75" y1="224.43" x2="232.75" y2="262.12" xlink:href="#未命名的渐变_26"/><linearGradient id="未命名的渐变_26-8" x1="349.36" y1="26.68" x2="349.36" y2="204.03" xlink:href="#未命名的渐变_26"/><linearGradient id="未命名的渐变_26-9" x1="201.45" y1="55.61" x2="201.45" y2="204.03" xlink:href="#未命名的渐变_26"/><linearGradient id="未命名的渐变_26-10" x1="122.98" y1="26.68" x2="122.98" y2="204.03" xlink:href="#未命名的渐变_26"/><linearGradient id="未命名的渐变_26-11" x1="273.51" y1="0" x2="273.51" y2="209.54" xlink:href="#未命名的渐变_26"/></defs><title>暂无历史数据</title><g id="图层_2" data-name="图层 2"><g id="图层_1-2" data-name="图层 1"><line class="cls-1" x1="1" y1="91.35" x2="1" y2="181.12"/><line class="cls-2" x1="455.01" y1="72.11" x2="455.01" y2="161.88"/><line class="cls-3" x1="40.9" y1="143.88" x2="40.9" y2="199.51"/><line class="cls-4" x1="64.97" y1="95.36" x2="64.97" y2="123.17"/><line class="cls-5" x1="397.23" y1="104.2" x2="397.23" y2="132.02"/><line class="cls-6" x1="424.75" y1="133.49" x2="424.75" y2="189.13"/><path class="cls-7" d="M412.28,262.12c-23-23-61-37.69-179.53-37.69S76.24,239.1,53.21,262.12Z"/><g class="cls-8"><path class="cls-9" d="M380.66,26.68H318.07a2.71,2.71,0,0,0-2.82,2.59V201.44a2.71,2.71,0,0,0,2.82,2.59h62.59a2.72,2.72,0,0,0,2.82-2.59V29.27A2.72,2.72,0,0,0,380.66,26.68ZM328.3,147a.9.9,0,0,1-.95.87h-3.6a.9.9,0,0,1-.95-.87V127.27a.91.91,0,0,1,.95-.87h3.6a.91.91,0,0,1,.95.87Zm0-30.23a.91.91,0,0,1-.95.87h-3.6a.91.91,0,0,1-.95-.87V97a.91.91,0,0,1,.95-.87h3.6a.91.91,0,0,1,.95.87Zm0-30.24a.91.91,0,0,1-.95.87h-3.6a.91.91,0,0,1-.95-.87V66.8a.91.91,0,0,1,.95-.87h3.6a.91.91,0,0,1,.95.87Zm0-30.24a.91.91,0,0,1-.95.87h-3.6a.91.91,0,0,1-.95-.87V36.56a.91.91,0,0,1,.95-.87h3.6a.91.91,0,0,1,.95.87ZM340,147a.9.9,0,0,1-.94.87h-3.61a.91.91,0,0,1-.95-.87V127.27a.92.92,0,0,1,.95-.87h3.61a.91.91,0,0,1,.94.87Zm0-30.23a.91.91,0,0,1-.94.87h-3.61a.92.92,0,0,1-.95-.87V97a.92.92,0,0,1,.95-.87h3.61A.91.91,0,0,1,340,97Zm0-30.24a.91.91,0,0,1-.94.87h-3.61a.92.92,0,0,1-.95-.87V66.8a.92.92,0,0,1,.95-.87h3.61a.91.91,0,0,1,.94.87Zm0-30.24a.91.91,0,0,1-.94.87h-3.61a.92.92,0,0,1-.95-.87V36.56a.92.92,0,0,1,.95-.87h3.61a.91.91,0,0,1,.94.87ZM351.7,147a.9.9,0,0,1-.94.87h-3.61a.9.9,0,0,1-.94-.87V127.27a.91.91,0,0,1,.94-.87h3.61a.91.91,0,0,1,.94.87Zm0-30.23a.91.91,0,0,1-.94.87h-3.61a.91.91,0,0,1-.94-.87V97a.91.91,0,0,1,.94-.87h3.61a.91.91,0,0,1,.94.87Zm0-30.24a.91.91,0,0,1-.94.87h-3.61a.91.91,0,0,1-.94-.87V66.8a.91.91,0,0,1,.94-.87h3.61a.91.91,0,0,1,.94.87Zm0-30.24a.91.91,0,0,1-.94.87h-3.61a.91.91,0,0,1-.94-.87V36.56a.91.91,0,0,1,.94-.87h3.61a.91.91,0,0,1,.94.87ZM363.4,147a.9.9,0,0,1-.94.87h-3.61a.9.9,0,0,1-.94-.87V127.27a.91.91,0,0,1,.94-.87h3.61a.91.91,0,0,1,.94.87Zm0-30.23a.91.91,0,0,1-.94.87h-3.61a.91.91,0,0,1-.94-.87V97a.91.91,0,0,1,.94-.87h3.61a.91.91,0,0,1,.94.87Zm0-30.24a.91.91,0,0,1-.94.87h-3.61a.91.91,0,0,1-.94-.87V66.8a.91.91,0,0,1,.94-.87h3.61a.91.91,0,0,1,.94.87Zm0-30.24a.91.91,0,0,1-.94.87h-3.61a.91.91,0,0,1-.94-.87V36.56a.91.91,0,0,1,.94-.87h3.61a.91.91,0,0,1,.94.87ZM375.11,147a.91.91,0,0,1-.95.87h-3.61a.9.9,0,0,1-.94-.87V127.27a.91.91,0,0,1,.94-.87h3.61a.92.92,0,0,1,.95.87Zm0-30.23a.92.92,0,0,1-.95.87h-3.61a.91.91,0,0,1-.94-.87V97a.91.91,0,0,1,.94-.87h3.61a.92.92,0,0,1,.95.87Zm0-30.24a.92.92,0,0,1-.95.87h-3.61a.91.91,0,0,1-.94-.87V66.8a.91.91,0,0,1,.94-.87h3.61a.92.92,0,0,1,.95.87Zm0-30.24a.92.92,0,0,1-.95.87h-3.61a.91.91,0,0,1-.94-.87V36.56a.91.91,0,0,1,.94-.87h3.61a.92.92,0,0,1,.95.87Z"/><path class="cls-10" d="M231.1,55.61H171.8A2.71,2.71,0,0,0,169,58.2V201.44A2.71,2.71,0,0,0,171.8,204h59.3a2.71,2.71,0,0,0,2.82-2.59V58.2A2.71,2.71,0,0,0,231.1,55.61ZM182.47,159.37a1.16,1.16,0,0,1-1.2,1.11h-5.4a1.16,1.16,0,0,1-1.2-1.11v-5.22a1.15,1.15,0,0,1,1.2-1.1h5.4a1.15,1.15,0,0,1,1.2,1.1Zm0-12.88a1.15,1.15,0,0,1-1.2,1.1h-5.4a1.15,1.15,0,0,1-1.2-1.1v-5.22a1.16,1.16,0,0,1,1.2-1.11h5.4a1.16,1.16,0,0,1,1.2,1.11Zm0-12.89a1.16,1.16,0,0,1-1.2,1.11h-5.4a1.16,1.16,0,0,1-1.2-1.11v-5.22a1.15,1.15,0,0,1,1.2-1.1h5.4a1.15,1.15,0,0,1,1.2,1.1Zm0-12.88a1.15,1.15,0,0,1-1.2,1.1h-5.4a1.15,1.15,0,0,1-1.2-1.1V115.5a1.16,1.16,0,0,1,1.2-1.11h5.4a1.16,1.16,0,0,1,1.2,1.11Zm0-12.89a1.16,1.16,0,0,1-1.2,1.11h-5.4a1.16,1.16,0,0,1-1.2-1.11v-5.21a1.15,1.15,0,0,1,1.2-1.11h5.4a1.15,1.15,0,0,1,1.2,1.11Zm0-12.88a1.15,1.15,0,0,1-1.2,1.1h-5.4a1.15,1.15,0,0,1-1.2-1.1V89.73a1.16,1.16,0,0,1,1.2-1.11h5.4a1.16,1.16,0,0,1,1.2,1.11Zm0-12.89a1.16,1.16,0,0,1-1.2,1.11h-5.4a1.16,1.16,0,0,1-1.2-1.11V76.85a1.15,1.15,0,0,1,1.2-1.11h5.4a1.15,1.15,0,0,1,1.2,1.11Zm0-12.88a1.15,1.15,0,0,1-1.2,1.1h-5.4a1.15,1.15,0,0,1-1.2-1.1V64a1.16,1.16,0,0,1,1.2-1.11h5.4a1.16,1.16,0,0,1,1.2,1.11Zm10.08,90.19a1.16,1.16,0,0,1-1.2,1.11H186a1.16,1.16,0,0,1-1.21-1.11v-5.22a1.16,1.16,0,0,1,1.21-1.1h5.4a1.15,1.15,0,0,1,1.2,1.1Zm0-12.88a1.15,1.15,0,0,1-1.2,1.1H186a1.16,1.16,0,0,1-1.21-1.1v-5.22a1.16,1.16,0,0,1,1.21-1.11h5.4a1.16,1.16,0,0,1,1.2,1.11Zm0-12.89a1.16,1.16,0,0,1-1.2,1.11H186a1.16,1.16,0,0,1-1.21-1.11v-5.22a1.16,1.16,0,0,1,1.21-1.1h5.4a1.15,1.15,0,0,1,1.2,1.1Zm0-12.88a1.15,1.15,0,0,1-1.2,1.1H186a1.16,1.16,0,0,1-1.21-1.1V115.5a1.16,1.16,0,0,1,1.21-1.11h5.4a1.16,1.16,0,0,1,1.2,1.11Zm0-12.89a1.16,1.16,0,0,1-1.2,1.11H186a1.16,1.16,0,0,1-1.21-1.11v-5.21a1.16,1.16,0,0,1,1.21-1.11h5.4a1.15,1.15,0,0,1,1.2,1.11Zm0-12.88a1.15,1.15,0,0,1-1.2,1.1H186a1.16,1.16,0,0,1-1.21-1.1V89.73A1.16,1.16,0,0,1,186,88.62h5.4a1.16,1.16,0,0,1,1.2,1.11Zm0-12.89a1.16,1.16,0,0,1-1.2,1.11H186a1.16,1.16,0,0,1-1.21-1.11V76.85A1.16,1.16,0,0,1,186,75.74h5.4a1.15,1.15,0,0,1,1.2,1.11Zm0-12.88a1.15,1.15,0,0,1-1.2,1.1H186a1.16,1.16,0,0,1-1.21-1.1V64A1.16,1.16,0,0,1,186,62.85h5.4a1.16,1.16,0,0,1,1.2,1.11Zm10.08,90.19a1.16,1.16,0,0,1-1.21,1.11H196a1.16,1.16,0,0,1-1.2-1.11v-5.22a1.15,1.15,0,0,1,1.2-1.1h5.4a1.16,1.16,0,0,1,1.21,1.1Zm0-12.88a1.16,1.16,0,0,1-1.21,1.1H196a1.15,1.15,0,0,1-1.2-1.1v-5.22a1.16,1.16,0,0,1,1.2-1.11h5.4a1.16,1.16,0,0,1,1.21,1.11Zm0-12.89a1.16,1.16,0,0,1-1.21,1.11H196a1.16,1.16,0,0,1-1.2-1.11v-5.22a1.15,1.15,0,0,1,1.2-1.1h5.4a1.16,1.16,0,0,1,1.21,1.1Zm0-12.88a1.16,1.16,0,0,1-1.21,1.1H196a1.15,1.15,0,0,1-1.2-1.1V115.5a1.16,1.16,0,0,1,1.2-1.11h5.4a1.16,1.16,0,0,1,1.21,1.11Zm0-12.89a1.16,1.16,0,0,1-1.21,1.11H196a1.16,1.16,0,0,1-1.2-1.11v-5.21a1.15,1.15,0,0,1,1.2-1.11h5.4a1.16,1.16,0,0,1,1.21,1.11Zm0-12.88a1.16,1.16,0,0,1-1.21,1.1H196a1.15,1.15,0,0,1-1.2-1.1V89.73a1.16,1.16,0,0,1,1.2-1.11h5.4a1.16,1.16,0,0,1,1.21,1.11Zm0-12.89a1.16,1.16,0,0,1-1.21,1.11H196a1.16,1.16,0,0,1-1.2-1.11V76.85a1.15,1.15,0,0,1,1.2-1.11h5.4a1.16,1.16,0,0,1,1.21,1.11Zm0-12.88a1.16,1.16,0,0,1-1.21,1.1H196a1.15,1.15,0,0,1-1.2-1.1V64a1.16,1.16,0,0,1,1.2-1.11h5.4A1.16,1.16,0,0,1,202.63,64Zm25.21,90.19a1.16,1.16,0,0,1-1.2,1.11H206.1a1.16,1.16,0,0,1-1.2-1.11v-5.22a1.15,1.15,0,0,1,1.2-1.1h20.54a1.15,1.15,0,0,1,1.2,1.1Zm0-12.88a1.15,1.15,0,0,1-1.2,1.1H206.1a1.15,1.15,0,0,1-1.2-1.1v-5.22a1.16,1.16,0,0,1,1.2-1.11h20.54a1.16,1.16,0,0,1,1.2,1.11Zm0-12.89a1.16,1.16,0,0,1-1.2,1.11H206.1a1.16,1.16,0,0,1-1.2-1.11v-5.22a1.15,1.15,0,0,1,1.2-1.1h20.54a1.15,1.15,0,0,1,1.2,1.1Zm0-12.88a1.15,1.15,0,0,1-1.2,1.1H206.1a1.15,1.15,0,0,1-1.2-1.1V115.5a1.16,1.16,0,0,1,1.2-1.11h20.54a1.16,1.16,0,0,1,1.2,1.11Zm0-12.89a1.16,1.16,0,0,1-1.2,1.11H206.1a1.16,1.16,0,0,1-1.2-1.11v-5.21a1.15,1.15,0,0,1,1.2-1.11h20.54a1.15,1.15,0,0,1,1.2,1.11Zm0-12.88a1.15,1.15,0,0,1-1.2,1.1H206.1a1.15,1.15,0,0,1-1.2-1.1V89.73a1.16,1.16,0,0,1,1.2-1.11h20.54a1.16,1.16,0,0,1,1.2,1.11Zm0-12.89a1.16,1.16,0,0,1-1.2,1.11H206.1a1.16,1.16,0,0,1-1.2-1.11V76.85a1.15,1.15,0,0,1,1.2-1.11h20.54a1.15,1.15,0,0,1,1.2,1.11Zm0-12.88a1.15,1.15,0,0,1-1.2,1.1H206.1a1.15,1.15,0,0,1-1.2-1.1V64a1.16,1.16,0,0,1,1.2-1.11h20.54a1.16,1.16,0,0,1,1.2,1.11Z"/><path class="cls-11" d="M161.13,26.68H84.83A2.71,2.71,0,0,0,82,29.27V201.44A2.71,2.71,0,0,0,84.83,204h76.3a2.71,2.71,0,0,0,2.82-2.59V29.27A2.71,2.71,0,0,0,161.13,26.68ZM154.34,161a1.16,1.16,0,0,1-1.2,1.11H92.83A1.16,1.16,0,0,1,91.62,161v-5.21a1.16,1.16,0,0,1,1.21-1.11h60.31a1.15,1.15,0,0,1,1.2,1.11Zm0-14.67a1.15,1.15,0,0,1-1.2,1.1H92.83a1.16,1.16,0,0,1-1.21-1.1v-5.22A1.16,1.16,0,0,1,92.83,140h60.31a1.16,1.16,0,0,1,1.2,1.11Zm0-14.68a1.16,1.16,0,0,1-1.2,1.11H92.83a1.16,1.16,0,0,1-1.21-1.11v-5.22a1.16,1.16,0,0,1,1.21-1.1h60.31a1.15,1.15,0,0,1,1.2,1.1Zm0-14.68a1.16,1.16,0,0,1-1.2,1.11H92.83a1.16,1.16,0,0,1-1.21-1.11v-5.21a1.16,1.16,0,0,1,1.21-1.11h60.31a1.15,1.15,0,0,1,1.2,1.11Zm0-14.67a1.15,1.15,0,0,1-1.2,1.1H92.83a1.16,1.16,0,0,1-1.21-1.1V97a1.16,1.16,0,0,1,1.21-1.11h60.31a1.16,1.16,0,0,1,1.2,1.11Zm0-14.68a1.16,1.16,0,0,1-1.2,1.11H92.83a1.16,1.16,0,0,1-1.21-1.11V82.35a1.16,1.16,0,0,1,1.21-1.1h60.31a1.15,1.15,0,0,1,1.2,1.1Zm0-14.68a1.16,1.16,0,0,1-1.2,1.11H92.83a1.16,1.16,0,0,1-1.21-1.11V67.68a1.16,1.16,0,0,1,1.21-1.11h60.31a1.15,1.15,0,0,1,1.2,1.11Zm0-14.67a1.15,1.15,0,0,1-1.2,1.1H92.83a1.16,1.16,0,0,1-1.21-1.1V53a1.16,1.16,0,0,1,1.21-1.11h60.31a1.16,1.16,0,0,1,1.2,1.11Zm0-14.68a1.16,1.16,0,0,1-1.2,1.11H92.83a1.16,1.16,0,0,1-1.21-1.11V38.32a1.16,1.16,0,0,1,1.21-1.1h60.31a1.15,1.15,0,0,1,1.2,1.1Z"/><path class="cls-12" d="M306.21,0H240.82a2.51,2.51,0,0,0-2.42,2.59V206.94a2.51,2.51,0,0,0,2.42,2.6h65.39a2.51,2.51,0,0,0,2.41-2.6V2.59A2.51,2.51,0,0,0,306.21,0Zm-5.82,134.28a1.06,1.06,0,0,1-1,1.1H247.67a1.06,1.06,0,0,1-1-1.1v-5.22a1.07,1.07,0,0,1,1-1.11h51.69a1.07,1.07,0,0,1,1,1.11Zm0-14.68a1.07,1.07,0,0,1-1,1.11H247.67a1.07,1.07,0,0,1-1-1.11v-5.22a1.06,1.06,0,0,1,1-1.1h51.69a1.06,1.06,0,0,1,1,1.1Zm0-14.68a1.07,1.07,0,0,1-1,1.11H247.67a1.07,1.07,0,0,1-1-1.11V99.71a1.07,1.07,0,0,1,1-1.11h51.69a1.07,1.07,0,0,1,1,1.11Zm0-14.67a1.06,1.06,0,0,1-1,1.1H247.67a1.06,1.06,0,0,1-1-1.1V85a1.07,1.07,0,0,1,1-1.11h51.69a1.07,1.07,0,0,1,1,1.11Zm0-14.68a1.07,1.07,0,0,1-1,1.11H247.67a1.07,1.07,0,0,1-1-1.11V70.35a1.06,1.06,0,0,1,1-1.1h51.69a1.06,1.06,0,0,1,1,1.1Zm0-14.68a1.07,1.07,0,0,1-1,1.11H247.67a1.07,1.07,0,0,1-1-1.11V55.68a1.07,1.07,0,0,1,1-1.11h51.69a1.07,1.07,0,0,1,1,1.11Zm0-14.67a1.06,1.06,0,0,1-1,1.1H247.67a1.06,1.06,0,0,1-1-1.1V41a1.07,1.07,0,0,1,1-1.11h51.69a1.07,1.07,0,0,1,1,1.11Zm0-14.68a1.07,1.07,0,0,1-1,1.11H247.67a1.07,1.07,0,0,1-1-1.11V26.32a1.06,1.06,0,0,1,1-1.1h51.69a1.06,1.06,0,0,1,1,1.1Zm0-14.68a1.07,1.07,0,0,1-1,1.11H247.67a1.07,1.07,0,0,1-1-1.11V11.65a1.07,1.07,0,0,1,1-1.11h51.69a1.07,1.07,0,0,1,1,1.11Z"/></g><polygon class="cls-13" points="172.75 129.66 210.9 106.32 258.52 106.77 258.29 130.47 172.75 129.66"/><polygon class="cls-14" points="258.29 130.47 258.52 106.77 296.44 107.14 258.29 130.47"/><polygon class="cls-15" points="296.44 107.14 303.75 80.07 321.58 69.16 296.44 107.14"/><polygon class="cls-16" points="141.21 98.97 173.22 79.37 179.35 75.63 210.78 106.21 210.78 106.32 172.75 129.66 141.21 98.97"/><polygon class="cls-16" points="303.75 80.07 296.44 107.14 258.52 106.77 210.9 106.32 219.45 74.59 296.74 75.33 305 75.41 303.75 80.07"/><polygon class="cls-14" points="173.22 79.37 173.46 55.36 211.49 32.02 210.78 106.21 179.35 75.63 173.22 79.37"/><polygon class="cls-13" points="210.78 106.21 211.49 32.02 211.61 32.02 297.15 32.84 296.74 75.33 219.45 74.59 210.9 106.32 210.78 106.21"/><polygon class="cls-14" points="296.78 71.31 217.79 71.31 210.9 106.32 219.45 74.59 296.74 75.33 296.78 71.31"/><polygon class="cls-15" points="210.9 106.32 186.03 74.59 181.13 77.36 210.9 106.32"/><polygon class="cls-15" points="235.34 212.05 235.34 212.04 236.72 212.82 236.72 212.83 223.71 227.99 223.64 225.67 223.77 225.52 235.34 212.05"/><polygon class="cls-17" points="233.4 210.95 235.34 212.04 235.34 212.05 223.77 225.52 222.01 224.15 233.4 210.95"/><polygon class="cls-18" points="232.01 210.17 233.4 210.95 222.01 224.15 221.94 221.83 232.01 210.17"/><polygon class="cls-15" points="209.64 196.78 197.55 209.83 196.4 208.1 208.39 195.04 209.64 196.78"/><polygon class="cls-14" points="210.56 198.07 196.99 212.83 196.92 210.51 197.55 209.83 209.64 196.78 210.56 198.06 210.56 198.07"/><polygon class="cls-14" points="213.98 194.16 210.57 198.08 210.56 198.07 210.56 198.06 209.64 196.78 208.39 195.04 211.83 191.02 213.98 194.16"/><polygon class="cls-13" points="262.51 173.33 268.25 182.19 264.05 179.83 260.08 174.28 262.51 173.33"/><polygon class="cls-15" points="260.08 174.28 264.05 179.83 243.95 203 258.34 174.96 260.08 174.28"/><polygon class="cls-15" points="211.83 191.02 215.97 191.61 239.28 201.56 243.95 203 239.41 208.24 213.98 194.16 211.83 191.02"/><polygon class="cls-16" points="268.25 182.19 240.02 214.68 236.72 212.82 235.34 212.04 233.4 210.95 232.01 210.17 213.84 199.93 210.57 198.08 213.98 194.16 239.41 208.24 243.95 203 264.05 179.83 268.25 182.19"/><polygon class="cls-16" points="210.57 198.08 213.84 199.93 200.11 215.26 196.99 212.83 210.56 198.07 210.57 198.08"/><polygon class="cls-16" points="240.02 214.68 226.83 230.42 223.71 227.99 236.72 212.83 236.72 212.82 240.02 214.68"/><path class="cls-19" d="M189.92,173.8c.14-.42.87-.52,1.23-.31-.22-.08-.37.1-.32.41a18.89,18.89,0,0,0,2.57,8.21c.26.72.42,2.62.72,3.6a1.28,1.28,0,0,0,1.17,1.07,1.28,1.28,0,0,1-1.66.41c-.73-.32-1.24-2.83-1.35-3.31s-1.24-5.35-1.58-6A13.51,13.51,0,0,1,189.92,173.8Z"/><path class="cls-20" d="M197.27,185.87a11.25,11.25,0,0,1-1.73.89l-.25,0a1.28,1.28,0,0,1-1.17-1.07c-.3-1-.46-2.88-.72-3.6a18.89,18.89,0,0,1-2.57-8.21c-.05-.31.1-.49.32-.41a21.68,21.68,0,0,1,2.71,3.15,9.11,9.11,0,0,0,3.8,3.88,1.67,1.67,0,0,1,.14.53c.07.63-.18,1.21-.54,1.26s-.93-.19-.87.48a2,2,0,0,0,1,1.57c.44.17.76.12.76.64a3.28,3.28,0,0,0,0,.34c0,.27.08.41,0,.51S197.61,185.68,197.27,185.87Z"/><path class="cls-21" d="M191.15,173.49c-.36-.21-1.09-.11-1.23.31a13.51,13.51,0,0,0,.78,4c.34.68,1.48,5.55,1.58,6s.62,3,1.35,3.31a1.28,1.28,0,0,0,1.66-.41h0"/><path class="cls-22" d="M255,174.06a.56.56,0,0,0,.08.54,1.72,1.72,0,0,1-.61-.13Z"/><path d="M256.72,171.15c.83-2.68-.21-5.38-2.33-6a4.15,4.15,0,0,0-4.53,2,1.78,1.78,0,0,1-.78-1.71c.08.57,1,1.11,1.43.43a2.71,2.71,0,0,1,.87-.68c1.11-.59,3-1,4.28.11a5.06,5.06,0,0,1,1.49,2.27,6.1,6.1,0,0,1,.11,3.45,1.8,1.8,0,0,1-.18.65,6.73,6.73,0,0,1-1.56,1.71A6.18,6.18,0,0,0,256.72,171.15Z"/><path class="cls-23" d="M235.52,192.84c0,.23,0,.46.08.68h0l-1.69,1-16.33-9a3.33,3.33,0,0,0-1-.33L201,182.79l19.33-1.38a2.59,2.59,0,0,1,1.85.59l13.38,10.84Z"/><path class="cls-24" d="M239.27,201.56l-3.69,2.24a3.64,3.64,0,0,1-4.11-.23l-15.51-12L197.54,189l.39-2.11.72-3.9.1-.52,2.2.34h0l15.65,2.4a3.33,3.33,0,0,1,1,.33l16.33,9,1.69-1h0A13.71,13.71,0,0,0,239.27,201.56Z"/><path class="cls-25" d="M247.69,169h0a2.9,2.9,0,0,1,1.36-.26,5.06,5.06,0,0,0,1.31,5.51,4.22,4.22,0,0,1,0,1.34c-.45,0-1.47,0-1.22,1.35s3,1,3.53,0a2.49,2.49,0,0,1,.91-1.85l.81-.62a1.72,1.72,0,0,0,.61.13.56.56,0,0,1-.08-.54l2.46-1.9a15.75,15.75,0,0,1,2.2,4,8.34,8.34,0,0,1,.83,4.4,17,17,0,0,0-7.27,6.42c-2.09,3.48-7.29,14-8.05,15.85-1.56.18-3.29.42-3.29.42a7.42,7.42,0,0,1-2.57-1.72,13.71,13.71,0,0,1-3.67-8c0-.22-.06-.45-.08-.68s0-.28,0-.41c-.2-2.18.87-1.09,1.56-1.39s8.25-12.5,8.61-13.49a16.58,16.58,0,0,0,.34-7.44A4.11,4.11,0,0,1,247.69,169Z"/><path class="cls-26" d="M249.08,165.4a1.78,1.78,0,0,0,.78,1.71,6.3,6.3,0,0,0-.8,1.67,2.9,2.9,0,0,0-1.36.26c.23-1,.12-3,1-3.77s2.67-.12,2.67-.12a2.71,2.71,0,0,0-.87.68C250.06,166.51,249.16,166,249.08,165.4Z"/><path class="cls-27" d="M257.68,172h0l-.6-.32a1.8,1.8,0,0,0,.18-.65,6.1,6.1,0,0,0-.11-3.45l6.33,2.76a1.08,1.08,0,0,1,.32,1.76l-4.18,4.14a15.75,15.75,0,0,0-2.2-4Z"/><path class="cls-27" d="M251.39,174.82a3.52,3.52,0,0,0,2.88-.42l.16.07-.81.62a2.49,2.49,0,0,0-.91,1.85c-.56,1-3.27,1.43-3.53,0s.77-1.31,1.22-1.35a4.22,4.22,0,0,0,0-1.34A3.3,3.3,0,0,0,251.39,174.82Z"/><path class="cls-27" d="M253.64,167.61a3.81,3.81,0,0,1,.23,4.74c-.89,1.12-.23,1.76.4,2.05a3.52,3.52,0,0,1-2.88.42,3.3,3.3,0,0,1-1-.53,5.06,5.06,0,0,1-1.31-5.51,6.3,6.3,0,0,1,.8-1.67.62.62,0,0,0,.23.07C250.84,167.27,252.85,166.83,253.64,167.61Z"/><polygon class="cls-27" points="198.65 182.97 197.93 186.87 196.16 186.16 196.55 182.4 198.65 182.97"/><path class="cls-28" d="M255.51,173.36c-.11.13-.24.25-.36.37"/><path d="M257.27,167.49a5.25,5.25,0,0,0-1.53-2.31,3.91,3.91,0,0,0-4.41-.13h0a2.86,2.86,0,0,0-.92.71.52.52,0,0,1-.59.25.8.8,0,0,1-.62-.62l-.11-.77-.13.77a1.93,1.93,0,0,0,.85,1.83.77.77,0,0,0,.27.08,7.1,7.1,0,0,0,.91,0c.86,0,2-.12,2.57.41a3.72,3.72,0,0,1,.22,4.58,1.58,1.58,0,0,0-.43,1.32,1.45,1.45,0,0,0,.88.91.15.15,0,0,0,.11,0l0,0,.06,0a2.56,2.56,0,0,1,.25-.16A.78.78,0,0,0,255,174s0,0,.07-.08a.79.79,0,0,0,.14-.13,2.79,2.79,0,0,1,.35-.37l.31-.29a4.94,4.94,0,0,0,1.27-1.46,1.9,1.9,0,0,0,.2-.67A6.3,6.3,0,0,0,257.27,167.49Z"/><path class="cls-29" d="M250.4,175.63c-.05.28-.16.49-.35.51"/><path class="cls-29" d="M257.42,172.16l.26-.21,1.58-1.22"/><ellipse class="cls-27" cx="254.39" cy="171.35" rx="1.17" ry="0.8" transform="translate(19.85 369) rotate(-74.08)"/><ellipse class="cls-30" cx="254.39" cy="171.35" rx="0.68" ry="0.47" transform="matrix(0.27, -0.96, 0.96, 0.27, 19.85, 369)"/><path class="cls-19" d="M196.56,172.35c.34-.28,1,0,1.2.41-.14-.19-.37-.12-.49.16a19,19,0,0,0-2.25,8.31c-.17.75-1.05,2.43-1.34,3.42a1.28,1.28,0,0,0,.42,1.53,1.27,1.27,0,0,1-1.62-.54c-.45-.67.47-3.07.64-3.52s1.83-5.18,1.91-5.94A13.54,13.54,0,0,1,196.56,172.35Z"/><path class="cls-25" d="M196.25,186.48a10.84,10.84,0,0,1-1.93-.18,1.19,1.19,0,0,1-.22-.12,1.28,1.28,0,0,1-.42-1.53c.29-1,1.17-2.67,1.34-3.42a19,19,0,0,1,2.25-8.31c.12-.28.35-.35.49-.16a21,21,0,0,1,.59,4.1,9.09,9.09,0,0,0,1.12,5.32,1.83,1.83,0,0,1-.17.53c-.28.56-.81.92-1.13.76s-.68-.66-1-.06a2.05,2.05,0,0,0,0,1.86c.28.38.57.51.3.95a2.25,2.25,0,0,0-.16.3c-.13.25-.16.38-.33.4S196.64,186.5,196.25,186.48Z"/><path class="cls-21" d="M197.76,172.76c-.19-.38-.86-.69-1.2-.41a13.54,13.54,0,0,0-1.53,3.83c-.08.76-1.74,5.48-1.91,5.94s-1.09,2.85-.64,3.52a1.27,1.27,0,0,0,1.62.54h0"/></g></g></svg>