<svg viewBox="0 0 400 300" fill="none" xmlns="http://www.w3.org/2000/svg"><path opacity=".302" d="M81.642 112.211c9.45-1.518 13.275-2.66 22.501-11.528 9.227-8.868 18.582 4.07 32.458-1.124 13.875-5.194 15.143-11.484 36.366 7.781 9.783 8.188 17.564 4.946 22.359 8.188 3.196 2.161 6.278 7.487 9.244 15.98H81.642c-9.788-3.397-14.682-6.219-14.682-8.464 0-3.369 5.232-9.316 14.682-10.833Z" fill="url(#a)"/><path fill-rule="evenodd" clip-rule="evenodd" d="M281.416 199.459c0 5.402-33.055 4.079-42.538 5.417-15.905 2.244 18.356 12.366-39.395 13.498-48.309.946-100.331-3.471-99.018-14.867 1.313-11.397 39.736-17.608 88.395-17.608 48.66 0 92.556 2.213 92.556 13.56Z" fill="url(#b)"/><path opacity=".302" d="M67.105 157.749v63.12l22.798 8.379v-65.521l-22.798-5.978Z" fill="url(#c)"/><path opacity=".302" d="m89.868 163.635 21.141-7.769v65.297l-21.141 7.99v-65.518Z" fill="url(#d)"/><path opacity=".302" d="m66.96 157.686 21.534-7.911 22.51 6.14-21.148 7.773-22.896-6.002Z" fill="url(#e)"/><path d="M259.312 84.644H123.638a2.018 2.018 0 0 0-2.018 2.019v101.165c0 1.114.903 2.018 2.018 2.018h135.674a2.019 2.019 0 0 0 2.019-2.018V86.663a2.019 2.019 0 0 0-2.019-2.019Z" fill="url(#f)"/><path d="M169.196 155.326h-29.11a1 1 0 0 0-1 1v3.138a1 1 0 0 0 1 1h29.11a1 1 0 0 0 1-1v-3.138a1 1 0 0 0-1-1ZM153.641 164.474h-13.555a1 1 0 0 0-1 1v3.138a1 1 0 0 0 1 1h13.555a1 1 0 0 0 1-1v-3.138a1 1 0 0 0-1-1ZM190.584 155.326h-14.527a1 1 0 0 0-1 1v3.138a1 1 0 0 0 1 1h14.527a1 1 0 0 0 1-1v-3.138a1 1 0 0 0-1-1ZM241.139 155.326h-45.638a1 1 0 0 0-1 1v3.138a1 1 0 0 0 1 1h45.638a1 1 0 0 0 1-1v-3.138a1 1 0 0 0-1-1ZM233.557 164.474h-57.5a1 1 0 0 0-1 1v3.138a1 1 0 0 0 1 1h57.5a1 1 0 0 0 1-1v-3.138a1 1 0 0 0-1-1Z" fill="#EBEBF2"/><path d="M193.833 144.489c9.731 0 17.621-7.889 17.621-17.621s-7.89-17.621-17.621-17.621c-9.732 0-17.622 7.889-17.622 17.621s7.89 17.621 17.622 17.621Z" fill="url(#g)"/><path d="M285.972 90.769h-49.11a.726.726 0 0 0-.726.726v36.718c0 .401.325.727.726.727h49.11a.727.727 0 0 0 .726-.727V91.495a.726.726 0 0 0-.726-.726Z" fill="url(#h)"/><path d="M253.216 115.007h-10.259a.5.5 0 0 0-.5.5v.865a.5.5 0 0 0 .5.5h10.259a.5.5 0 0 0 .5-.5v-.865a.5.5 0 0 0-.5-.5ZM247.587 118.327h-4.63a.5.5 0 0 0-.5.5v.864a.5.5 0 0 0 .5.5h4.63a.5.5 0 0 0 .5-.5v-.864a.5.5 0 0 0-.5-.5ZM260.957 115.007h-4.981a.5.5 0 0 0-.5.5v.865a.5.5 0 0 0 .5.5h4.981a.5.5 0 0 0 .5-.5v-.865a.5.5 0 0 0-.5-.5ZM279.254 115.007h-16.241a.5.5 0 0 0-.5.5v.865a.5.5 0 0 0 .5.5h16.241a.5.5 0 0 0 .5-.5v-.865a.5.5 0 0 0-.5-.5ZM279.254 118.327h-23.278a.5.5 0 0 0-.5.5v.864a.5.5 0 0 0 .5.5h23.278a.5.5 0 0 0 .5-.5v-.864a.5.5 0 0 0-.5-.5Z" fill="#EBEBF2"/><path d="M268.444 159.805a7.21 7.21 0 0 0-7.21-7.21 7.21 7.21 0 0 0-7.211 7.21v11.592a7.211 7.211 0 0 0 14.421 0v-11.592Z" stroke="#E2E2EA" stroke-width="3.877"/><path d="M280.969 164.155h-39.471a.97.97 0 0 0-.969.969v35.665a.97.97 0 0 0 .969.969h39.471a.97.97 0 0 0 .969-.969v-35.665a.97.97 0 0 0-.969-.969Z" fill="url(#i)"/><path d="M261.234 174.761a5.3 5.3 0 0 1 5.296 5.303 5.302 5.302 0 0 1-2.889 4.724v5.395a.97.97 0 0 1-.969.969h-2.877a.97.97 0 0 1-.969-.969v-5.394a5.304 5.304 0 0 1-2.889-4.725 5.3 5.3 0 0 1 5.297-5.303Z" fill="url(#j)"/><path fill-rule="evenodd" clip-rule="evenodd" d="M106.371 196.657c-.217 2.107-.149 3.463.204 4.069.529.909-.137 1.902-1.144 1.328-1.006-.575-1.84-3.671-2.243-4.365-.404-.693-1.736-2.322.989-2.865 1.817-.361 2.721-.291 2.712.212l.274 1.204-.792.417ZM151.529 198.771c2.091.604 3.499.818 4.224.639 1.087-.268 1.905.496 1.017 1.237-.887.74-4.304.83-5.134 1.035-.83.204-2.894 1.011-2.637-1.413.172-1.616.514-2.37 1.026-2.262l1.313.008.191.756Z" fill="#3E3E6E"/><path fill-rule="evenodd" clip-rule="evenodd" d="M137.06 123.912c1.205 1.751.998 5.92-.238 6.671-.526.32-1.64.603-2.706.374.106.553.205 1.026.297 1.417.274 1.164.74 1.953 1.399 2.366l-6.709-.356c1.061-.674 1.738-1.445 2.03-2.312.189-.559.324-1.475.405-2.746-1.088-1.163-1.828-2.732-1.758-4.182.172-3.559 6.074-2.984 7.28-1.232Z" fill="url(#k)"/><path fill-rule="evenodd" clip-rule="evenodd" d="M131.602 130.487c-.793-2.361-2.955-5.146-2.784-6.215.115-.713.54-1.165 1.275-1.357.271-1.414 1.472-2.043 3.603-1.888.474.034 1.157.475 1.636.432.857-.076 1.135-.156 1.727-.119.779.05 1.252.368 1.555.905.372.66.056 1.618-.833 2.256-.8.574-1.676.295-2.266.512-.396.146-.957 1.007-1.685 2.585l-.152-.483c-.376-.96-.828-1.323-1.356-1.088-.529.236-.631.658-.308 1.267.372 1.182.537 1.945.495 2.289-.042.344-.344.645-.907.904Z" fill="#353564"/><path fill-rule="evenodd" clip-rule="evenodd" d="M127.898 140.919c-5.34 3.568-8.578 8.357-9.716 14.367-.022 1.443 1.963 3.02.298 3.606-1.665.585-1.998-.998-2.037-3.007-.04-2.009-1.005-8.594 1.179-11.908 1.455-2.209 3.835-4.66 7.138-7.352l3.138 4.294Z" fill="url(#l)"/><path fill-rule="evenodd" clip-rule="evenodd" d="M136.694 140.679c.77 1.996 2.617 4.371 5.544 7.126 2.732 1.719 6.429.031 12.503-.827 3.637.08 5.076-2.327 4.019-2.908-1.058-.58-3.258.067-3.745.964-.324.598-3.852.238-10.582-1.08l-2.641-4.584-5.098 1.309Z" fill="url(#m)"/><path fill-rule="evenodd" clip-rule="evenodd" d="M138.282 146.689c4.148-2.607 6.149-4.131 6.003-4.573-.219-.663-2.662-4.498-4.013-5.648-1.35-1.15-3.955-3.753-4.926 0-.647 2.501.331 5.909 2.936 10.221ZM120.041 139.702c3.05 2.426 4.753 3.51 5.11 3.252.535-.387 6.683-3.634 7.331-5.164.647-1.531.647-4.695-2.023-5.128-1.78-.289-5.252 2.057-10.418 7.04Z" fill="#5B5BEA"/><path fill-rule="evenodd" clip-rule="evenodd" d="m148.8 198.472 3.013-.347c-.644-5.08-2.057-11.14-4.239-18.181-2.181-7.042-4.799-13.394-7.853-19.058h-14.832c3.151 4.903 5.775 8.707 7.872 11.413 2.892 3.733 6.443 8.574 8.455 11.948 4.2 7.044 6.728 11.786 7.584 14.225Z" fill="url(#n)"/><path fill-rule="evenodd" clip-rule="evenodd" d="m105.635 194.146.995 2.763c11.544-1.152 18.095-7.932 20.616-10.347 2.52-2.416 4.542-10.937 7.767-26.578l-12.384-1.356c-2.043 12.808-1.579 23.673-1.821 24.21-.241.538-6.241 8.082-15.173 11.308Z" fill="url(#o)"/><path fill-rule="evenodd" clip-rule="evenodd" d="M139.982 137.862c.293-1.125.329 2.51.106 10.906-.102 3.828 2.234 11.106-.019 12.742-3.077 2.235-19.276 2.074-19.276.617 0-4.956 1.395-12.424 4.096-18.65 2.163-4.984 1.982-10.046 5.332-10.791.834-.185 1.817.747 3.19 1.024 1.155.233 1.842-.294 2.712 0 2.139.722 3.426 2.106 3.859 4.152Z" fill="#5B5BEA"/><defs><linearGradient id="a" x1="135.765" y1="94.269" x2="135.765" y2="130.982" gradientUnits="userSpaceOnUse"><stop stop-color="#DCDCE4"/><stop offset="1" stop-color="#DEDEE6" stop-opacity="0"/></linearGradient><linearGradient id="b" x1="132.035" y1="202.073" x2="255.199" y2="214.332" gradientUnits="userSpaceOnUse"><stop stop-color="#EDEDF2"/><stop offset="1" stop-color="#F9F9FC" stop-opacity=".88"/></linearGradient><linearGradient id="c" x1="71.357" y1="165.662" x2="71.357" y2="227.242" gradientUnits="userSpaceOnUse"><stop stop-color="#EEE"/><stop offset="1" stop-color="#DEDEE6" stop-opacity="0"/></linearGradient><linearGradient id="d" x1="100.438" y1="155.866" x2="100.438" y2="229.153" gradientUnits="userSpaceOnUse"><stop stop-color="#DCDCE4"/><stop offset="1" stop-color="#DEDEE6" stop-opacity="0"/></linearGradient><linearGradient id="e" x1="88.982" y1="149.775" x2="88.982" y2="163.688" gradientUnits="userSpaceOnUse"><stop stop-color="#DCDCE4"/><stop offset="1" stop-color="#DEDEE6" stop-opacity="0"/></linearGradient><linearGradient id="f" x1="191.475" y1="84.644" x2="191.475" y2="189.846" gradientUnits="userSpaceOnUse"><stop stop-color="#FCFCFF"/><stop offset="1" stop-color="#FAFAFC"/></linearGradient><linearGradient id="g" x1="193.833" y1="110.161" x2="193.833" y2="143.607" gradientUnits="userSpaceOnUse"><stop stop-color="#EBEBF2"/><stop offset="1" stop-color="#F8F8FA"/></linearGradient><linearGradient id="h" x1="261.269" y1="99.206" x2="252.623" y2="122.673" gradientUnits="userSpaceOnUse"><stop stop-color="#FCFCFF"/><stop offset="1" stop-color="#F3F3F7"/></linearGradient><linearGradient id="i" x1="268.695" y1="169.955" x2="268.695" y2="201.758" gradientUnits="userSpaceOnUse"><stop stop-color="#F4F4F9"/><stop offset="1" stop-color="#E2E2E9"/></linearGradient><linearGradient id="j" x1="261.234" y1="188.318" x2="258.066" y2="178.303" gradientUnits="userSpaceOnUse"><stop stop-color="#F5B942"/><stop offset="1" stop-color="#FFD278"/></linearGradient><linearGradient id="k" x1="135.191" y1="126.103" x2="132.315" y2="131.336" gradientUnits="userSpaceOnUse"><stop stop-color="#FFD2C4"/><stop offset="1" stop-color="#FFB8A3"/></linearGradient><linearGradient id="l" x1="111.612" y1="160.965" x2="119.407" y2="139.589" gradientUnits="userSpaceOnUse"><stop stop-color="#FFD2C4"/><stop offset="1" stop-color="#FFB8A3"/></linearGradient><linearGradient id="m" x1="131.187" y1="141.433" x2="152.496" y2="151.339" gradientUnits="userSpaceOnUse"><stop stop-color="#FFD2C4"/><stop offset="1" stop-color="#FFB8A3"/></linearGradient><linearGradient id="n" x1="134.627" y1="196.679" x2="141.734" y2="163.057" gradientUnits="userSpaceOnUse"><stop stop-color="#7878C3"/><stop offset="1" stop-color="#5C5CBB"/></linearGradient><linearGradient id="o" x1="115.66" y1="195.084" x2="123.42" y2="160.812" gradientUnits="userSpaceOnUse"><stop stop-color="#7878C3"/><stop offset="1" stop-color="#5C5CBB"/></linearGradient></defs></svg>