<svg xmlns:xlink="http://www.w3.org/1999/xlink" xmlns="http://www.w3.org/2000/svg" version="1.1" viewBox="0 0 120 120" height="120px" width="120px">
    <title>Blankpage_wdtzsvg</title>
    <defs>
        <linearGradient id="linearGradient-1" y2="14.1046042%" x2="68.6124427%" y1="16.5971959%" x1="34.8533808%">
            <stop offset="0%" stop-color="#F9F9F9"></stop>
            <stop offset="100%" stop-color="#F2F2F2"></stop>
        </linearGradient>
        <linearGradient id="linearGradient-2" y2="37.3521252%" x2="50%" y1="11.5645529%" x1="26.6672555%">
            <stop offset="0%" stop-color="#EAEAEA"></stop>
            <stop offset="100%" stop-color="#E6E6E6"></stop>
        </linearGradient>
        <linearGradient id="linearGradient-3" y2="94.0079326%" x2="71.8864921%" y1="39.071642%" x1="37.0245616%">
            <stop offset="0%" stop-color="#E0E0E0"></stop>
            <stop offset="100%" stop-color="#F4F4F4"></stop>
        </linearGradient>
        <linearGradient id="linearGradient-4" y2="69.522682%" x2="70.1080061%" y1="35.3216738%" x1="19.842173%">
            <stop offset="0%" stop-color="#EBEBEB"></stop>
            <stop offset="100%" stop-color="#F5F5F5"></stop>
        </linearGradient>
        <linearGradient id="linearGradient-5" y2="81.1449522%" x2="54.1142829%" y1="19.1977216%" x1="54.1142829%">
            <stop offset="0%" stop-color="#DFDFDF"></stop>
            <stop offset="100%" stop-color="#EAEAEA"></stop>
        </linearGradient>
        <linearGradient id="linearGradient-6" y2="50%" x2="93.11882%" y1="39.4943203%" x1="12.3230927%">
            <stop offset="0%" stop-color="#F8F8F8"></stop>
            <stop offset="100%" stop-color="#EFEFEF"></stop>
        </linearGradient>
    </defs>
    <g fill-rule="evenodd" fill="none" stroke-width="1" stroke="none" id="调整">
        <g transform="translate(-1479.000000, -214.000000)" id="切图备份">
            <g transform="translate(1358.000000, 160.000000)" id="编组-3备份">
                <rect height="242" width="362" y="0" x="0" id="矩形备份-13"></rect>
                <g transform="translate(128.000000, 66.000000)" id="编组-2">
                    <g fill="#FA7268" transform="translate(40.000000, 0.000000)" id="编组-6">
                        <circle r="2.625" cy="3.5" cx="2.625" id="椭圆形"></circle>
                        <circle r="3.5" cy="3.5" cx="15.75" id="椭圆形备份-3"></circle>
                        <circle r="2.625" cy="3.5" cx="28.875" id="椭圆形备份-2"></circle>
                    </g>
                    <g fill-rule="nonzero" transform="translate(0.000000, 23.807362)" id="编组-7">
                        <path fill="#000000" fill-opacity="0.045" id="路径" d="M94.3921342,54.1991837 C99.494358,57.0138139 92.4000314,60.8563224 91.2565261,61.4212727 C84.9979585,64.5133261 73.7738048,69.2521123 57.584065,75.6376314 C55.5590119,76.6423046 54.3606071,75.4892504 52.245399,74.7206625 C49.230207,77.1076291 46.130738,77.9140924 42.9469919,77.1400524 C35.8969769,74.6870341 32.2818952,73.4605249 32.1017469,73.4605249 C27.768063,73.4605249 22.1922791,73.7198654 15.3743952,74.2385466 L14.3872908,74.3606862 L13.4332509,74.4718036 L12.523933,74.5685707 C12.3767545,74.5833177 12.2319251,74.5973282 12.0896877,74.6105327 L11.2693104,74.6795337 C10.3530251,74.7474574 9.5875488,74.7690946 9.05618389,74.7206625 L7.20773519,74.5490969 L5.63617674,74.391903 L4.81683463,74.300707 L4.0842762,74.2094536 L3.64172877,74.1476174 L3.04306248,74.0519089 L2.68529842,73.9852863 L2.35893999,73.9157319 L2.06255422,73.8426645 L1.79470813,73.7655028 C1.75236581,73.7522691 1.71115294,73.7388405 1.67103965,73.725205 L1.44331624,73.6408122 C0.762464019,73.3650916 0.457010157,73.0059293 0.322188028,72.4802675 L0.285045758,72.3086376 L0.257814447,72.1253572 L0.239061118,71.9298451 L0.227352792,71.7215199 L0.22125649,71.4998006 C0.0625101583,67.9227434 4.78452161,65.8884532 14.3872908,65.3969302 C15.9745701,63.713375 15.1706316,62.3881559 11.9754751,61.4212727 C0.322188028,57.8948827 5.54165456,52.1683567 14.0806173,51.0109698 C32.6902835,51.2779497 45.6483646,50.1751426 52.9548604,47.7025483 C65.9028275,43.3208214 89.2899104,51.3845535 94.3921342,54.1991837 Z"></path>
                        <polygon points="18.1399052 10.6752243 47.6410556 0.478890784 51.4972219 4.61852778e-14 51.4972219 44.7158789 19.1605117 54.6731911" fill="url(#linearGradient-1)" id="矩形"></polygon>
                        <polygon points="51.302799 -2.30926389e-13 55.7794683 0.373552828 96.3505861 11.4752808 94.6126709 55.0726688 51.4972219 44.7511047" fill="url(#linearGradient-2)" id="矩形"></polygon>
                        <path fill="url(#linearGradient-3)" id="路径-67" d="M18.1718896,11.7152048 L19.1083934,52.5899126 C19.1661363,55.1101599 20.7930902,57.3255401 23.1805524,58.134864 L58.638073,70.1545793 L58.638073,70.1545793 L62.1583885,70.4823494 L62.1583885,23.94837 L61.8733972,24.0838732 L19.4718477,10.7384294 C18.94504,10.5726222 18.3835646,10.865271 18.2177574,11.3920787 C18.1848765,11.4965489 18.1693809,11.6057111 18.1718896,11.7152048 Z"></path>
                        <path fill="url(#linearGradient-4)" id="路径-66" d="M14.7144345,29.4112185 L50.7824018,41.3763033 C52.7611298,42.0327209 54.9122246,41.0593022 55.7251915,39.13958 L62.1583885,23.94837 L62.1583885,23.94837 L60.7861812,23.7274521 L18.988729,10.5912661 C18.4976558,10.4369307 17.9696443,10.6806017 17.7684518,11.1544096 L12.2920748,24.0512663 C11.4286301,26.0846768 12.3770748,28.433042 14.4104853,29.2964867 C14.5102061,29.338831 14.6116061,29.3771065 14.7144345,29.4112185 Z"></path>
                        <path fill="url(#linearGradient-5)" id="矩形" d="M62.1583885,23.94837 L62.6341534,24.2121153 L96.3505861,12.4022078 L94.7875021,52.9295208 C94.699981,55.1987498 93.3388164,57.2241127 91.27076,58.162304 L65.218428,69.9811642 L65.218428,69.9811642 L62.1583885,70.4823494 L62.1583885,23.94837 Z"></path>
                        <path fill="url(#linearGradient-6)" id="矩形" d="M62.1583885,23.94837 L63.5241226,23.6504142 L95.4443096,11.4230909 C95.9491628,11.2297022 96.5163057,11.4725723 96.7247244,11.9714086 L102.349856,25.4347838 C103.189679,27.4448456 102.266595,29.7573536 100.273453,30.6365796 L74.5040663,42.0041188 C72.4827773,42.8941004 70.1220607,41.9791209 69.2285311,39.9593979 L62.1583885,23.94837 L62.1583885,23.94837 Z"></path>
                        <path fill="#FFDCD5" id="路径" d="M22.3179724,67.5915314 L19.4397696,68.3119641 C19.300005,68.3469481 19.1543312,68.3513178 19.012721,68.3247742 L18.0713534,68.1483226 C17.8694043,68.1104689 17.6744941,68.0417221 17.4934841,67.9445021 L15.2832993,66.7574178 C14.9796891,66.5943496 14.6013715,66.7082814 14.4383033,67.0118915 C14.3274112,67.2183572 14.3415552,67.4695485 14.4749241,67.6622604 L15.5081866,69.1552765 C15.7999075,69.5767995 16.1699332,69.9383194 16.5981252,70.2201604 L18.5155239,71.482215 C18.9258353,71.7522869 19.471545,71.6843586 19.8031258,71.3219385 L20.5473785,70.5084648 L20.5473785,70.5084648 L23.3870968,69.7934568 L22.3179724,67.5915314 Z"></path>
                        <polygon points="44.2866581 60.5150124 38.719444 55.0726688 35.5368051 57.5473402 29.2580645 65.1453544 29.969591 66.2666899 37.6040781 61.0660134 42.7770679 67.8713595 47.7096774 65.3870216" fill="#2F2E41" id="路径"></polygon>
                        <polygon points="44.2866581 60.5150124 38.719444 55.0726688 35.5368051 57.5473402 29.2580645 65.1453544 29.969591 66.2666899 37.6040781 61.0660134 42.7770679 67.8713595 47.7096774 65.3870216" fill="#FF7268" id="路径"></polygon>
                        <path fill="#FFDCD5" id="路径" d="M44.3548387,64.3098947 L43.6495602,64.8849983 L37.8929618,62.8324733 L36.5491202,62.2573697 L33.8709677,62.8324733 C33.8709677,62.8324733 33.8709677,60.5320588 36.3966275,60.621299 L38.9985336,61.2757273 L42.0769795,61.5236168 L44.3548387,64.3098947 L44.3548387,64.3098947 Z"></path>
                        <path fill="#FA7268" id="路径" d="M52.4085199,65.3116213 C53.4695067,64.4583753 53.7204302,65.5960368 53.1612903,68.7246055 C52.6021505,71.8531744 50.2226296,72.7064204 46.0227274,71.2843436 L36.4824046,67.6667156 L22.5197947,70.2340645 L22.1290323,67.1804755 L34.9002932,61.4720142 L46.0989736,65.245239 L49.3870968,61.4720142 L52.4085199,65.3116213 Z"></path>
                        <path fill="#FFD4CB" id="路径" d="M38.6121262,56.1068542 L38.4307544,56.1519117 C38.0157183,56.2550174 37.5780222,56.2148992 37.1886449,56.0380628 L37.1886449,56.0380628 L37.1886449,56.0380628 C36.7738556,55.5368682 36.6890123,54.8292993 36.9718231,54.2298312 L40.6063263,49.7583888 C40.6063263,49.7583888 41.5396022,47.5668907 43.0196457,48.4611791 C44.4996892,49.3554676 41.7752779,50.8197422 41.7752779,50.8197422 L39.7810776,53.512435 L39.9413372,54.8980907 L38.6121262,56.1068542 Z"></path>
                        <path fill="#FFD0C7" id="路径" d="M44.7741935,49.911423 L46.1352283,53.3661768 L49.3870968,51.9202264 C49.3870968,51.9202264 48.3274993,49.1933001 48.3274993,49.1059608 C48.3274993,49.0186215 44.7741935,49.911423 44.7741935,49.911423 L44.7741935,49.911423 Z"></path>
                        <path fill="#FFDCD5" id="路径" d="M42.6774193,47.606766 C42.677265,48.7498466 43.2766957,49.8061638 44.2498755,50.3777494 C45.223055,50.949335 46.4221063,50.949335 47.3952858,50.3777494 C48.3684656,49.8061638 48.9678963,48.7498466 48.967742,47.606766 C48.9678963,46.4636853 48.3684656,45.4073681 47.3952858,44.8357825 C46.4221063,44.2641969 45.223055,44.2641969 44.2498755,44.8357825 C43.2766957,45.4073681 42.677265,46.4636853 42.6774193,47.606766 L42.6774193,47.606766 Z"></path>
                        <path fill="#FFFFFF" id="路径" d="M54,59.9885296 C54,61.8792452 53.7365785,63.0233706 53.1612903,64.8171266 L52.8973643,65.3891893 L45.6199681,65.3891893 L45.2843834,64.8171266 L44.0954543,58.8056203 L39.5698536,56.2458822 L38.0645161,56.0034827 L38.3809246,55.1211487 L39.732852,53.278913 L41.0847793,53.1140813 L41.477893,52.794114 L41.7943015,52.9589457 L43.0599355,52.2414433 L43.4530493,52.406275 L45.7733784,52.6292824 L47.1828346,52.3287071 L49.2059315,51.2330616 L50.0400994,51.3688053 L52.8973643,53.7734078 C53.6260628,55.7513873 54,57.8651105 54,59.9885296 Z"></path>
                        <polygon points="53.1612903 59.1772494 50.9022404 62.3180428 45.6325455 65.3116213 44.5522194 63.8387337 44.3548387 59.6052055 46.392849 55.9373074" opacity="0.1" fill="#000000" id="路径"></polygon>
                        <polygon points="47.0177776 55.0726688 44.5487991 59.6362058 43.6711547 59.6362058 43.1117766 61.23151 41.8387097 61.5602393 45.2624882 65.3116213 50.132934 60.9124492 53.1612903 58.920736" fill="#FFFFFF" id="路径"></polygon>
                        <path fill="#2F2E41" id="路径" d="M43.7365539,45.2257844 L43.4055743,45.3551326 C43.1975301,45.2058846 43.1407907,44.9073886 43.2826392,44.6785417 C43.2826392,44.6785417 43.2826392,44.6685918 43.2920956,44.6685918 L42.6774194,44.6387422 C44.2093819,42.4995207 47.1856505,41.774222 49.2188109,43.3861005 C49.3701158,43.5054989 49.5119643,43.6348472 49.6443561,43.7641954 C49.6727256,43.6646968 49.9753356,43.8636941 50.0982708,44.0626915 C50.136097,43.9034936 50.4197937,44.6895331 50.5238159,45.2566755 C50.5710988,45.067628 50.7507733,45.3760739 50.5900119,45.6646201 C50.6940339,45.6447204 50.7318602,45.9133668 50.6562077,46.0626148 C50.7602299,46.0128654 50.7507733,46.3312612 50.6278381,46.5402084 C50.779143,46.5302585 51.7619543,48.7679371 48.7674434,50.3798156 C48.6066818,49.5937761 48.4270071,48.7679371 47.8974398,48.1908448 C47.8123309,48.0913461 47.7083086,48.0017973 47.6137431,47.9122485 L47.0841757,47.424705 C46.4694994,46.8575626 45.9210192,46.1610719 45.1077549,45.9421748 C44.549818,45.7929267 44.1904688,45.7630772 44.5025353,45.0964361 C44.228295,45.2158345 43.9729679,45.3949321 43.6892712,45.5043806 C43.6987277,45.4247817 43.7365539,45.3153331 43.7365539,45.2257844 Z"></path>
                        <path fill="#FFCBC1" id="路径" d="M46.8709677,48.033389 C46.8709677,48.3868151 47.1525951,48.6733235 47.5,48.6733235 C47.8474049,48.6733235 48.1290323,48.3868151 48.1290323,48.033389 C48.1290323,47.6799629 47.8474049,47.3934544 47.5,47.3934544 C47.1525951,47.3934544 46.8709677,47.6799629 46.8709677,48.033389 Z"></path>
                    </g>
                </g>
            </g>
        </g>
    </g>
</svg>