<?xml version="1.0" encoding="utf-8"?>
<!-- Generator: Adobe Illustrator 24.0.1, SVG Export Plug-In . SVG Version: 6.00 Build 0)  -->
<svg version="1.1" id="图层_1" xmlns="http://www.w3.org/2000/svg" xmlns:xlink="http://www.w3.org/1999/xlink" x="0px" y="0px"
	 viewBox="0 0 1024 1024" style="enable-background:new 0 0 1024 1024;" xml:space="preserve">
<style type="text/css">
	.st0{fill:url(#SVGID_1_);}
	.st1{fill:url(#SVGID_2_);}
	.st2{fill:url(#SVGID_3_);}
	.st3{opacity:0.6;}
	.st4{fill:#7AA1F8;}
	.st5{fill:#75A2F2;}
	.st6{fill:url(#SVGID_4_);}
	.st7{fill:url(#SVGID_5_);}
	.st8{fill:url(#SVGID_6_);}
	.st9{opacity:0.6;fill:#DEE9FD;}
	.st10{fill:#DEE9FD;stroke:#FFFFFF;stroke-width:2;stroke-miterlimit:10;}
	.st11{fill-rule:evenodd;clip-rule:evenodd;fill:#F5986A;}
	.st12{fill-rule:evenodd;clip-rule:evenodd;fill:#F8AD72;}
	.st13{fill-rule:evenodd;clip-rule:evenodd;fill:#272B73;}
	.st14{fill-rule:evenodd;clip-rule:evenodd;fill:#262A71;}
	.st15{fill-rule:evenodd;clip-rule:evenodd;fill:#2B3682;}
	.st16{fill-rule:evenodd;clip-rule:evenodd;fill:#7AA1F8;}
	.st17{fill-rule:evenodd;clip-rule:evenodd;fill:#EF8D61;}
	.st18{fill-rule:evenodd;clip-rule:evenodd;fill:#151145;}
	.st19{fill-rule:evenodd;clip-rule:evenodd;fill:#27327B;}
</style>
<linearGradient id="SVGID_1_" gradientUnits="userSpaceOnUse" x1="511.4615" y1="492.6213" x2="511.4615" y2="844.7413">
	<stop  offset="4.528621e-07" style="stop-color:#D0DDF8"/>
	<stop  offset="1" style="stop-color:#FFFFFF"/>
</linearGradient>
<ellipse class="st0" cx="511.46" cy="668.68" rx="370.98" ry="176.06"/>
<linearGradient id="SVGID_2_" gradientUnits="userSpaceOnUse" x1="699.7286" y1="794.0543" x2="517.1913" y2="477.8905">
	<stop  offset="0" style="stop-color:#FFFFFF;stop-opacity:0"/>
	<stop  offset="1" style="stop-color:#9DB9E0"/>
</linearGradient>
<polygon class="st1" points="849.49,707.59 585.97,803.13 367.43,564.36 656.87,545.96 "/>
<linearGradient id="SVGID_3_" gradientUnits="userSpaceOnUse" x1="511.4615" y1="178.0279" x2="511.4615" y2="561.4163">
	<stop  offset="4.528621e-07" style="stop-color:#D0DDF8"/>
	<stop  offset="1" style="stop-color:#FFFFFF;stop-opacity:0"/>
</linearGradient>
<path class="st2" d="M727.99,228.76v332.66H294.94c0.72-165.43,1.39-190.87,2.12-356.36h96.99c0.18,29.51,0.18,42.33,0,42.81v0.06
	c0,0,0.12-0.06,0.18-0.12v-0.18c0-8.71,7.01-15.72,15.72-15.72c8.71,0,15.72,7.01,15.72,15.72v9.31h69.29v-78.91h62.16v113.74
	c-0.06,0.24-0.06,0.42-0.06,0.67v38.27c0,5.62,4.53,10.16,10.16,10.16c5.56,0,10.1-4.53,10.1-10.16v-29.81
	c19.53-0.06,33.68-0.12,43.05-0.12c9.37,0,13.97,0.06,14.39,0.12c1.51-0.18,0-23.1,0-23.1h29.57v27.15c0,4.11,3.33,7.44,7.44,7.44
	c4.11,0,7.44-3.33,7.44-7.44v-76.19H727.99z"/>
<g class="st3">
	<g>
		<path class="st4" d="M326.05,211.44c-6.42,0-11.65-5.22-11.65-11.65s5.22-11.65,11.65-11.65s11.65,5.22,11.65,11.65
			S332.47,211.44,326.05,211.44z M326.05,194.62c-2.85,0-5.17,2.32-5.17,5.17c0,2.85,2.32,5.17,5.17,5.17
			c2.85,0,5.17-2.32,5.17-5.17C331.22,196.94,328.9,194.62,326.05,194.62z"/>
	</g>
	<g>
		<circle class="st4" cx="323.94" cy="381.09" r="8.41"/>
	</g>
	<g>
		<circle class="st4" cx="648.35" cy="486.9" r="17.62"/>
	</g>
	<g>
		<circle class="st4" cx="632.64" cy="305.28" r="6.95"/>
	</g>
	<g>
		<circle class="st4" cx="732.81" cy="250.23" r="5.99"/>
	</g>
	<g>
		<circle class="st4" cx="796.89" cy="386.39" r="8.28"/>
	</g>
	<g>
		<circle class="st4" cx="678.73" cy="620.91" r="7.83"/>
	</g>
	<g>
		<path class="st4" d="M568.56,219.85c-6.42,0-11.65-5.22-11.65-11.65s5.22-11.65,11.65-11.65s11.65,5.22,11.65,11.65
			S574.98,219.85,568.56,219.85z M568.56,203.03c-2.85,0-5.17,2.32-5.17,5.17c0,2.85,2.32,5.17,5.17,5.17
			c2.85,0,5.17-2.32,5.17-5.17C573.73,205.35,571.41,203.03,568.56,203.03z"/>
	</g>
	<g>
		<path class="st4" d="M452.4,677.61c-6.42,0-11.65-5.22-11.65-11.65s5.22-11.65,11.65-11.65s11.65,5.22,11.65,11.65
			S458.82,677.61,452.4,677.61z M452.4,660.8c-2.85,0-5.17,2.32-5.17,5.17c0,2.85,2.32,5.17,5.17,5.17c2.85,0,5.17-2.32,5.17-5.17
			C457.57,663.11,455.25,660.8,452.4,660.8z"/>
	</g>
	<g>
		<path class="st4" d="M243.79,484.78H221.3c-1.96,0-3.55-1.59-3.55-3.55v0c0-1.96,1.59-3.55,3.55-3.55h22.48
			c1.96,0,3.55,1.59,3.55,3.55v0C247.34,483.19,245.75,484.78,243.79,484.78z"/>
	</g>
	<g>
		<path class="st4" d="M228.86,492.33v-22.2c0-2.04,1.65-3.69,3.69-3.69h0c2.04,0,3.69,1.65,3.69,3.69v22.2
			c0,2.04-1.65,3.69-3.69,3.69h0C230.51,496.03,228.86,494.37,228.86,492.33z"/>
	</g>
	<g>
		<path class="st4" d="M243.86,333.61h-14.6c-1.27,0-2.3-1.03-2.3-2.3l0,0c0-1.27,1.03-2.3,2.3-2.3h14.6c1.27,0,2.3,1.03,2.3,2.3
			l0,0C246.17,332.58,245.14,333.61,243.86,333.61z"/>
	</g>
	<g>
		<path class="st4" d="M234.17,338.52V324.1c0-1.32,1.07-2.4,2.4-2.4h0c1.32,0,2.4,1.07,2.4,2.4v14.41c0,1.32-1.07,2.4-2.4,2.4h0
			C235.24,340.91,234.17,339.84,234.17,338.52z"/>
	</g>
	<g>
		<path class="st4" d="M435,289.66c-6.67-9.69-13.34-19.37-20.01-29.06c1.13-2.15,2.26-4.3,3.39-6.44
			c4.97,0.26,9.95,0.53,14.92,0.79C433.86,266.52,434.43,278.09,435,289.66z"/>
	</g>
	<g>
		<path class="st4" d="M427.59,294.06c-9.25-1.7-18.49-3.41-27.74-5.11c-0.57-1.85-1.15-3.71-1.73-5.56
			c2.96-2.66,5.92-5.33,8.88-7.99C413.87,281.62,420.73,287.84,427.59,294.06z"/>
	</g>
	<g>
		<path class="st4" d="M439.59,285.06c0.69-8.3,1.39-16.6,2.08-24.9c1.58-0.67,3.17-1.34,4.75-2.01c2.61,2.38,5.21,4.76,7.82,7.13
			C449.35,271.87,444.47,278.47,439.59,285.06z"/>
	</g>
</g>
<g>
	<path class="st5" d="M489.88,469.21l-3.03,19.29c-0.3,1.89,0.52,3.4,1.78,4.09l4.34,2.36c-1.26-0.69-2.08-2.19-1.78-4.09
		l3.03-19.29c0.23-1.41-0.2-2.77-1.13-3.62l-4.34-2.36C489.68,466.44,490.11,467.8,489.88,469.21z"/>
	<path class="st5" d="M543.69,437.84c-0.04-0.02-0.08-0.04-0.12-0.06c-0.18-0.09-0.36-0.15-0.56-0.21
		c-0.02-0.01-0.03-0.01-0.05-0.02c0,0,0,0-0.01,0c-0.26-0.07-0.53-0.1-0.82-0.11l-17.55-0.28c-0.28-0.01-0.55-0.04-0.8-0.11
		c-0.02-0.01-0.04-0.02-0.06-0.02c-0.24-0.07-0.47-0.15-0.68-0.27c0,0,0,0,0,0l4.34,2.36c0.04,0.02,0.08,0.04,0.12,0.06
		c0.18,0.09,0.37,0.16,0.57,0.21c0.02,0.01,0.04,0.02,0.05,0.02c0,0,0,0,0.01,0c0.25,0.07,0.52,0.1,0.8,0.11l17.55,0.28h0
		c0.29,0,0.57,0.04,0.83,0.11c0.02,0,0.03,0.01,0.05,0.02c0.24,0.07,0.47,0.15,0.68,0.27L543.69,437.84z"/>
	<path class="st5" d="M512.27,417.6c-0.04-0.02-0.09-0.03-0.14-0.05c-0.13-0.06-0.25-0.1-0.39-0.14c-0.03-0.01-0.06-0.03-0.1-0.04
		c-0.04-0.01-0.08-0.01-0.12-0.02c-0.15-0.03-0.29-0.05-0.44-0.07c-0.07-0.01-0.13-0.01-0.19-0.02c-0.21-0.01-0.43,0-0.64,0.03h0
		c-0.19,0.03-0.38,0.07-0.56,0.12c-0.06,0.02-0.12,0.04-0.18,0.06c-0.13,0.04-0.25,0.09-0.37,0.14c-0.02,0.01-0.04,0.01-0.06,0.02
		c-0.04,0.02-0.08,0.05-0.12,0.07c-0.14,0.07-0.28,0.15-0.42,0.24c-0.03,0.02-0.07,0.04-0.11,0.06c-0.03,0.02-0.07,0.06-0.1,0.08
		c-0.08,0.06-0.16,0.12-0.24,0.19c-0.04,0.04-0.09,0.07-0.13,0.1c-0.03,0.03-0.07,0.07-0.1,0.1c-0.06,0.06-0.12,0.12-0.18,0.18
		c-0.04,0.04-0.08,0.07-0.11,0.11c-0.04,0.05-0.08,0.1-0.11,0.15c-0.05,0.06-0.1,0.13-0.15,0.2c-0.03,0.03-0.05,0.06-0.08,0.1
		c-0.04,0.06-0.08,0.13-0.11,0.19c-0.05,0.08-0.11,0.16-0.15,0.25c-0.02,0.03-0.04,0.06-0.06,0.09c-0.07,0.13-0.14,0.27-0.2,0.42
		l-7.87,18.26c-0.07,0.15-0.14,0.3-0.22,0.44c-0.08,0.14-0.16,0.28-0.25,0.41c-0.02,0.03-0.03,0.06-0.05,0.08
		c-0.11,0.15-0.22,0.3-0.34,0.43c-0.03,0.03-0.06,0.06-0.09,0.09c-0.1,0.1-0.19,0.21-0.3,0.3c-0.04,0.04-0.08,0.07-0.12,0.1
		c-0.11,0.09-0.21,0.18-0.32,0.26c-0.05,0.03-0.1,0.06-0.14,0.09c-0.15,0.1-0.31,0.19-0.47,0.27c-0.04,0.02-0.09,0.05-0.13,0.07
		c-0.17,0.08-0.35,0.15-0.54,0.21l-17.56,5.22c-0.21,0.06-0.4,0.14-0.59,0.23c0,0-0.01,0-0.01,0c-0.02,0.01-0.04,0.03-0.06,0.04
		c-0.18,0.09-0.36,0.19-0.53,0.3c-0.02,0.01-0.04,0.02-0.06,0.03c-0.06,0.04-0.12,0.1-0.18,0.15c-0.08,0.06-0.16,0.12-0.23,0.18
		c-0.02,0.02-0.04,0.03-0.06,0.04c-0.07,0.06-0.13,0.13-0.19,0.19c-0.05,0.06-0.11,0.11-0.16,0.17c-0.01,0.01-0.02,0.02-0.04,0.04
		c-0.07,0.08-0.12,0.16-0.19,0.24c-0.05,0.06-0.1,0.12-0.14,0.18c-0.01,0.01-0.01,0.02-0.02,0.03c-0.04,0.06-0.08,0.13-0.12,0.2
		c-0.06,0.1-0.13,0.19-0.18,0.29c-0.01,0.01-0.01,0.02-0.02,0.03c-0.02,0.04-0.03,0.08-0.05,0.12c-0.08,0.16-0.15,0.31-0.21,0.47
		c-0.01,0.03-0.03,0.06-0.04,0.09c-0.02,0.05-0.03,0.1-0.05,0.16c-0.04,0.11-0.07,0.22-0.1,0.33c-0.02,0.09-0.04,0.18-0.06,0.27
		c-0.02,0.11-0.04,0.22-0.06,0.33c-0.01,0.09-0.02,0.18-0.03,0.27c-0.01,0.11-0.01,0.22-0.01,0.33c0,0.09,0,0.18,0,0.26
		c0.01,0.11,0.02,0.22,0.03,0.33c0.01,0.09,0.02,0.17,0.04,0.26c0.02,0.11,0.05,0.22,0.08,0.33c0.02,0.08,0.04,0.16,0.07,0.24
		c0.04,0.11,0.09,0.22,0.14,0.32c0.03,0.07,0.06,0.14,0.1,0.21c0.06,0.11,0.14,0.22,0.21,0.33c0.04,0.05,0.07,0.11,0.11,0.17
		c0.12,0.16,0.26,0.31,0.41,0.45h0l12.67,11.57l4.34,2.36l-12.67-11.57l-2.17-1.18l2.17,1.18c-0.15-0.14-0.29-0.29-0.41-0.45
		c-0.04-0.05-0.07-0.11-0.11-0.16c-0.07-0.11-0.15-0.22-0.21-0.33c-0.04-0.07-0.06-0.14-0.1-0.21c-0.05-0.11-0.1-0.21-0.14-0.32
		c-0.03-0.08-0.05-0.16-0.07-0.24c-0.03-0.11-0.06-0.22-0.08-0.33c-0.02-0.08-0.03-0.17-0.04-0.25c-0.01-0.11-0.03-0.22-0.03-0.33
		c0-0.09,0-0.18,0-0.26c0-0.11,0-0.22,0.01-0.34c0.01-0.09,0.02-0.18,0.03-0.27c0.02-0.11,0.03-0.22,0.06-0.33
		c0.02-0.09,0.04-0.18,0.06-0.26c0.03-0.11,0.06-0.22,0.1-0.33c0.03-0.08,0.05-0.16,0.09-0.24c0.06-0.16,0.13-0.32,0.21-0.47
		c0.03-0.05,0.05-0.11,0.08-0.16c0.05-0.1,0.12-0.19,0.18-0.29c0.05-0.08,0.09-0.15,0.14-0.23c0.04-0.06,0.09-0.12,0.14-0.18
		c0.07-0.09,0.14-0.19,0.22-0.28c0.05-0.06,0.11-0.11,0.16-0.16c0.08-0.08,0.16-0.16,0.25-0.24c0.07-0.06,0.15-0.12,0.23-0.18
		c0.08-0.06,0.16-0.12,0.24-0.18c0.17-0.11,0.34-0.21,0.53-0.3c0.02-0.01,0.05-0.03,0.07-0.04c0.19-0.09,0.39-0.16,0.59-0.23
		l17.56-5.22c0.18-0.06,0.36-0.13,0.54-0.21c0.02-0.01,0.03-0.01,0.05-0.02c0.03-0.01,0.06-0.04,0.09-0.05
		c0.16-0.08,0.32-0.17,0.47-0.27c0.03-0.02,0.06-0.03,0.09-0.05c0.02-0.01,0.04-0.03,0.06-0.04c0.11-0.08,0.22-0.17,0.32-0.25
		c0.03-0.03,0.07-0.05,0.1-0.08c0.01-0.01,0.01-0.02,0.02-0.02c0.1-0.09,0.2-0.2,0.3-0.3c0.03-0.03,0.06-0.05,0.08-0.08
		c0,0,0-0.01,0.01-0.01c0.12-0.14,0.24-0.28,0.34-0.43c0,0,0,0,0.01-0.01c0.02-0.03,0.03-0.05,0.05-0.08
		c0.09-0.13,0.17-0.27,0.25-0.41c0.01-0.01,0.02-0.02,0.02-0.04c0.07-0.13,0.14-0.27,0.2-0.41l7.87-18.26
		c0.08-0.18,0.17-0.35,0.26-0.51c0.05-0.09,0.1-0.17,0.15-0.25c0.06-0.1,0.13-0.2,0.19-0.29c0.05-0.07,0.1-0.13,0.15-0.19
		c0.07-0.09,0.15-0.18,0.23-0.26c0.06-0.06,0.12-0.12,0.18-0.18c0.08-0.07,0.15-0.14,0.23-0.21c0.08-0.06,0.16-0.13,0.24-0.19
		c0.07-0.05,0.14-0.1,0.21-0.14c0.14-0.09,0.28-0.17,0.42-0.24c0.06-0.03,0.12-0.06,0.18-0.09c0.12-0.06,0.25-0.1,0.37-0.14
		c0.06-0.02,0.12-0.05,0.18-0.06c0.19-0.05,0.38-0.1,0.56-0.12c0.22-0.03,0.43-0.04,0.64-0.03c0.07,0,0.13,0.01,0.19,0.02
		c0.15,0.01,0.3,0.03,0.44,0.07c0.07,0.02,0.14,0.03,0.21,0.05c0.13,0.04,0.26,0.09,0.39,0.14c0.08,0.04,0.17,0.07,0.25,0.11
		l-4.34-2.36C512.35,417.64,512.31,417.62,512.27,417.6z"/>
</g>
<g>
	<linearGradient id="SVGID_4_" gradientUnits="userSpaceOnUse" x1="532.2327" y1="366.1122" x2="641.0978" y2="554.6722">
		<stop  offset="4.475343e-07" style="stop-color:#DFE7F8"/>
		<stop  offset="1" style="stop-color:#4D82F8"/>
	</linearGradient>
	<polygon class="st6" points="656.19,545.96 517.14,593.1 517.14,374.83 656.19,327.68 	"/>
	<linearGradient id="SVGID_5_" gradientUnits="userSpaceOnUse" x1="369.5063" y1="345.1288" x2="514.3784" y2="596.0547">
		<stop  offset="4.475343e-07" style="stop-color:#CEDBF8"/>
		<stop  offset="1" style="stop-color:#92B2F8"/>
	</linearGradient>
	<polygon class="st7" points="366.75,565 517.14,594.46 517.14,376.19 366.75,346.72 	"/>
	<linearGradient id="SVGID_6_" gradientUnits="userSpaceOnUse" x1="366.7249" y1="338.4985" x2="656.1982" y2="338.4985">
		<stop  offset="4.475343e-07" style="stop-color:#CEDBF8"/>
		<stop  offset="1" style="stop-color:#92B2F8"/>
	</linearGradient>
	<polygon class="st8" points="656.2,327.66 517.12,376.21 483.12,369.56 410.69,355.35 366.72,346.75 512.88,300.78 546.29,307.03 
		608.4,318.7 	"/>
	<path class="st9" d="M608.4,318.7c-41.78,16.97-83.51,33.89-125.29,50.86c0,15.26-0.06,30.7-0.06,46.03c0,0.06,0,0.06,0,0.06
		c0,4.18-7.07,8.55-9.19,6.42c-1.06-1.06-0.06-2.83-1.24-4.89c-1.36-2.36-4.24-3.06-6.42-2.71c-4.71,0.88-5.83,7.07-8.31,6.48
		c-2.89-0.65-2.42-9.13-5.72-10.25c-2.89-1-4.83,5.24-8.49,4.66c-3.83-0.53-4.07-7.66-8.37-8.66c-3.6-0.88-5.01,3.89-8.49,3.12
		c-4.71-1.06-5.25-10.37-9.61-11.14c-1.47-0.29-3.65,0.41-6.54,4.42v-47.73c45.2-16.15,90.4-32.24,135.6-48.32L608.4,318.7z"/>
	<path class="st10" d="M599.37,419.66c1.41-0.2,2.82,0.4,3.55,1.88l7.81,16.06c0.57,1.18,1.69,1.9,2.98,1.92l17.55,0.28
		c3.24,0.05,4.53,4.18,2.18,6.98l-12.72,15.14c-0.94,1.11-1.37,2.59-1.14,3.94l2.96,18.44c0.43,2.7-1.61,5.23-3.91,5.55
		c-0.61,0.09-1.24,0.02-1.84-0.24l-15.68-6.7c-0.58-0.25-1.21-0.32-1.84-0.23c-0.63,0.09-1.27,0.34-1.84,0.75l-15.71,11.11
		c-0.61,0.43-1.23,0.68-1.84,0.76c-2.3,0.32-4.33-1.63-3.89-4.46l3.03-19.29c0.23-1.41-0.2-2.77-1.13-3.62l-12.67-11.57
		c-2.34-2.14-1.04-6.63,2.21-7.6l17.56-5.22c1.29-0.39,2.41-1.42,2.98-2.76l7.87-18.26C596.54,420.85,597.96,419.86,599.37,419.66z"
		/>
</g>
<g>
	<path id="圆角矩形-5_8_" class="st11" d="M503.24,305.12c1.73,0,3.14,1.52,3.14,3.4v10.46c0,1.88-1.4,3.4-3.14,3.4
		s-3.14-1.52-3.14-3.4v-10.46C500.1,306.65,501.5,305.12,503.24,305.12z"/>
	<path id="Combined-shape-564_8_" class="st12" d="M499.05,299.37c5.6-0.38,6.46,3.35,6.31,6.22c0.3-0.25,0.67-0.49,1.01-0.47
		c1.16,0.07,1.05,1.57,1.05,1.57s0.15,0.62-0.52,1.57c-0.5,0.72-1.9,1.3-2.42,1.5l-0.2,0.6c0,0-0.83,1.77-1.57,2.61
		c-1.04,1.19-1.57,1.57-1.57,1.57s-1,0.77-2.09,1.05c-1,0.25-2.09,0-2.09,0s-1.32-0.16-1.57-2.09c-0.15-1.19-0.21-2.68-0.21-4.16
		l0-0.37c0.02-2.81,0.21-5.41,0.21-5.41S495.72,299.6,499.05,299.37z"/>
	<path id="形状-17_8_" class="st13" d="M501.14,304.08c0,0-3.42,0.65-5.23,0c-1.85-0.66-2.09-2.61-2.09-2.61s-0.05-1.46,0.52-2.61
		c0.45-0.91,1.57-1.57,1.57-1.57s0.95-0.7,2.09-0.52c0.91,0.14,1.57,1.05,1.57,1.05s1.19,1.18,2.09,1.57c0.93,0.4,2.09,0,2.09,0
		s1.82-0.42,3.14,1.05c2,2.23,1.57,5.23,1.57,5.23s-0.33,1.95-1.05,3.66c-0.58,1.4-1.57,2.09-1.57,2.09s-0.52,0.38-1.05,0
		c-0.59-0.43,0-1.05,0-1.05l0.52-1.05c0,0,2.06,0,2.09-3.14c0.01-0.52-1.05-0.52-1.05-0.52s-0.6-0.01-1.05,0.52
		c-0.25,0.29-0.52,1.57-0.52,1.57s-0.22-2.55-1.05-3.14C502.77,303.9,501.14,304.08,501.14,304.08z"/>
	<path id="形状-30-拷贝_7_" class="st14" d="M462.28,370.17l-0.19,5.75l-15.68-0.52c0,0-0.09-1.74,1.67-3.08
		c1.76-1.34,5.26-0.87,5.26-0.87s1.22,0.1,2.11-0.45c0.69-0.43,1.08-1.01,1.08-1.01L462.28,370.17z"/>
	<path id="形状-30_8_" class="st15" d="M479.29,372.35v5.75H463.6c0,0-0.15-1.73,1.57-3.14c1.71-1.4,5.23-1.05,5.23-1.05
		s1.22,0.06,2.09-0.52c0.67-0.45,1.05-1.05,1.05-1.05H479.29z"/>
	<path class="st16" d="M517.35,362.9v-36.33c0,0,0.04-1.99-1.04-3.66c-1.07-1.66-3.14-2.62-3.14-2.62l-6.8-3.66
		c0,0-0.57,1.5-1.57,2.61c-1.31,1.46-3.14,2.62-3.14,2.62s-0.7-0.36-1.04-1.05c-0.44-0.86-0.53-2.09-0.53-2.09s-3.81,0.34-6.27,2.62
		c-2.26,2.09-2.62,4.7-2.62,4.7v18.44v5.54v11.48v1.06c0.59,0.32,1.15,0.58,1.66,0.82c6.29,2.92,9.12,2.26,9.98,2.02
		c0.79-0.22,1.5-0.53,2.14-0.9c1.36,0.96,2.59,1.76,3.75,2.33h6.37L517.35,362.9z"/>
	<path id="形状-26_7_" class="st17" d="M529.47,359.07c0,0,2.09,1.64,2.74,2.48c0.54,0.69-1.02,0.58-1.02,0.58
		s-0.06,0.44,0.58,1.02c0.27,0.25,1.36,0.81,1.62,0.96c0.44,0.25,0.55,0.5,0.55,0.5s0.9,1.92-2.5,2.22
		c-1.89,0.17-6.45-3.34-6.45-3.34L529.47,359.07z"/>
	<path class="st16" d="M516.53,323.74c4.33,11.65,8.65,23.31,12.98,34.96c-1.62,0.87-3.23,1.73-4.85,2.6
		c-2.87-7.33-5.73-14.65-8.6-21.98C516.22,334.12,516.38,328.93,516.53,323.74z"/>
	<path class="st18" d="M509.19,360.38c-0.66,1.04-2.03,2.89-4.21,4.12c-0.64,0.37-1.35,0.68-2.14,0.9c-0.86,0.24-3.69,0.9-9.98-2.02
		c-0.51-0.24-1.07-0.5-1.66-0.82c-0.16-0.08-0.33-0.16-0.5-0.26c-2.23-1.2-4.92-2.92-7.74-5.39c-0.95-0.83-1.92-1.75-2.9-2.76
		c-1.34,2.21-2.96,4.59-4.91,7.04c-3.32,4.17-6.73,7.43-9.75,9.92c-2.5-1.02-5-2.04-7.5-3.05c6.77-7.81,13.54-15.62,20.31-23.43
		c3.21,1.14,6.62,2.48,10.18,4.09c0.93,0.41,1.86,0.84,2.81,1.3c0.19,0.09,0.38,0.18,0.57,0.27
		C498.51,353.54,504.32,357.05,509.19,360.38z"/>
	<path class="st19" d="M517.35,362.9c0,0.5-0.08,0.99-0.24,1.46c-0.41,1.17-1.27,1.98-2.01,2.47c-0.66,0.46-1.23,0.66-1.29,0.69
		c-1.59,0.56-3.23,0.23-5.08-0.69c-1.16-0.57-2.39-1.37-3.75-2.33c-0.83-0.58-1.71-1.22-2.64-1.91c-2.14-1.58-4.97-3.89-8-7.07
		c-0.82,1.85-1.85,3.87-3.14,5.98c-0.16,0.27-0.32,0.53-0.5,0.8c-0.14,0.23-0.28,0.45-0.43,0.68c-3.29,5-6.92,8.67-9.93,11.23
		c-2.43-0.92-4.87-1.85-7.3-2.77c0.59-0.74,1.18-1.49,1.77-2.23c2.71-4.1,5.43-8.2,8.15-12.3c1.81-2.73,3.62-5.46,5.43-8.19
		c0.94-1.42,1.87-2.83,2.81-4.24c0.43-0.65,0.87-1.31,1.3-1.96c6.42,1.76,10.92,4.5,13.69,6.54
		C507.53,350.04,517.35,357.23,517.35,362.9z"/>
</g>
</svg>
