<svg viewBox="0 0 400 300" fill="none" xmlns="http://www.w3.org/2000/svg"><path d="M225.643 181.179c-8.137-.656-78.565-2.685-98.24 8.704-19.675 11.389-18.119 24.773-3.551 32.918 10.784 6.029 22.477 8.793 41.255 10.713 27.178 2.779 59.843.848 70.28-1.029 17.648-3.173 19.574-9.71 19.574-14.484 0-4.775 11.28-8.31 14.285-16.729 3.006-8.419-2.897-12.94-24.939-17.807-1.568-.306-10.527-1.629-18.664-2.286Z" fill="url(#a)"/><path d="m157.194 194.324-20.846 5.698c-.437 4.623-.089 8.554 1.042 11.793 1.089 3.12 3.513 5.43 8.263 6.227.124.02.477-.045 1.06-.195a.665.665 0 0 0 .231-.033c4.758-1.795 8.023-5.693 9.794-11.696 1.803-6.113 1.955-10.045.456-11.794Z" fill="url(#b)"/><path d="M146.73 82.266c.19-.02.406-.047.648-.08.363-.051.841-.033 1.032.03 6.306 2.08 8.927 7.428 8.927 13.19V197.27c-.196 5.615-.826 9.519-1.889 11.714-1.883 3.888-5.673 7.101-9.778 9.059.239.028.593.053 1.06.076h.648c2.737 0 6.235.085 12.805-1.597 19.746-5.055 52.733-16.381 57.682-18.34 7.02-2.778 13.93-10.066 13.93-17.781 0-5.143.34-37.63 1.018-97.46.135-6.099-1.093-10.76-3.685-13.985-3.887-4.837-9.594-3.944-12.177-3.64-1.722.203-24.711 5.673-68.966 16.41-.198.06-.4.133-.607.218a5.415 5.415 0 0 0-.648.322Z" fill="url(#c)"/><path d="M142.098 92.52c-.118-3.84.29-6.4 1.223-7.677 1.401-1.917 2.478-2.24 3.183-2.5.705-.26 1.527-.216 1.834-.176a6.969 6.969 0 0 1 2.221.723c.756.401 1.786 1.215 2.406 1.787a12.827 12.827 0 0 1 2.617 3.37l-13.484 4.473Z" fill="url(#d)"/><path d="m171.434 115.156 47.822-11.923a.88.88 0 0 1 1.094.854v3.301a.882.882 0 0 1-.668.855l-47.821 11.923a.881.881 0 0 1-1.095-.855v-3.3c0-.405.276-.757.668-.855ZM171.171 102.668l28.046-6.993a.881.881 0 0 1 1.09.771l.31 3.223a.882.882 0 0 1-.664.939l-28.046 6.993a.88.88 0 0 1-1.09-.771l-.31-3.223a.881.881 0 0 1 .664-.939Z" fill="#EBEBF2"/><path d="m223.562 203.363-.126 1.773-1.363.522-1.265-.195-.211-2.42 2.965.32Z" fill="#FFB8A3"/><path d="M220.592 204.877a.266.266 0 0 0-.164-.012c-.904.287-1.653.685-2.143.831-.807.241-1.538.523-2.048.647s-1.421.225-1.888.473c-.466.248-.579.62-.618.859-.023.147-.133.392-.127.76.003.14.053.293.166.312 2.071.339 4.293.279 5.537.243 1.23-.036 3.082-.05 4.697-.085.167-.004.293-.183.292-.373-.007-1.102-.017-1.693-.113-2.135-.091-.423-.137-.93-.423-1.468-.048-.091-.125-.193-.213-.146l-.732.39c-.442.235-1.09.138-1.363.081-.182-.039-.469-.164-.86-.377Z" fill="#3E3E6E"/><path d="m235.159 200.084.234 2.339-2.684.02-.146-2.501 2.596.142Z" fill="#FFB8A3"/><path d="M232.649 201.598a.256.256 0 0 0-.151-.029c-.874.167-1.364.177-1.948.269-.584.093-.725.009-1.083.047a2.625 2.625 0 0 0-.86.212c-.365.143-.692.484-.757.7-.064.216-.09.369-.128.707-.014.129.162.343.269.369 1.834.429 2.295.455 3.287.624.992.168 2.705.44 4.21.581.155.015.293-.136.315-.311.125-1.013.036-.97 0-1.386-.035-.398-.017-.869-.218-1.394-.034-.089-.093-.191-.181-.157l-.726.279c-.439.168-1.029.01-1.276-.073-.164-.054-.415-.2-.753-.438Z" fill="#3E3E6E"/><path d="M223.162 140.701c.318-1.436-.046-2.153-1.092-2.153-1.643 0-2.228-2.078-2.075-4.243.311-4.404 1.888-5.939 3.957-5.939s3.215.242 3.612 2.697c.397 2.454.514 3.92 0 5.603-.513 1.682-.513 2.712 0 3.17.343.305-1.125.593-4.402.865Z" fill="url(#e)"/><path d="M227.427 137.163c.752-3.122 3.089-4.245 2.712-6.393-.252-1.432-.688-1.96-1.309-1.584-.259-1.556-1.504-2.346-3.736-2.37-.497-.005-1.219.411-1.719.322-.896-.16-1.185-.271-1.805-.284-.816-.016-1.317.286-1.644.841-.4.681-.087 1.747.831 2.518.827.694 1.748.47 2.362.759.412.193.983 1.177 1.716 2.951l.168-.509c.411-1.007.89-1.359 1.439-1.057.548.303.648.769.299 1.401-.41 1.246-.597 2.058-.559 2.434.037.376.453.7 1.245.971Z" fill="#353564"/><path d="M214.124 152.252c-1.066.682-1.951-.062-2.297-.654-.231-.394-1.795-3.163-4.694-8.307l2.51-1.246 4.871 8.213s.676 1.313-.39 1.994Z" fill="#EFAB23"/><path d="M215.326 148.018c-.293-.061-.675-.323-1.147-.788-.709-.696-1.081-1.543-1.671-1.643-.589-.099-1.378.071-1.718.274-.34.203-.427.85.038.85.465 0 .332-.005 1.003-.188.671-.183.749.524.749 1.066 0 .541.282 1.15.518 1.378.235.227.324.398.908.455.269.026.777.719.966.706.262-.017.048.278.2.202.169-.083-.315-.997.154-2.184a.268.268 0 0 0 0-.128Z" fill="url(#f)"/><path d="M210.205 147.071c-.712-.344-.743.173-.863.558a1.837 1.837 0 0 0 .259 1.614c.349.499 1.11 1.2 1.588 1.239.104.009.011-.095-.058-.223-.195-.364-.35-.502-.172-1.016.104-.301.182-.47.113-.908-.059-.375-.539-1.105-.867-1.264Z" fill="#FFB8A3"/><path d="M203.275 142.813c6.351 0 11.5-5.037 11.5-11.25s-5.149-11.25-11.5-11.25-11.5 5.037-11.5 11.25 5.149 11.25 11.5 11.25Z" fill="url(#g)"/><path d="M202.842 119.313c6.941 0 12.567 5.626 12.567 12.567 0 6.94-5.626 12.567-12.567 12.567-6.94 0-12.567-5.627-12.567-12.567 0-6.941 5.627-12.567 12.567-12.567Zm0 2.121c-5.769 0-10.446 4.677-10.446 10.446s4.677 10.446 10.446 10.446 10.446-4.677 10.446-10.446-4.677-10.446-10.446-10.446Z" fill="url(#h)"/><path d="M216.195 147.813a256.62 256.62 0 0 0-2.463 4.086c-.835 1.429-1.823 3.913-2.55 3.913-.726 0-4.924-1.649-6.808-2.434-1.256-.524-2.713-1.017-4.37-1.479-.607-1.326-1.141-2.158-1.6-2.496-.69-.506-3.387 0-3.387 0s-.845 1.018 1.541 2.496c2.386 1.479 6.527 4.425 8.756 6.155 2.229 1.73 5.574 3.386 7.554 3.386 1.98 0 1.727-.415 2.584-1.453.572-.692 2.47-3.598 5.694-8.718l-4.951-3.456Z" fill="#FFB8A3"/><path d="M217.452 169.555c-.777 6.058-.893 11.865-.35 17.42.814 8.333 2.927 17.114 3.307 17.114.381 0 2.468.211 3.149 0 .68-.21.98-6.815.597-9.312-.382-2.498-.115-5.892 0-7.326.116-1.434 2.833-9.218 3.369-9.218s1.095 5.884 1.095 7.697c0 1.812 1.811 5.737 2.274 7.674.462 1.938 1.299 6.302 1.299 6.949 0 .432 1.075.521 3.225.268.129-4.146.129-6.839 0-8.079-.195-1.859-1.051-5.624-1.311-7.024-.26-1.401 0-3.621.561-7.076.374-2.303.868-5.63 1.481-9.981l-18.696.894Z" fill="url(#i)"/><path opacity=".303" d="M231.008 170.862a40.19 40.19 0 0 1-.899 2.805c-.858 2.314-2.637 4.415-2.637 4.588 0 0 .056-.064.121 0 .065.065.169.265.237.515.257.953.55 3.606.879 7.958l6.263-10.352c.597-4.501.597-7.113 0-7.837-.288-.35-.697 1.236-1.168 1.075-1.936-.66-2.868-.244-2.796 1.248Z" fill="url(#j)"/><path d="M222.327 139.539c-2.503 1.806-4.349 3.641-5.535 5.504-1.186 1.863-2.057 3.348-2.613 4.454l5.513 3.845-1.047 1.901a357.656 357.656 0 0 1-.603 8.264c-.346 4.089-2.472 7.445-1.707 7.944.764.5 6.377.429 11.57 0 3.462-.286 6.403-1.142 8.821-2.568.124-2.021.124-4.277 0-6.769-.185-3.739-.462-5.988-.707-7.487-.302-1.852-1.458-7.491-1.641-8.084-.183-.593-1.154-3.487-2.831-5.278-1.118-1.195-2.551-1.77-4.3-1.726-1.332.316-2.257.474-2.774.474-.518 0-1.233-.158-2.146-.474Z" fill="#5B5BEA"/><g opacity=".745"><path opacity=".302" d="M66.261 162.338v79.767l28.727 10.589v-82.801l-28.727-7.555Z" fill="url(#k)"/><path opacity=".302" d="m94.942 169.777 26.638-9.819v82.519l-26.638 10.097v-82.797Z" fill="url(#l)"/><path opacity=".302" d="m66.08 162.258 27.131-9.996 28.363 7.759-26.646 9.822-28.849-7.585Z" fill="url(#m)"/></g><g opacity=".465"><path opacity=".302" d="M256.532 128.366v63.12l22.799 8.38v-65.522l-22.799-5.978Z" fill="url(#n)"/><path opacity=".302" d="m279.295 134.252 21.141-7.769v65.298l-21.141 7.99v-65.519Z" fill="url(#o)"/><path opacity=".302" d="m256.388 128.303 21.533-7.91 22.511 6.14-21.149 7.772-22.895-6.002Z" fill="url(#p)"/></g><path opacity=".302" d="M305.914 156.824c7.753 0 14.399 4.065 17.198 9.845h1.438c7.608 0 13.776 6.168 13.776 13.776v1.369c0 7.608-6.168 13.776-13.776 13.776h-35.884c-7.608 0-13.776-6.168-13.776-13.776v-1.369c0-7.608 6.168-13.776 13.776-13.776h.049c2.799-5.78 9.446-9.845 17.199-9.845Z" fill="url(#q)"/><path opacity=".302" d="M108.557 88.101c7.753 0 14.399 4.065 17.198 9.845h1.438c7.608 0 13.776 6.169 13.776 13.777v1.368c0 7.609-6.168 13.777-13.776 13.777H91.309c-7.608 0-13.776-6.168-13.776-13.777v-1.368c0-7.608 6.168-13.776 13.776-13.776h.05c2.799-5.78 9.445-9.846 17.198-9.846Z" fill="url(#r)"/><defs><linearGradient id="a" x1="191.375" y1="202.433" x2="191.375" y2="250.617" gradientUnits="userSpaceOnUse"><stop stop-color="#FCFCFE"/><stop offset="1" stop-color="#EBEBF0"/></linearGradient><linearGradient id="b" x1="147.19" y1="194.324" x2="147.19" y2="218.045" gradientUnits="userSpaceOnUse"><stop stop-color="#EEEEF8"/><stop offset="1" stop-color="#BDBDC8"/></linearGradient><linearGradient id="c" x1="197.419" y1="197.037" x2="160.283" y2="72.313" gradientUnits="userSpaceOnUse"><stop stop-color="#D8D8E4"/><stop offset=".232" stop-color="#E2E2EA"/><stop offset=".925" stop-color="#F2F2F9"/><stop offset="1" stop-color="#E6E6EB"/></linearGradient><linearGradient id="d" x1="146.335" y1="84.373" x2="149.502" y2="91.145" gradientUnits="userSpaceOnUse"><stop stop-color="#CED0D6"/><stop offset="1" stop-color="#F6F8FC"/></linearGradient><linearGradient id="e" x1="222.872" y1="133.254" x2="225.215" y2="138.704" gradientUnits="userSpaceOnUse"><stop stop-color="#FFD2C4"/><stop offset="1" stop-color="#FFB8A3"/></linearGradient><linearGradient id="f" x1="210.813" y1="145.864" x2="215.446" y2="149.71" gradientUnits="userSpaceOnUse"><stop stop-color="#FFB8A3"/><stop offset="1" stop-color="#EDA48E"/></linearGradient><linearGradient id="g" x1="203.275" y1="120.313" x2="203.275" y2="142.813" gradientUnits="userSpaceOnUse"><stop stop-color="#FCFCFF"/><stop offset="1" stop-color="#FAFAFC"/></linearGradient><linearGradient id="h" x1="209.452" y1="141.29" x2="194.907" y2="123.886" gradientUnits="userSpaceOnUse"><stop stop-color="#FAC251"/><stop offset="1" stop-color="#FFDE9B"/></linearGradient><linearGradient id="i" x1="224.791" y1="201.579" x2="236.444" y2="176.655" gradientUnits="userSpaceOnUse"><stop stop-color="#7878C3"/><stop offset="1" stop-color="#5C5CBB"/></linearGradient><linearGradient id="j" x1="231.945" y1="177.584" x2="230.73" y2="177.181" gradientUnits="userSpaceOnUse"><stop stop-color="#5360B8" stop-opacity="0"/><stop offset="1" stop-color="#223196" stop-opacity=".569"/></linearGradient><linearGradient id="k" x1="71.619" y1="172.338" x2="71.619" y2="250.159" gradientUnits="userSpaceOnUse"><stop stop-color="#EEE"/><stop offset="1" stop-color="#DEDEE6" stop-opacity="0"/></linearGradient><linearGradient id="l" x1="108.261" y1="159.958" x2="108.261" y2="252.574" gradientUnits="userSpaceOnUse"><stop stop-color="#DCDCE4"/><stop offset="1" stop-color="#DEDEE6" stop-opacity="0"/></linearGradient><linearGradient id="m" x1="93.827" y1="152.262" x2="93.827" y2="169.843" gradientUnits="userSpaceOnUse"><stop stop-color="#DCDCE4"/><stop offset="1" stop-color="#DEDEE6" stop-opacity="0"/></linearGradient><linearGradient id="n" x1="260.784" y1="136.279" x2="260.784" y2="197.859" gradientUnits="userSpaceOnUse"><stop stop-color="#EEE"/><stop offset="1" stop-color="#DEDEE6" stop-opacity="0"/></linearGradient><linearGradient id="o" x1="289.865" y1="126.483" x2="289.865" y2="199.771" gradientUnits="userSpaceOnUse"><stop stop-color="#DCDCE4"/><stop offset="1" stop-color="#DEDEE6" stop-opacity="0"/></linearGradient><linearGradient id="p" x1="278.41" y1="120.393" x2="278.41" y2="134.305" gradientUnits="userSpaceOnUse"><stop stop-color="#DCDCE4"/><stop offset="1" stop-color="#DEDEE6" stop-opacity="0"/></linearGradient><linearGradient id="q" x1="306.608" y1="156.824" x2="306.608" y2="195.59" gradientUnits="userSpaceOnUse"><stop stop-color="#DCDCE4"/><stop offset="1" stop-color="#DEDEE6" stop-opacity="0"/></linearGradient><linearGradient id="r" x1="109.251" y1="88.101" x2="109.251" y2="126.868" gradientUnits="userSpaceOnUse"><stop stop-color="#DCDCE4"/><stop offset="1" stop-color="#DEDEE6" stop-opacity="0"/></linearGradient></defs></svg>