<svg xml:space="preserve" style="enable-background:new 0 0 3000 3000;" viewBox="0 0 3000 3000" y="0px" x="0px" xmlns:xlink="http://www.w3.org/1999/xlink" xmlns="http://www.w3.org/2000/svg" id="Layer_1" version="1.1">
<style type="text/css">
	.st0{fill:none;}
	.st1{fill:none;stroke:#1A1A1A;stroke-width:5.521;stroke-linecap:round;stroke-linejoin:round;stroke-miterlimit:10;}
	.st2{fill:#FFFFFF;stroke:#1A1A1A;stroke-width:3.6807;stroke-linecap:round;stroke-linejoin:round;stroke-miterlimit:10;}
	.st3{fill:#1C0311;stroke:#1A1A1A;stroke-width:1.8403;stroke-linecap:round;stroke-linejoin:round;stroke-miterlimit:10;}
	
		.st4{fill:none;stroke:#1A1A1A;stroke-width:3.6807;stroke-linecap:round;stroke-linejoin:round;stroke-miterlimit:10;stroke-dasharray:22.0841;}
	.st5{fill:#54CAFA;stroke:#1A1A1A;stroke-width:3.6807;stroke-linecap:round;stroke-linejoin:round;stroke-miterlimit:10;}
	.st6{fill:#1C0311;stroke:#1A1A1A;stroke-width:3.6807;stroke-linecap:round;stroke-linejoin:round;stroke-miterlimit:10;}
</style>
<g>
	<rect height="3000" width="3000" class="st0"></rect>
	<g>
		<path d="M1910.8,2413.6c-30.5-71.3,28.1-205.2,103.3-261.6c92.9-69.7,259.7-13.3,273.8-4.6
			c5.3-12.3,89.7-198.8,261.6-205.7c133-5.4,194.4,41.5,246.2,217.2c4.4-1.9,70.4,2.3,112.9,47c51,53.6,46.2,176.5-0.2,255
			c-314.5,0-629.1,0-943.6,0C1931.2,2449.2,1917.3,2428.6,1910.8,2413.6z" class="st1"></path>
		<path d="M2392,2196.4c-104.6-80.3-225.1-54.1-241.5-50.3c-14.6-113.3-95.7-202.7-197.4-221.9
			c-114.4-21.6-200.9,55.8-210.9,65c-34.3-70.8-110.5-203-259.9-301.6c-167.1-110.3-475.2-211.3-698.8-51.5
			c-119.4,85.4-169.6,213-191.2,294.2c-143.8-58.3-309.9-3.2-389.8,128.7c-78.9,130.3-52.7,300.7,62.5,401.8
			c745.3,0,1490.7,0,2236,0C2502.1,2452.8,2518,2293.1,2392,2196.4z" class="st2"></path>
		<g>
			<path d="M2343.8,1521.9H775.5c-36.1,0-65.4-29.3-65.4-65.4V428.9c0-36.1,29.3-65.4,65.4-65.4h1568.3
				c36.1,0,65.4,29.3,65.4,65.4v1027.7C2409.2,1492.7,2379.9,1521.9,2343.8,1521.9z" class="st2"></path>
			<path d="M2370.5,494.7c0-57.9-46.9-104.8-104.8-104.8H853.6c-57.9,0-104.8,46.9-104.8,104.8v15.9h1621.7V494.7z" class="st3"></path>
			<path d="M748.8,510.6v880.2c0,57.9,46.9,104.8,104.8,104.8h1412.1c57.9,0,104.8-46.9,104.8-104.8V510.6H748.8z" class="st2"></path>
			<line y2="643" x2="2370.5" y1="643" x1="748.8" class="st4"></line>
			<rect height="47.8" width="165.5" class="st3" y="554.7" x="1596.4"></rect>
			<rect height="47.8" width="165.5" class="st2" y="554.7" x="1820.8"></rect>
			<rect height="47.8" width="165.5" class="st2" y="554.7" x="2045.1"></rect>
			<rect height="388" width="313.7" class="st2" y="554.7" x="827.8"></rect>
			<rect height="15.7" width="171.9" class="st2" y="762" x="901.3"></rect>
			<rect height="15.7" width="221.7" class="st2" y="807.9" x="876.4"></rect>
			<rect height="15.7" width="221.7" class="st2" y="848.6" x="876.4"></rect>
			<circle r="54.7" cy="657.2" cx="984.7" class="st3"></circle>
			<rect height="37.2" width="210.9" class="st3" y="1417.5" x="876.4"></rect>
			<path d="M2252.9,1495.6H1206.6v-78.1h1160.4C2345.6,1479.7,2302.9,1495.7,2252.9,1495.6z" class="st3"></path>
			<line y2="1495.6" x2="1206.6" y1="510.6" x1="1206.6" class="st4"></line>
			<rect height="254.4" width="255.6" class="st4" y="748.7" x="1271"></rect>
			<rect height="254.4" width="255.6" class="st4" y="748.7" x="1634.1"></rect>
			<rect height="254.4" width="255.6" class="st4" y="748.7" x="1997.3"></rect>
			<rect height="254.4" width="255.6" class="st4" y="1082.6" x="1271"></rect>
			<rect height="254.4" width="255.6" class="st4" y="1082.6" x="1634.1"></rect>
			<rect height="254.4" width="255.6" class="st4" y="1082.6" x="1997.3"></rect>
			<g>
				<path d="M1510.7,983.7c-71.6,4.1-158.1-2.3-179.1-21.6c-21-19.3-24.2-29.9-30.3-58.2c-8.4-39.5-11-89.6-12.3-141.9
					h221.7V983.7z" class="st2"></path>
				<path d="M1299.6,895.1c8.6,36.1,58.3,36.8,58.3,36.8s1,30.6,23.7,47.1" class="st2"></path>
			</g>
			<g>
				<path d="M1872.8,983.7c-71.6,4.1-158.1-2.3-179.1-21.6c-21-19.3-24.2-29.9-30.3-58.2c-8.4-39.5-11-89.6-12.3-141.9
					h221.7V983.7z" class="st2"></path>
				<path d="M1661.7,895.1c8.6,36.1,58.3,36.8,58.3,36.8s1,30.6,23.7,47.1" class="st2"></path>
			</g>
			<g>
				<path d="M2234.8,983.7c-71.6,4.1-158.1-2.3-179.1-21.6c-21-19.3-24.2-29.9-30.3-58.2c-8.4-39.5-11-89.6-12.3-141.9
					h221.7V983.7z" class="st2"></path>
				<path d="M2023.7,895.1c8.6,36.1,58.3,36.8,58.3,36.8s1,30.6,23.7,47.1" class="st2"></path>
			</g>
			<g>
				<path d="M1510.7,1320c-71.6,4.1-158.1-2.3-179.1-21.6c-21-19.3-24.2-29.9-30.3-58.2c-8.4-39.5-11-89.6-12.3-141.9
					h221.7V1320z" class="st2"></path>
				<path d="M1299.6,1231.4c8.6,36.1,58.3,36.8,58.3,36.8s1,30.6,23.7,47.1" class="st2"></path>
			</g>
			<g>
				<path d="M1872.8,1320c-71.6,4.1-158.1-2.3-179.1-21.6c-21-19.3-24.2-29.9-30.3-58.2c-8.4-39.5-11-89.6-12.3-141.9
					h221.7V1320z" class="st2"></path>
				<path d="M1661.7,1231.4c8.6,36.1,58.3,36.8,58.3,36.8s1,30.6,23.7,47.1" class="st2"></path>
			</g>
			<g>
				<path d="M2234.8,1320c-71.6,4.1-158.1-2.3-179.1-21.6c-21-19.3-24.2-29.9-30.3-58.2c-8.4-39.5-11-89.6-12.3-141.9
					h221.7V1320z" class="st2"></path>
				<path d="M2023.7,1231.4c8.6,36.1,58.3,36.8,58.3,36.8s1,30.6,23.7,47.1" class="st2"></path>
			</g>
		</g>
		<line y2="2460.9" x2="2762.3" y1="2460.9" x1="107" class="st2"></line>
		<g>
			<path d="M2187.9,1620.6c14.1-28.8,8.6-47.2-11.6-43.5c-20.2,3.7-139.8,57.6-152,71.7c-7.6,8.7,0.7,48.1,8.2,77
				c0.7-0.4,1.4-0.7,2.1-1c25.3-7.9,51.7-14.1,78.2-17c-1.4-5.4-2.8-11-4.2-16.7C2112.5,1683.1,2173.8,1649.4,2187.9,1620.6z" class="st2"></path>
			<path d="M2032.5,1725.8c4.6,17.9,8.9,31.8,8.9,31.8l81.5-11.3c0,0-4.7-17.1-10.2-38.4c-26.5,2.9-52.8,9.1-78.2,17
				C2033.9,1725.1,2033.2,1725.4,2032.5,1725.8z" class="st3"></path>
			<path d="M2078.2,2196.1c0,0-72.3-94.4-42.9-446.2c1.2-17.2,46.6-30.6,84.6-30.6c35.6,50.3,117.7,381.2,121.4,427.8
				c3.7,46.6-12.3,105.6-15.9,105.5C2221.6,2252.5,2078.2,2196.1,2078.2,2196.1z" class="st2"></path>
			<path d="M2077.7,1774.1c0,0,64.7,437.5,106.7,485.1" class="st4"></path>
			<path d="M2485.9,1786.9c-4.8,7.3-7.7,12-7.7,12s57.9,49.6,59.7,49.6c1.4,0,14.3-22.7,26.4-33.8
				C2545.8,1792,2516.3,1779.2,2485.9,1786.9z" class="st3"></path>
			<path d="M2711.4,1816.7c-15.9-19-113.4-105.4-146.5-106c-25.4-0.5-63,52-79,76.2c30.4-7.6,60,5.2,78.4,27.9
				c3.9-3.6,7.7-6,11-6c13.5,0,52.7,33.1,101.1,45.4C2724.9,1866.3,2727.3,1835.7,2711.4,1816.7z" class="st2"></path>
			<path d="M2485.2,1794c-246.4,170.4-278.3,420.8-278.3,420.8s-145.9-61.6-279.5-76.3
				c-133.6-14.7-280.7,88.7-280.7,88.7l0.6,14.8l9.2,218.9c0,0,259.9,0,312.6,0c52.7,0,297.9,22.1,349.4-46.6
				c51.5-68.6,236.6-570,236.6-581.1C2555.1,1822.2,2540.4,1792.8,2485.2,1794z" class="st2"></path>
			<path d="M1756.7,2347.4c0,0,377.8-26.2,473.6,0c74.8-150.9,231.5-469.2,290.9-512" class="st4"></path>
			<path d="M1651.8,2245.8c0,0,11.2-18.3,34.1,27.9c23,46.2,38.7,157.2-3.9,190.6c-32.8-2.3-32.8-2.3-32.8-2.3
				L1651.8,2245.8z" class="st3"></path>
			<path d="M929,2324.1c0,0,123.1-120.8,150-164.2c27.5-27.4,10.8-122.8,100.5-133.7c0,0,100.9-32.5,291.1,77.8
				c156.6,96.9,186.6,134.3,200.3,156.8c13.8,22.5,47.5,131.5-7.7,200.9c-183,3.5-475.6-14.1-513.7-15" class="st5"></path>
			<path d="M937.5,2096.8c0,0,25.5-39,4.2-65.8c-21.3-26.8-34.3-61.8-21-82.6c13.3-20.8,34.8-21,47.2-1.9
				s72,84.9,49.2,112.8c-22.8,27.9-43.4,71.6-43.4,71.6L937.5,2096.8z" class="st2"></path>
			<path d="M995.3,2361c-81.7-29.4-18.5-200.8-12.3-222.2c6.2-21.4-29.8-39.6-38.1-48.2c-8.3-8.6-16.8,0.7-16.8,0.7
				s-174.3,224-147.9,310.4c26.4,86.4,259.7,51.4,259.7,51.4s134,10.8,140.8,5.9s0-60.7,0-60.7" class="st5"></path>
			<path d="M1001.4,1818.8c0,0-72.7,101-41.2,184.4s126.6,20.8,126.6,20.8" class="st2"></path>
			<path d="M1057.1,2038.7c0,0,18.8,106.7,37.2,132.3c64.2,14.6,94.7-60.8,92.9-136.2c-26.4-16.7-50.9-77.7-50.9-77.7" class="st2"></path>
			<polygon points="1082.6,2026.2 1058.4,2050.4 1057.1,2037.8" class="st3"></polygon>
			<path d="M996.5,1729.3c-10.1-3.7-58.8,92,29.1,128.4c25.7,14.3,33.6,11.6,25.7,28.4c-7.9,16.9-6.1,34,4.7,36
				c10.9,2,29.3-12.2,36.9-22.3c7.6-10.1,33.4,7.7,28.6,25.6c-4.8,17.9-23.2,26.6-22.3,33.6c10,19.5,15,39,55,26.7
				c40-12.3,36.9-84,32-106.8c-4.9-22.8-16-62.9-74.2-76.2S1006.6,1733.1,996.5,1729.3z" class="st3"></path>
			<path d="M1042.7,2397.5c-35.3,13.8-60,63.1-42.9,64.7c12.1,1.1,72.1,0.8,106.3,0.5c-2.9-24.3-8-47.8-22.8-68.3
				C1071.4,2392.1,1057.1,2391.8,1042.7,2397.5z" class="st2"></path>
			<path d="M1323.5,2108.9c0,0,243.4,175.4,212.5,278.7c-30.9,103.4-393.9,74.8-407.7,74.6
				c-14.3-13.1-37.7-92-28.1-97.9c9.6-5.9,163.4-1.8,175.8-15.2c12.4-13.4,16.7-20.9-25.2-56.1c-41.9-35.2-88.5-121.6-17.6-167.7
				c19.1-5.4,23.7-5.5,23.7-5.5" class="st5"></path>
			<path d="M1083.9,2206.3c0,0-16.2,62.6,11.5,105.7" class="st5"></path>
			<path d="M1112.5,2405.3c0,0-12.1-7.6-29.3-10.9c14.9,20.5,19.9,44,22.8,68.3c14.2-0.1,23.9-0.2,23.9-0.2
				S1119.4,2408.9,1112.5,2405.3z" class="st6"></path>
		</g>
		<g>
			<rect height="34.3" width="253.8" class="st3" y="2424.7" x="472.3"></rect>
			<path d="M376.5,2192.8c1.8,3.7,119.7,219.5,119.7,219.5l-25.1,10.9l-117.7-215.1L376.5,2192.8z" class="st2"></path>
		</g>
		<g>
			<circle r="135.4" cy="1209.7" cx="472.3" class="st2"></circle>
			<path d="M492.2,1182.1c9.4-5.5,15.7-15.7,15.7-27.4c0-17.5-14.2-31.7-31.7-31.7s-31.7,14.2-31.7,31.7
				c0,11.7,6.3,21.9,15.7,27.4c-27.8,7.1-48.3,32.3-48.3,62.3v31h128.6v-31C540.5,1214.4,520,1189.2,492.2,1182.1z" class="st3"></path>
		</g>
		<circle r="63" cy="1067.9" cx="2580.6" class="st3"></circle>
		<circle r="127" cy="1290.9" cx="2652.5" class="st2"></circle>
		<g>
			<path d="M494.2,771.9H228.3c-25.6,0-46.4,20.8-46.4,46.4v55.8c0,25.6,20.8,46.4,46.4,46.4h212.3
				c9.3,13.5,25,35.7,38.6,54.6c6.9,9.6,22,3.7,20.6-8l-5.5-46.7c25.5-0.1,46.2-20.8,46.2-46.4v-55.8
				C540.5,792.6,519.8,771.9,494.2,771.9z" class="st2"></path>
			<rect height="21" width="237.5" class="st2" y="802" x="236.1"></rect>
			<rect height="21" width="237.5" class="st2" y="854.9" x="236.1"></rect>
		</g>
		<path d="M1043.7,1298.9V1279h-20.6c-0.8-3-2-5.7-3.5-8.3l14.5-14.5l-14.1-14.1l-14.5,14.5c-2.6-1.5-5.4-2.6-8.3-3.5
			v-20.6h-19.9v20.6c-3,0.8-5.7,2-8.3,3.5l-14.5-14.5l-14.1,14.1l14.5,14.5c-1.5,2.6-2.6,5.4-3.5,8.3h-20.6v19.9h20.6
			c0.8,3,2,5.7,3.5,8.3l-14.5,14.5l14.1,14.1l14.5-14.5c2.6,1.5,5.4,2.6,8.3,3.5v20.6h19.9v-20.6c3-0.8,5.7-2,8.3-3.5l14.5,14.5
			l14.1-14.1l-14.5-14.5c1.5-2.6,2.6-5.4,3.5-8.3H1043.7z M1004.5,1298.9c-1.8,3-4.3,5.6-7.3,7.3c-1.5,0.9-3.1,1.5-4.8,2
			c-1.6,0.4-3.4,0.7-5.2,0.7c-1.8,0-3.5-0.2-5.2-0.7c-1.7-0.5-3.3-1.1-4.8-2c-3-1.8-5.6-4.3-7.3-7.3c-0.9-1.5-1.5-3.1-2-4.8
			c-0.4-1.6-0.7-3.4-0.7-5.2s0.2-3.5,0.7-5.2c0.5-1.7,1.1-3.3,2-4.8c1.8-3,4.3-5.6,7.3-7.3c1.5-0.9,3.1-1.5,4.8-2
			c1.6-0.4,3.4-0.7,5.2-0.7c1.8,0,3.5,0.2,5.2,0.7c1.7,0.5,3.3,1.1,4.8,2c3,1.8,5.6,4.3,7.3,7.3c0.9,1.5,1.5,3.1,2,4.8
			c0.4,1.6,0.7,3.4,0.7,5.2s-0.2,3.5-0.7,5.2C1006.1,1295.8,1005.4,1297.4,1004.5,1298.9z" class="st3"></path>
	</g>
</g>
</svg>
