<?xml version="1.0" encoding="utf-8"?>
<!-- Generator: Adobe Illustrator 23.0.5, SVG Export Plug-In . SVG Version: 6.00 Build 0)  -->
<svg version="1.1" id="图层_1" xmlns="http://www.w3.org/2000/svg" xmlns:xlink="http://www.w3.org/1999/xlink" x="0px" y="0px"
	 viewBox="0 0 500 500" enable-background="new 0 0 500 500" xml:space="preserve">
<g>
	<linearGradient id="SVGID_1_" gradientUnits="userSpaceOnUse" x1="413.111" y1="255.8355" x2="145.4457" y2="255.8355">
		<stop  offset="3.375400e-02" style="stop-color:#E700E6"/>
		<stop  offset="1" style="stop-color:#29ABE2"/>
	</linearGradient>
	<path fill="url(#SVGID_1_)" d="M475.4,248.3l-93.7-124.9c0-0.1-0.1-0.1-0.2-0.2c-0.2-0.2-0.4-0.5-0.6-0.7c-0.1-0.1-0.2-0.2-0.3-0.3
		c-0.3-0.3-0.5-0.5-0.8-0.8c-0.1,0-0.1-0.1-0.2-0.2c-0.3-0.3-0.7-0.5-1.1-0.8c-0.1-0.1-0.2-0.1-0.3-0.2c-0.3-0.2-0.6-0.4-0.9-0.5
		c-0.1-0.1-0.2-0.1-0.4-0.2c-0.3-0.1-0.6-0.3-0.9-0.4c-0.1,0-0.3-0.1-0.4-0.1c-0.3-0.1-0.6-0.2-0.9-0.3c-0.1,0-0.3-0.1-0.4-0.1
		c-0.3-0.1-0.7-0.1-1-0.2c-0.1,0-0.2,0-0.4-0.1c-0.5-0.1-0.9-0.1-1.4-0.1H288h-41.2H117.6c-6.9,0-12.5,5.6-12.5,12.5
		c0,6.9,5.6,12.5,12.5,12.5h79.5c4.8,0,8.7,3.9,8.7,8.8c0,2.4-1,4.6-2.6,6.2c-1.6,1.6-3.8,2.6-6.2,2.6h-18.2v0H72.2
		c-6.9,0-12.5,5.6-12.5,12.5c0,6.9,5.6,12.5,12.5,12.5H149v0h13.3c7.6,0,13.7,6.2,13.7,13.7c0,3.8-1.5,7.2-4,9.7
		c-2.5,2.5-5.8,4-9.6,4H28.5c-6.9,0-12.5,5.6-12.5,12.5c0,6.9,5.6,12.5,12.5,12.5h83.3c9.6,0,17.5,7.9,17.5,17.5
		c0,4.8-2,9.2-5.1,12.4c-3.2,3.2-7.5,5.1-12.3,5.1h-52c-6.9,0-12.5,5.6-12.5,12.5c0,6.9,5.6,12.5,12.5,12.5h97.1
		c3.9,0,7.5,1.2,10.4,3.3c3.4,2.3,6.1,5.8,7.3,9.8c0,0,0,0,0,0c0.6,1.8,0.9,3.7,0.9,5.8c0,5.2-2.1,9.9-5.5,13.3
		c-3.4,3.4-8.1,5.5-13.3,5.5h-13.3v0H123c-6.9,0-12.5,5.6-12.5,12.5c0,6.9,5.6,12.5,12.5,12.5h71.3v0h7.6c2,0,3.6,1.6,3.6,3.6
		c0,1-0.4,1.9-1.1,2.6c-0.6,0.7-1.6,1.1-2.5,1.1h-17.1c-6.9,0-12.5,5.6-12.5,12.5c0,6.9,5.6,12.5,12.5,12.5h62.6h124.2
		c0.5,0,1,0,1.5-0.1c0,0,0,0,0,0c0.5-0.1,0.9-0.1,1.3-0.2c0.1,0,0.1,0,0.2-0.1c0.4-0.1,0.8-0.2,1.1-0.3c0.1,0,0.2-0.1,0.2-0.1
		c0.4-0.1,0.7-0.3,1-0.4c0.1,0,0.2-0.1,0.2-0.1c0.3-0.2,0.7-0.4,1-0.6c0.1,0,0.1-0.1,0.2-0.1c0.4-0.3,0.8-0.5,1.1-0.8
		c0,0,0.1-0.1,0.1-0.1c0.3-0.3,0.6-0.5,0.9-0.8c0.1-0.1,0.2-0.2,0.3-0.3c0.2-0.2,0.4-0.4,0.6-0.7c0.1-0.1,0.1-0.1,0.2-0.2
		l93.7-124.9C478.7,258.9,478.7,252.8,475.4,248.3z M288,143.4h58.7l-37.5,50l-37.5-50H288z M178.8,242.2l13-17.3h0l34.7-46.4h0l0,0
		l5.3-7.1h0l14.9-19.8l6.3,8.4l0,0l40.5,54l-21.9,29.2H178L178.8,242.2z M253,368.3l-15.8-21l-40.6-54.1l-9.9-13.2l0,0l-8.7-11.6
		h93.7l75,100H253z M422.3,292.5l-30.3-36.7l-13.4,19.1l29.9,36.1l-36.7,49l-78.1-104.1l78.1-104.1l78.1,104.1L422.3,292.5z"/>
	<linearGradient id="SVGID_2_" gradientUnits="userSpaceOnUse" x1="413.1108" y1="166.3085" x2="145.4453" y2="166.3085">
		<stop  offset="3.375400e-02" style="stop-color:#E700E6"/>
		<stop  offset="1" style="stop-color:#29ABE2"/>
	</linearGradient>
	<polygon fill="url(#SVGID_2_)" points="331.9,152.6 289.2,152.6 309.8,180 	"/>
</g>
</svg>
