<?xml version="1.0" encoding="UTF-8"?>
<svg width="600px" height="505px" viewBox="0 0 600 505" version="1.1" xmlns="http://www.w3.org/2000/svg" xmlns:xlink="http://www.w3.org/1999/xlink">
    <title>学习/数据</title>
    <defs>
        <path d="M27.6118315,0.132847125 C27.7884808,4.72200361 28.3891676,20.7075456 28.4278961,29.3679129 C9.27982005,30.6362866 0.271099419,38.5857637 0.271099419,38.5857637 C0.271099419,38.5857637 1.64951745,7.41927469 0.822387596,1.62777266" id="path-1"></path>
        <path d="M29.7308331,0.101612235 C29.7308331,0.101612235 28.6282567,18.8555934 29.7308331,26.5781233 C29.822912,27.2221946 29.9774308,27.9651105 30.1813481,28.7831483 C24.9514214,28.3023683 14.8867567,27.6258759 0.0248968854,27.6832058 C0.490033935,20.436316 1.25709512,7.35245575 1.23259342,0.498176718" id="path-3"></path>
        <path d="M29.6087198,0.081843318 C29.9671559,5.33839845 29.0187031,21.6382662 28.4784802,30.0554759 C24.8783115,30.0669418 20.9967685,30.1218994 16.8342464,30.2377453 C10.9348701,30.3978735 5.72509808,30.6461711 1.15987871,30.9494263 C1.12115022,22.289059 0.520463461,6.303517 0.343814132,1.71436052" id="path-5"></path>
        <polygon id="path-7" points="25.9931387 0.379958592 25.9931387 36.1126721 0.109862447 36.1126721"></polygon>
    </defs>
    <g id="学习/数据" stroke="none" stroke-width="1" fill="none" fill-rule="evenodd">
        <path d="M445.033023,223.588 C445.033023,312.322367 373.133979,384.255922 284.442184,384.255922 C195.750389,384.255922 123.851345,312.322367 123.851345,223.588 C123.851345,134.853633 195.750389,62.9200775 284.442184,62.9200775 C373.133979,62.9200775 445.033023,134.853633 445.033023,223.588" id="Fill-1" fill="#FAF8DC"></path>
        <g id="编组" transform="translate(232.632240, 274.662737)">
            <mask id="mask-2" fill="white">
                <use xlink:href="#path-1"></use>
            </mask>
            <g id="Clip-8"></g>
        </g>
        <g id="编组" transform="translate(288.353840, 275.453494)">
            <mask id="mask-4" fill="white">
                <use xlink:href="#path-3"></use>
            </mask>
            <g id="Clip-10"></g>
        </g>
        <g id="编组" transform="translate(259.900257, 273.081224)">
            <mask id="mask-6" fill="white">
                <use xlink:href="#path-5"></use>
            </mask>
            <g id="Clip-12"></g>
        </g>
        <path d="M482.381552,274.77463 L510.211923,245.672411 L510.215877,254.258447 C510.21706,256.087863 509.676837,257.875764 508.663178,259.398366 C505.159436,264.660456 496.71702,277.225185 493.683947,280.704514 C490.122902,284.789958 487.619382,289.940948 477.945559,289.940948 L482.381552,274.77463 Z" id="Fill-21" fill="#253940"></path>
        <path d="M477.945599,289.941106 L89.8379319,289.941106 C86.3369556,289.941106 83.4983155,287.101103 83.4983155,283.598446 L83.4983155,277.503689 L484.285215,277.503689 L484.285215,283.598446 C484.285215,287.101103 481.44697,289.941106 477.945599,289.941106" id="Fill-23" fill="#31444B"></path>
        <path d="M477.204422,280.704554 L86.6793866,280.704554 C84.0865538,280.704554 82.5868129,277.764125 84.1082892,275.663875 L103.04731,249.5179 C106.174833,245.199973 111.181874,242.643852 116.511783,242.643852 L507.036819,242.643852 C509.629257,242.643852 511.128997,245.584676 509.607916,247.684531 L490.668895,273.830506 C487.540977,278.148433 482.534332,280.704554 477.204422,280.704554" id="Fill-25" fill="#5D6C71"></path>
        <polygon id="Fill-27" fill="#ED6D53" points="452.085164 279.540402 110.23354 279.540402 136.116816 243.807688 477.968836 243.807688"></polygon>
        <polygon id="Fill-29" fill="#20353C" points="97.1346953 285.530897 123.598899 285.530897 123.598899 283.324686 97.1346953 283.324686"></polygon>
        <path d="M84.5544967,275.987413 L103.493518,249.841834 C106.508017,245.680081 111.374765,243.195524 116.511427,243.195524 L507.036858,243.195524 C508.043009,243.195524 508.916376,243.730866 509.374004,244.627584 C509.831237,245.524302 509.751805,246.54596 509.161393,247.36123 L490.222371,273.506809 C487.207872,277.668562 482.341519,280.152724 477.204462,280.152724 L86.6790309,280.152724 C85.6732758,280.152724 84.7995137,279.617382 84.3422804,278.721059 C83.8846519,277.824341 83.9640849,276.802288 84.5544967,275.987413 M86.6790309,281.25583 L477.204462,281.25583 C482.694028,281.25583 487.89392,278.600864 491.115103,274.154044 L510.054124,248.008464 C510.113402,247.926621 510.16122,247.839638 510.21299,247.754236 L510.21299,246.014967 C510.21299,245.996384 510.21299,245.978196 510.21299,245.959614 L510.21299,245.672174 L510.21299,245.675337 C510.128815,244.088288 508.853541,242.643971 507.036858,242.643971 L116.511823,242.643971 C111.181913,242.643971 106.174873,245.200092 103.04735,249.518019 L84.1083287,275.663994 C83.6910095,276.24006 83.5080371,276.878991 83.5052708,277.503689 L83.4985526,277.503689 L83.4985526,279.4533 C84.1711637,280.567871 85.3622623,281.25583 86.6790309,281.25583" id="Fill-31" fill="#8D989B"></path>
        <path d="M111.607452,259.973443 C111.607452,260.252581 111.072762,260.479132 110.412797,260.479132 C109.753227,260.479132 109.218537,260.252581 109.218537,259.973443 C109.218537,259.694306 109.753227,259.467754 110.412797,259.467754 C111.072762,259.467754 111.607452,259.694306 111.607452,259.973443" id="Fill-32" fill="#0D232B"></path>
        <g id="编组" transform="translate(110.123756, 243.427848)">
            <mask id="mask-8" fill="white">
                <use xlink:href="#path-7"></use>
            </mask>
            <g id="Clip-34"></g>
            <polygon id="Fill-33" fill="#D76149" mask="url(#mask-8)" points="25.9931387 0.379958592 25.9931387 36.1126721 0.109862447 36.1126721"></polygon>
        </g>
        <polygon id="Fill-35" fill="#8EB7C6" points="279.706717 279.601013 285.287967 279.601013 285.287967 237.679442 279.706717 237.679442"></polygon>
        <path d="M326.946463,216.78085 L240.206109,216.78085 L240.206109,120.41489 C240.206109,111.270975 247.683869,103.789626 256.823397,103.789626 L310.32957,103.789626 C319.468703,103.789626 326.946463,111.270975 326.946463,120.41489 L326.946463,216.78085 Z" id="Fill-36" fill="#A3D6CA"></path>
        <path d="M326.946463,219.249078 L240.206109,219.249078 L240.206109,122.882723 C240.206109,113.739203 247.683869,106.257854 256.823397,106.257854 L310.32957,106.257854 C319.468703,106.257854 326.946463,113.739203 326.946463,122.882723 L326.946463,219.249078 Z" id="Fill-37" fill="#7AC4B2"></path>
        <path d="M255.048289,145.01197 C254.86255,145.563523 255.975797,188.224056 255.975797,188.224056 L312.846606,188.224056 L312.753737,142.805363 L255.048289,145.01197 Z" id="Fill-39" fill="#FAF8DC"></path>
        <path d="M310.227651,176.221753 C310.227651,176.221753 301.268329,179.669452 300.027832,183.944283 C299.38565,186.158006 298.952524,186.499218 298.834362,188.223858 L312.846566,188.223858 L312.757254,145.100732 L307.792894,148.137633 C307.792894,148.137633 310.778939,168.361631 310.227651,176.221753" id="Fill-40" fill="#E6BB65" opacity="0.907203311"></path>
        <path d="M284.334821,180.7244 C282.956403,174.518937 261.178741,171.761173 261.178741,171.761173 L260.627453,148.089476 L254.909815,145.989226 C254.90196,153.886514 255.857921,188.176096 255.857921,188.176096 L287.454045,188.176096 C287.154887,184.399442 285.121641,184.26699 284.334821,180.7244" id="Fill-41" fill="#E6BB65"></path>
        <path d="M295.341606,90.9320008 C300.564419,90.7082167 298.668699,82.5598643 298.555675,79.0579983 C298.442651,75.5561322 299.981911,73.211934 294.928238,67.7877385 C288.687419,61.0900293 285.177749,66.0686334 279.582668,66.6846329 C273.987587,67.300237 271.025648,73.0775054 271.978843,78.7278573 C272.931643,84.3782093 268.271578,91.1889967 277.184663,97.2497514 C287.659929,104.372492 295.341606,90.9320008 295.341606,90.9320008" id="Fill-42" fill="#093140"></path>
        <path d="M278.842598,130.071966 C280.143954,131.48663 281.646461,132.906829 283.459587,133.740682 C286.114069,133.731984 288.740493,133.830038 291.223859,133.775475 C293.518719,132.927784 295.41602,131.499282 297.282101,129.66789 C300.638833,126.373202 302.828969,124.457198 305.265702,120.373731 C296.415847,117.44635 294.978151,116.990874 294.068031,113.528546 C293.062276,109.702074 294.035626,89.3396936 294.035626,89.3396936 L276.37504,89.6417626 C276.37504,89.6417626 275.772377,109.737263 275.236897,113.090071 C274.913237,115.116385 272.507724,116.532235 269.065235,118.065512 C271.887673,122.355763 275.343993,126.268031 278.842598,130.071966" id="Fill-43" fill="#FFD6CB"></path>
        <path d="M276.374882,89.6418022 C276.374882,89.6418022 276.210879,95.1098847 275.978112,100.81638 C277.770293,104.738929 281.137696,107.298608 286.244719,107.3421 C289.805368,107.36859 292.138167,105.999 293.619334,103.729923 C293.672685,96.942068 294.035468,89.3397331 294.035468,89.3397331 L276.374882,89.6418022 Z" id="Fill-46" fill="#F6BCAC"></path>
        <path d="M281.383665,89.5497186 C281.395872,92.7151176 278.840582,95.2914029 275.676702,95.3037035 C272.512427,95.3159164 269.937772,92.7597954 269.925478,89.5940009 C269.913271,86.4282065 272.468165,83.8523166 275.632441,83.8400159 C278.796321,83.8278031 281.371371,86.3839241 281.383665,89.5497186" id="Fill-47" fill="#FFD6CB"></path>
        <path d="M278.673677,89.5601565 C278.679978,91.2282578 277.33357,92.585987 275.666269,92.5923381 C273.998573,92.5990345 272.64189,91.2515851 272.63515,89.5834839 C272.628849,87.9153826 273.975257,86.5576534 275.642953,86.5513051 C277.310254,86.5450013 278.667332,87.8920553 278.673677,89.5601565" id="Fill-48" fill="#F6BCAC"></path>
        <path d="M300.735935,89.4503204 C300.748142,92.6157195 298.192852,95.1920048 295.028972,95.2043054 C291.864696,95.2165183 289.290042,92.6603972 289.277748,89.4946028 C289.265541,86.3288084 291.820435,83.7529185 294.984711,83.7406178 C298.148591,83.728405 300.723641,86.284526 300.735935,89.4503204" id="Fill-49" fill="#FFD6CB"></path>
        <path d="M298.025868,89.4607189 C298.032169,91.1288201 296.685761,92.4865494 295.01846,92.4929005 C293.351159,92.4995969 291.994081,91.1521475 291.987733,89.4840462 C291.98104,87.815945 293.327843,86.4582157 294.995144,86.4518675 C296.662445,86.4455636 298.019523,87.7926176 298.025868,89.4607189" id="Fill-50" fill="#F6BCAC"></path>
        <path d="M296.322069,89.3964304 C296.353289,97.4751962 294.409356,104.021475 286.658125,103.96375 C278.594696,103.894559 274.862534,97.5582256 274.831315,89.4794598 C274.800095,81.400694 275.286572,71.4189723 286.244758,71.5569593 C296.726742,71.6890157 296.290849,81.3176646 296.322069,89.3964304" id="Fill-51" fill="#FFD6CB"></path>
        <path d="M281.536446,86.1899911 C281.538022,86.6367686 281.17761,87.0001213 280.731046,87.0021034 C280.284878,87.0036797 279.921305,86.6430946 279.919716,86.1963171 C279.917748,85.7495396 280.278555,85.3857915 280.725119,85.3842048 C281.171287,85.3826285 281.53486,85.7432135 281.536446,86.1899911" id="Fill-52" fill="#000000"></path>
        <path d="M292.538934,86.3096721 C292.540509,86.7030735 292.222777,87.02333 291.829564,87.0249148 C291.436352,87.0260976 291.116249,86.7086088 291.114662,86.3152074 C291.113087,85.9218059 291.430819,85.6015495 291.824032,85.5999621 C292.217244,85.5983864 292.537347,85.9162706 292.538934,86.3096721" id="Fill-53" fill="#000000"></path>
        <path d="M277.351749,82.8667174 C280.873275,80.526473 284.430763,82.8773926 283.848255,83.4111534 C283.447929,83.7776691 283.166555,82.3906819 278.329445,83.1332024 C277.647745,83.2783063 277.450941,83.3099366 277.518123,83.2996567 C277.268364,83.3368223 277.141113,83.0074721 277.351749,82.8667174" id="Fill-56" fill="#093140"></path>
        <path d="M288.470382,82.9126604 C291.991908,80.5724159 295.549396,82.9233356 294.966888,83.4570964 C294.566562,83.8236121 294.285187,82.4366249 289.448078,83.1791454 C288.766378,83.3242492 288.569574,83.3558795 288.636756,83.3455997 C288.386997,83.3827652 288.259746,83.0534151 288.470382,82.9126604" id="Fill-57" fill="#093140"></path>
        <path d="M283.318742,94.8936918 C283.319532,95.3357248 284.598758,95.6919607 286.175956,95.6895885 C287.753154,95.6872162 289.031194,95.3270265 289.030404,94.8853889 C289.030008,94.4433559 287.731418,94.7754737 286.153825,94.777846 C284.576627,94.7798229 283.318347,94.4520542 283.318742,94.8936918" id="Fill-58" fill="#ED6D53"></path>
        <path d="M277.331317,74.9467751 C283.766174,78.7598039 283.918322,79.068199 287.209453,78.7277783 C290.500584,78.3873575 294.744515,74.1311096 294.744515,74.1311096 C294.744515,74.1311096 291.183865,69.4312472 286.27167,69.839673 C281.359475,70.2484942 277.331317,74.9467751 277.331317,74.9467751 L277.331317,74.9467751 Z M296.275476,83.2074149 C296.316576,84.1072961 296.433156,87.8001298 296.237538,88.8980955 L297.994942,87.8637857 L298.07556,83.4845752 L296.275476,83.2074149 Z M275.013141,83.6581463 C274.982711,84.5584228 274.733347,87.8369 274.942007,88.9324934 L273.460445,88.5877235 L273.216218,83.9570523 L275.013141,83.6581463 Z" id="Fill-59" fill="#093140"></path>
        <path d="M288.744801,89.7350719 C289.98925,87.6538003 291.185091,85.5594812 292.228389,83.3477347 L288.989422,83.3477347 C287.707035,83.3477347 286.658204,84.3970689 286.658204,85.6800716 L286.658204,87.4276439 C286.658204,88.6268264 287.577808,89.6105277 288.744801,89.7350719 M293.178817,89.7599808 L293.561755,89.7599808 C294.843747,89.7599808 295.892973,88.7106466 295.892973,87.4276439 L295.892973,85.6800716 C295.892973,85.3882824 295.832509,85.1115175 295.733712,84.8537308 C294.957166,86.544764 294.093679,88.1673968 293.178817,89.7599808 M284.147966,83.6917139 C282.817366,85.7089342 281.533398,87.7569941 280.183829,89.7599808 L282.948569,89.7599808 C284.230561,89.7599808 285.279786,88.7106466 285.279786,87.4276439 L285.279786,85.6800716 C285.279786,84.837125 284.822158,84.1017212 284.147966,83.6917139 M276.360378,88.5746365 C276.165155,88.2342157 276.045018,87.8463496 276.045018,87.4276439 L276.045018,85.6800716 C276.045018,84.3970689 277.093849,83.3477347 278.375841,83.3477347 L279.79852,83.3477347 C278.664724,85.09847 277.541202,86.8563222 276.360378,88.5746365" id="Fill-60" fill="#FFFFFF"></path>
        <path d="M278.376117,83.8991689 C277.394864,83.8991689 276.596188,84.6982285 276.596188,85.679953 L276.596188,87.4275253 C276.596188,88.4096451 277.394864,89.2083094 278.376117,89.2083094 L282.94845,89.2083094 C283.930099,89.2083094 284.72838,88.4096451 284.72838,87.4275253 L284.72838,85.679953 C284.72838,84.6982285 283.930099,83.8991689 282.94845,83.8991689 L278.376117,83.8991689 Z M282.94845,90.3114149 L278.376117,90.3114149 C276.786668,90.3114149 275.493611,89.017737 275.493611,87.4275253 L275.493611,85.679953 C275.493611,84.0897413 276.786668,82.7960633 278.376117,82.7960633 L282.94845,82.7960633 C284.537899,82.7960633 285.830956,84.0897413 285.830956,85.679953 L285.830956,87.4275253 C285.830956,89.017737 284.537899,90.3114149 282.94845,90.3114149 L282.94845,90.3114149 Z" id="Fill-61" fill="#0D232B"></path>
        <path d="M288.989264,83.8991689 C288.008011,83.8991689 287.209335,84.6982285 287.209335,85.679953 L287.209335,87.4275253 C287.209335,88.4096451 288.008011,89.2083094 288.989264,89.2083094 L293.561597,89.2083094 C294.543246,89.2083094 295.341527,88.4096451 295.341527,87.4275253 L295.341527,85.679953 C295.341527,84.6982285 294.543246,83.8991689 293.561597,83.8991689 L288.989264,83.8991689 Z M293.561597,90.3114149 L288.989264,90.3114149 C287.399816,90.3114149 286.106758,89.017737 286.106758,87.4275253 L286.106758,85.679953 C286.106758,84.0897413 287.399816,82.7960633 288.989264,82.7960633 L293.561597,82.7960633 C295.151046,82.7960633 296.444103,84.0897413 296.444103,85.679953 L296.444103,87.4275253 C296.444103,89.017737 295.151046,90.3114149 293.561597,90.3114149 L293.561597,90.3114149 Z" id="Fill-62" fill="#0D232B"></path>
        <path d="M286.07127,86.0187527 L288.698484,90.9044429 C289.009103,91.4820907 288.605615,92.1858642 287.949997,92.2084007 L284.962371,92.3123852 L286.07127,86.0187527 Z" id="Fill-63" fill="#EAB3A4"></path>
        <polygon id="Fill-64" fill="#41B093" points="282.021456 185.841545 280.590083 186.181571 275.207218 163.512553 276.638591 163.172528"></polygon>
        <path d="M271.117213,86.0797596 C271.117213,85.0276578 271.408072,84.2495532 271.95857,83.852198 C272.472315,83.4821238 273.16429,83.4374461 274.013551,83.7201416 C274.996385,84.0479102 276.179975,84.593137 276.229769,84.6160689 L275.767793,85.618353 C275.755937,85.6128177 274.588945,85.0751032 273.665389,84.7674988 C273.325132,84.6540252 272.865132,84.5579483 272.603122,84.7469392 C272.490494,84.8283871 272.360081,84.9074628 272.297641,85.1059427 C271.868071,85.290189 271.117213,86.0797596 271.117213,86.0797596" id="Fill-65" fill="#0D232B"></path>
        <path d="M299.64363,86.090158 C299.64363,86.090158 298.962719,85.3373576 298.593613,84.9929831 C298.584129,84.8035969 298.561208,84.611443 298.516551,84.4469656 C298.200796,84.3864727 297.17291,84.6355611 296.009079,85.2393038 L295.501262,84.2599516 C296.067172,83.9665809 297.991346,83.0382326 298.979713,83.4395416 C299.252788,83.5506429 299.451568,83.7582165 299.54009,84.0235154 C299.802891,84.8122952 299.659437,85.9739168 299.64363,86.090158" id="Fill-66" fill="#0D232B"></path>
        <path d="M266.170953,176.459612 C266.170953,176.459612 276.647009,174.524631 278.500444,176.298298 C280.353878,178.071965 281.723602,183.312705 281.723602,183.312705 C281.723602,183.312705 282.690629,184.844401 282.61001,185.731235 C282.529392,186.618068 282.287932,188.224095 282.287932,188.224095 L264.317518,188.224095 L264.236899,180.248918 L266.170953,176.459612 Z" id="Fill-67" fill="#FFD6CB"></path>
        <polygon id="Fill-68" fill="#0D232B" points="285.233826 86.1285493 286.796007 86.1285493 286.796007 85.0254437 285.233826 85.0254437"></polygon>
        <path d="M273.242221,115.041579 C273.242221,115.041579 250.336296,119.105278 241.816029,141.884606 C233.079198,165.243164 228.216402,176.451744 234.280967,182.51922 C242.436475,190.678643 255.599419,188.040284 266.625973,188.224135 C266.625973,188.224135 265.339634,184.725827 265.523397,180.864167 C265.707159,177.003297 266.809736,173.509734 266.809736,173.509734 L250.821193,172.498356 L260.74517,148.13791 L307.792775,148.13791 C307.792775,148.13791 311.468425,149.607136 314.592391,159.903579 C317.817526,170.53293 316.614177,188.224135 316.614177,188.224135 L325.951694,188.224135 C329.868409,188.224135 333.026361,185.201863 332.977149,181.283268 C332.840228,170.559421 331.999661,166.541579 327.824493,152.182631 C321.943691,131.957447 308.895352,118.62687 296.030775,116.052957 C296.030775,116.052957 289.96621,124.78647 285.55551,125.154567 C281.144809,125.521873 273.242221,115.041579 273.242221,115.041579" id="Fill-69" fill="#FCC14A"></path>
        <path d="M302.18738,188.224056 C302.18738,188.224056 301.911538,182.611265 304.668374,179.761377 C307.42521,176.91149 312.637749,176.016749 314.518452,176.004888 C316.399154,175.993026 318.451764,174.677207 318.451764,174.677207 C318.451764,174.677207 325.619301,174.953181 326.538115,181.677776 C327.456928,188.403162 326.538115,188.224056 326.538115,188.224056 L302.18738,188.224056 Z" id="Fill-70" fill="#FFD6CB"></path>
        <path d="M243.225469,237.679363 C237.358499,237.679363 232.558142,232.877098 232.558142,227.006915 L232.558142,221.507598 C232.558142,215.637416 237.358499,210.834755 243.225469,210.834755 L325.427081,210.834755 C331.294052,210.834755 336.094409,215.637416 336.094409,221.507598 L336.094409,227.006915 C336.094409,232.877098 331.294052,237.679363 325.427081,237.679363 L243.225469,237.679363 Z" id="Fill-71" fill="#7AC4B2"></path>
        <path d="M307.244253,219.411262 L267.174495,219.411262 C263.032127,219.411262 259.642594,216.020102 259.642594,211.875746 L259.642594,205.49948 C259.642594,201.355124 263.032127,197.963964 267.174495,197.963964 L307.244253,197.963964 C311.386621,197.963964 314.776154,201.355124 314.776154,205.49948 L314.776154,211.875746 C314.776154,216.020102 311.386621,219.411262 307.244253,219.411262" id="Fill-72" fill="#035E80"></path>
        <path d="M253.393634,201.273637 C267.434687,198.031929 270.669306,212.305879 271.036832,228.118245 C271.404357,243.931006 274.712086,279.600855 274.712086,279.600855 L250.08551,279.600855 C250.08551,279.600855 245.307284,243.931006 244.572233,228.853649 C243.837182,213.776686 243.837182,203.480243 253.393634,201.273637" id="Fill-73" fill="#035E80"></path>
        <path d="M307.315545,200.779216 C317.484145,199.151443 325.435341,205.318555 320.657115,227.014942 C315.878889,248.711328 306.689962,279.601053 306.689962,279.601053 L283.166357,279.601053 C283.166357,279.601053 292.257277,236.108644 294.744199,224.624879 C297.13351,213.592637 298.126619,202.250419 307.315545,200.779216" id="Fill-74" fill="#035E80"></path>
        <path d="M236.76204,187.943337 L175.662317,187.943337 L175.662317,175.532411 L236.76204,175.532411 C238.69807,178.098416 238.986952,185.26109 236.76204,187.943337" id="Fill-76" fill="#46ACC3"></path>
        <polygon id="Fill-77" fill="#E6E5CE" points="175.661843 186.74799 189.806435 186.74799 189.806435 176.543274 175.661843 176.543274"></polygon>
        <path d="M240.34573,175.532371 L182.471141,175.532371 L182.471141,164.776103 L240.34573,164.776103 C241.81188,167.104882 241.820178,173.230478 240.34573,175.532371" id="Fill-79" fill="#FCC14A"></path>
        <polygon id="Fill-80" fill="#E6E5CE" points="182.470944 174.677089 201.017147 174.677089 201.017147 165.514986 182.470944 165.514986"></polygon>
        <path d="M233.729718,164.776064 L178.10652,164.776064 L178.10652,155.398875 L233.729718,155.398875 C234.709786,157.55171 235.19982,162.868363 233.729718,164.776064" id="Fill-82" fill="#035E80"></path>
        <polygon id="Fill-83" fill="#035E80" points="178.10648 163.305217 189.806435 163.305217 189.806435 156.594065 178.10648 156.594065"></polygon>
        <polygon id="Fill-84" fill="#E6E5CE" points="177.941291 164.05861 189.849116 164.05861 189.849116 156.11625 177.941291 156.11625"></polygon>
        <path d="M378.446935,184.402131 L327.62765,184.402131 L332.454879,154.904534 C332.751271,153.094492 334.314637,151.765625 336.147522,151.765625 L380.803445,151.765625 C382.367207,151.765625 383.5587,153.168427 383.30578,154.712775 L378.446935,184.402131 Z" id="Fill-85" fill="#E6E5CE"></path>
        <path d="M314.361048,188.224056 L378.446816,188.224056 L378.446816,184.401933 L318.014567,184.401933 C315.996734,184.401933 314.361048,186.038799 314.361048,188.057206 L314.361048,188.224056 Z" id="Fill-86" fill="#9EB1B8"></path>
        <path d="M361.913941,168.602812 C361.913941,171.058902 359.923771,173.050028 357.468859,173.050028 C355.013947,173.050028 353.023382,171.058902 353.023382,168.602812 C353.023382,166.146722 355.013947,164.155596 357.468859,164.155596 C359.923771,164.155596 361.913941,166.146722 361.913941,168.602812" id="Fill-87" fill="#FAF8DC"></path>
        <polygon id="Fill-88" fill="#D6B88D" points="183.297915 279.601053 175.41153 279.601053 186.43927 200.779216 194.325655 200.779216"></polygon>
        <polygon id="Fill-89" fill="#D6B88D" points="398.163016 279.601053 406.049401 279.601053 395.021661 200.779216 387.135276 200.779216"></polygon>
        <path d="M411.84172,201.273637 L169.928169,201.273637 C169.136211,201.273637 168.488102,200.625216 168.488102,199.832878 L168.488102,189.475942 C168.488102,188.683604 169.136211,188.035183 169.928169,188.035183 L411.84172,188.035183 C412.633678,188.035183 413.281788,188.683604 413.281788,189.475942 L413.281788,199.832878 C413.281788,200.625216 412.633678,201.273637 411.84172,201.273637" id="Fill-90" fill="#D6B88D"></path>
        <path d="M411.84172,188.035223 L169.928565,188.035223 C169.136211,188.035223 168.488102,188.683643 168.488102,189.475982 L168.488102,191.131035 C168.488102,190.338697 169.136211,189.690277 169.928565,189.690277 L411.84172,189.690277 C412.633678,189.690277 413.281788,190.338697 413.281788,191.131035 L413.281788,189.475982 C413.281788,188.683643 412.633678,188.035223 411.84172,188.035223" id="Fill-91" fill="#E6E5CE"></path>
        <polygon id="Fill-92" fill="#C1A379" points="185.44462 207.889661 193.331004 207.889661 194.325694 200.779176 186.439309 200.779176"></polygon>
        <polygon id="Fill-93" fill="#C1A379" points="395.021582 200.779216 387.135197 200.779216 388.129887 207.8897 396.016272 207.8897"></polygon>
        <path d="M117.706162,142.580433 L107.656514,177.85174 L74.7246531,193.974082 C72.3377136,189.105393 71,183.633752 71,177.85174 C71,157.59967 87.4106042,141.181189 107.656514,141.181189 C111.141683,141.181189 114.513037,141.666713 117.706162,142.580433" id="Fill-94" fill="#639BB0"></path>
        <path d="M107.656317,177.85174 L144.309274,177.85174 C144.309274,177.941095 144.309274,178.026497 144.305718,178.115852 C132.461518,178.240792 107.656317,177.85174 107.656317,177.85174" id="Fill-95" fill="#F29D7E"></path>
        <path d="M136.73165,155.526187 L107.656435,177.851621 L117.706083,142.580314 C125.369186,144.757662 132.004799,149.369356 136.73165,155.526187" id="Fill-96" fill="#FAF8DC"></path>
        <path d="M144.309116,177.85174 L107.656159,177.85174 L136.731769,155.526306 C141.483517,161.708046 144.309116,169.44995 144.309116,177.85174" id="Fill-97" fill="#FCC14A"></path>
        <path d="M144.305559,178.115813 C144.280663,182.198885 143.585131,186.124992 142.322108,189.787382 L107.656159,177.8517 C107.656159,177.8517 132.46136,178.240752 144.305559,178.115813" id="Fill-98" fill="#7AC4B2"></path>
        <path d="M142.321989,189.787223 C137.373832,204.182158 123.720854,214.525651 107.656435,214.525651 C93.1937159,214.525651 80.6859949,206.145212 74.7245741,193.973885 L107.656435,177.851937 L142.321989,189.787223 Z" id="Fill-99" fill="#E85F5B"></path>
        <path d="M416.145088,86.2102344 L416.145088,92.2326374 C404.758912,92.2326374 395.529676,101.466303 395.529676,112.857944 C395.529676,118.540717 397.826908,123.688939 401.544447,127.418938 L397.2772,131.672418 C392.476053,126.850779 389.507396,120.200516 389.507396,112.857944 C389.507396,98.1411714 401.433004,86.2102344 416.145088,86.2102344" id="Fill-100" fill="#F9D4D3"></path>
        <path d="M442.779973,112.857944 C442.779973,127.577089 430.85476,139.508026 416.145048,139.508026 C408.772013,139.508026 402.101624,136.51264 397.277161,131.672418 L401.544408,127.418938 C405.277755,131.166729 410.438919,133.485623 416.145048,133.485623 C427.531224,133.485623 436.76046,124.249585 436.76046,112.857944 C436.76046,101.466303 427.531224,92.2326374 416.145048,92.2326374 L416.145048,86.2102344 C430.85476,86.2102344 442.779973,98.1411714 442.779973,112.857944" id="Fill-101" fill="#E85F5B"></path>
        <path d="M436.760301,112.857944 C436.760301,124.249585 427.531066,133.485623 416.14489,133.485623 C410.439156,133.485623 405.277597,131.166729 401.54425,127.418938 C397.82671,123.689334 395.529874,118.540717 395.529874,112.857944 C395.529874,101.466303 404.75911,92.2326374 416.14489,92.2326374 C427.531066,92.2326374 436.760301,101.466303 436.760301,112.857944" id="Fill-102" fill="#FAF8DC"></path>
        <path d="M477.540293,86.2102344 L477.540293,92.2326374 C466.154118,92.2326374 456.924882,101.466303 456.924882,112.857944 C456.924882,118.540717 459.222113,123.688939 462.939653,127.418938 L458.672406,131.672418 C453.871259,126.850779 450.902602,120.200516 450.902602,112.857944 C450.902602,98.1411714 462.82821,86.2102344 477.540293,86.2102344" id="Fill-103" fill="#BBD4DD"></path>
        <path d="M504.175179,112.857944 C504.175179,127.577089 492.249966,139.508026 477.540254,139.508026 C470.167219,139.508026 463.49683,136.51264 458.672366,131.672418 L462.939614,127.418938 C466.672961,131.166729 471.834125,133.485623 477.540254,133.485623 C488.926429,133.485623 498.155665,124.249585 498.155665,112.857944 C498.155665,101.466303 488.926429,92.2326374 477.540254,92.2326374 L477.540254,86.2102344 C492.249966,86.2102344 504.175179,98.1411714 504.175179,112.857944" id="Fill-104" fill="#035E80"></path>
        <path d="M498.155507,112.857944 C498.155507,124.249585 488.926271,133.485623 477.540096,133.485623 C471.834362,133.485623 466.672803,131.166729 462.939456,127.418938 C459.221916,123.689334 456.925079,118.540717 456.925079,112.857944 C456.925079,101.466303 466.154315,92.2326374 477.540096,92.2326374 C488.926271,92.2326374 498.155507,101.466303 498.155507,112.857944" id="Fill-105" fill="#FAF8DC"></path>
        <path d="M377.643991,111.992263 C374.701811,115.95435 369.988791,118.520751 364.676665,118.520751 C355.757653,118.520751 348.528466,111.287699 348.528466,102.364405 C348.528466,93.4430882 355.757653,86.2104321 364.676665,86.2104321 L364.676665,89.8609604 L364.676665,102.947984 L374.712876,109.816101 L377.643991,111.992263 Z" id="Fill-106" fill="#B3DFD4"></path>
        <path d="M380.823363,102.364563 C380.823363,105.9716 379.641748,109.303453 377.64407,111.992422 L374.712956,109.816259 L364.676744,102.948142 L364.676744,89.8611185 L364.676744,86.2101949 C373.594176,86.2101949 380.823363,93.4432464 380.823363,102.364563" id="Fill-107" fill="#41B093"></path>
        <path d="M375.847305,102.364761 C375.847305,104.860785 375.02966,107.16584 373.64729,109.024909 C371.612068,111.765672 368.351367,113.542107 364.676507,113.542107 C361.584946,113.542107 358.787801,112.285595 356.765226,110.254931 C354.750554,108.233757 353.506105,105.443968 353.506105,102.364761 C353.506105,96.1921143 358.506822,91.1886013 364.676507,91.1886013 C370.846193,91.1886013 375.847305,96.1921143 375.847305,102.364761" id="Fill-108" fill="#FFFFFF"></path>
        <polygon id="Fill-109" fill="#3A829C" points="470.419626 218.999001 478.908278 218.999001 478.908278 151.765704 470.419626 151.765704"></polygon>
        <polygon id="Fill-110" fill="#3F859E" points="459.940013 218.999001 468.428665 218.999001 468.428665 164.294849 459.940013 164.294849"></polygon>
        <polygon id="Fill-111" fill="#3F859E" points="491.378852 218.999001 499.867504 218.999001 499.867504 164.294849 491.378852 164.294849"></polygon>
        <polygon id="Fill-112" fill="#035E80" points="449.460005 218.999001 457.948657 218.999001 457.948657 174.841171 449.460005 174.841171"></polygon>
        <polygon id="Fill-113" fill="#035E80" points="480.899239 218.999001 489.387891 218.999001 489.387891 174.841171 480.899239 174.841171"></polygon>
        <polygon id="Fill-114" fill="#3A829C" points="438.980392 218.999001 447.469045 218.999001 447.469045 187.429226 438.980392 187.429226"></polygon>
        <polygon id="Fill-115" fill="#3A829C" points="501.85886 218.999001 510.347512 218.999001 510.347512 187.429226 501.85886 187.429226"></polygon>
        <polygon id="Fill-116" fill="#267592" points="428.50078 218.999001 436.989432 218.999001 436.989432 198.172447 428.50078 198.172447"></polygon>
        <polygon id="Fill-117" fill="#E6E5CE" points="422.374565 222.590223 517.864 222.590223 517.864 218.999001 422.374565 218.999001"></polygon>
        <path d="M303.099594,47.0021452 C307.56325,47.0021452 311.181597,43.382061 311.181597,38.9162626 C311.181597,34.4504642 307.56325,30.83038 303.099594,30.83038 C302.129406,30.83038 301.203083,31.0102772 300.341177,31.3242076 C298.935886,25.9589234 294.057677,22 288.254332,22 C282.639887,22 277.890509,25.7046951 276.314892,30.804285 C275.01077,30.0253897 273.491269,29.5695185 271.861511,29.5695185 C267.050089,29.5695185 263.149182,33.4719028 263.149182,38.2856341 C263.149182,43.0997609 267.050089,47.0021452 271.861511,47.0021452 L303.099594,47.0021452 Z" id="Fill-118" fill="#CEEAE3"></path>
        <polygon id="Fill-119" fill="#FFFFFF" points="166.615184 111.834073 180.990567 111.834073 180.990567 48.6889874 166.615184 48.6889874"></polygon>
        <polygon id="Fill-120" fill="#FFFFFF" points="183.748588 111.834073 198.123971 111.834073 198.123971 46.8714331 183.748588 46.8714331"></polygon>
        <polygon id="Fill-121" fill="#FFFFFF" points="200.882388 111.834073 215.25777 111.834073 215.25777 36.6390415 200.882388 36.6390415"></polygon>
        <polygon id="Fill-122" fill="#FFFFFF" points="149.481385 111.834073 163.856767 111.834073 163.856767 65.1513556 149.481385 65.1513556"></polygon>
        <polygon id="Fill-123" fill="#FFFFFF" points="132.347981 111.834073 146.723363 111.834073 146.723363 70.3616515 132.347981 70.3616515"></polygon>
        <polygon id="Fill-124" fill="#FFFFFF" points="115.214181 111.834073 129.589564 111.834073 129.589564 82.1838595 115.214181 82.1838595"></polygon>
        <polygon id="Fill-125" fill="#FFFFFF" points="98.080777 111.834073 112.45616 111.834073 112.45616 92.2735195 98.080777 92.2735195"></polygon>
        <polygon id="Fill-126" fill="#F1917E" points="166.615184 111.834468 180.990567 111.834468 180.990567 62.9502844 166.615184 62.9502844"></polygon>
        <polygon id="Fill-127" fill="#F1917E" points="183.748588 111.834468 198.123971 111.834468 198.123971 61.5431328 183.748588 61.5431328"></polygon>
        <polygon id="Fill-128" fill="#F1917E" points="200.882388 111.834468 215.25777 111.834468 215.25777 45.9929024 200.882388 45.9929024"></polygon>
        <polygon id="Fill-129" fill="#F1917E" points="149.481385 111.834468 163.856767 111.834468 163.856767 72.0598015 149.481385 72.0598015"></polygon>
        <polygon id="Fill-130" fill="#F1917E" points="132.347981 111.834468 146.723363 111.834468 146.723363 76.1756901 132.347981 76.1756901"></polygon>
        <polygon id="Fill-131" fill="#F1917E" points="115.214181 111.834468 129.589564 111.834468 129.589564 88.8803826 115.214181 88.8803826"></polygon>
        <polygon id="Fill-132" fill="#F1917E" points="98.080777 111.834468 112.45616 111.834468 112.45616 96.6914772 98.080777 96.6914772"></polygon>
        <polygon id="Fill-133" fill="#FCC85E" points="166.614789 111.834468 180.990172 111.834468 180.990172 77.3740819 166.614789 77.3740819"></polygon>
        <polygon id="Fill-134" fill="#FCC85E" points="183.748588 111.834468 198.123971 111.834468 198.123971 71.1199872 183.748588 71.1199872"></polygon>
        <polygon id="Fill-135" fill="#FCC85E" points="200.881993 111.834468 215.257375 111.834468 215.257375 77.1977431 200.881993 77.1977431"></polygon>
        <polygon id="Fill-136" fill="#FCC85E" points="149.481385 111.834468 163.856767 111.834468 163.856767 88.1683062 149.481385 88.1683062"></polygon>
        <polygon id="Fill-137" fill="#FCC85E" points="132.347585 111.834468 146.722968 111.834468 146.722968 92.7309723 132.347585 92.7309723"></polygon>
        <polygon id="Fill-138" fill="#FCC85E" points="115.214181 111.834468 129.589564 111.834468 129.589564 98.1769136 115.214181 98.1769136"></polygon>
        <polygon id="Fill-139" fill="#FCC85E" points="98.0803818 111.834468 112.455764 111.834468 112.455764 99.0281632 98.0803818 99.0281632"></polygon>
        <polygon id="Fill-140" fill="#315A69" points="166.614789 111.834468 180.990172 111.834468 180.990172 99.1183095 166.614789 99.1183095"></polygon>
        <polygon id="Fill-141" fill="#315A69" points="183.748193 111.834468 198.123576 111.834468 198.123576 89.5750623 183.748193 89.5750623"></polygon>
        <polygon id="Fill-142" fill="#315A69" points="200.881993 111.834468 215.257375 111.834468 215.257375 86.9920556 200.881993 86.9920556"></polygon>
        <polygon id="Fill-143" fill="#315A69" points="149.48099 111.834468 163.856372 111.834468 163.856372 101.487812 149.48099 101.487812"></polygon>
        <polygon id="Fill-144" fill="#315A69" points="132.347585 111.834468 146.722968 111.834468 146.722968 103.482496 132.347585 103.482496"></polygon>
        <polygon id="Fill-145" fill="#315A69" points="115.213786 111.834468 129.589169 111.834468 129.589169 101.729388 115.213786 101.729388"></polygon>
        <polygon id="Fill-146" fill="#315A69" points="98.0803818 111.834468 112.455764 111.834468 112.455764 107.895313 98.0803818 107.895313"></polygon>
        <polygon id="Fill-147" fill="#184657" points="91.0428622 115.207045 223.548038 115.207045 223.548038 111.834073 91.0428622 111.834073"></polygon>
        <path d="M105.268429,92.7237764 C105.114305,92.7237764 104.964133,92.6447007 104.880353,92.5019691 C104.754288,92.2876741 104.825817,92.0120954 105.04001,91.8859697 L122.173414,81.7963096 L139.280341,69.9911029 C139.318674,69.9650079 139.360564,69.9448437 139.404825,69.9314008 L156.43627,64.7519444 L173.62184,48.3635119 C173.693764,48.2947161 173.786238,48.2520152 173.885035,48.2417354 L191.046498,46.434461 L207.836878,36.2546546 C208.04949,36.1257613 208.326122,36.1937664 208.454558,36.4060846 C208.58339,36.6187981 208.515417,36.8951676 208.303201,37.0240609 L191.426669,47.2564525 C191.369762,47.2908505 191.306532,47.3122009 191.240536,47.3193177 L174.131633,49.1206615 L156.979655,65.4770683 C156.928676,65.5253045 156.867026,65.5612839 156.799844,65.5818436 L139.733227,70.7719752 L122.65673,82.5542499 L105.496057,92.661702 C105.424528,92.7036121 105.345886,92.7237764 105.268429,92.7237764" id="Fill-148" fill="#184657"></path>
        <path d="M104.080413,92.2737568 C104.080413,91.6241501 104.611941,91.0979016 105.267955,91.0979016 C105.923968,91.0979016 106.455496,91.6241501 106.455496,92.2737568 C106.455496,92.9233634 105.923968,93.449612 105.267955,93.449612 C104.611941,93.449612 104.080413,92.9233634 104.080413,92.2737568" id="Fill-149" fill="#FFFFFF"></path>
        <path d="M105.268034,91.5478421 C104.861384,91.5478421 104.530216,91.8736339 104.530216,92.2737568 C104.530216,92.674275 104.861384,92.9996714 105.268034,92.9996714 C105.674683,92.9996714 106.005851,92.674275 106.005851,92.2737568 C106.005851,91.8736339 105.674683,91.5478421 105.268034,91.5478421 M105.268034,93.8995525 C104.365423,93.8995525 103.630767,93.1704749 103.630767,92.2737568 C103.630767,91.377434 104.365423,90.647961 105.268034,90.647961 C106.170644,90.647961 106.9053,91.377434 106.9053,92.2737568 C106.9053,93.1704749 106.170644,93.8995525 105.268034,93.8995525" id="Fill-150" fill="#184657"></path>
        <path d="M138.347695,70.3617306 C138.347695,69.712124 138.879224,69.1858754 139.535237,69.1858754 C140.190855,69.1858754 140.722779,69.712124 140.722779,70.3617306 C140.722779,71.0109418 140.190855,71.5375858 139.535237,71.5375858 C138.879224,71.5375858 138.347695,71.0109418 138.347695,70.3617306" id="Fill-151" fill="#FFFFFF"></path>
        <path d="M139.535198,69.6356182 C139.128549,69.6356182 138.79738,69.96141 138.79738,70.3615329 C138.79738,70.7620512 139.128549,71.0874475 139.535198,71.0874475 C139.941847,71.0874475 140.273015,70.7620512 140.273015,70.3615329 C140.273015,69.96141 139.941847,69.6356182 139.535198,69.6356182 M139.535198,71.9873287 C138.632587,71.9873287 137.897931,71.258251 137.897931,70.3615329 C137.897931,69.4652102 138.632587,68.7357371 139.535198,68.7357371 C140.437809,68.7357371 141.172464,69.4652102 141.172464,70.3615329 C141.172464,71.258251 140.437809,71.9873287 139.535198,71.9873287" id="Fill-152" fill="#184657"></path>
        <path d="M172.631971,48.6890665 C172.631971,48.0394598 173.1635,47.5132112 173.819513,47.5132112 C174.475131,47.5132112 175.007055,48.0394598 175.007055,48.6890665 C175.007055,49.3386731 174.475131,49.8649217 173.819513,49.8649217 C173.1635,49.8649217 172.631971,49.3386731 172.631971,48.6890665" id="Fill-153" fill="#FFFFFF"></path>
        <path d="M173.819553,47.9631518 C173.412903,47.9631518 173.081735,48.2889436 173.081735,48.6890665 C173.081735,49.0891893 173.412903,49.4149811 173.819553,49.4149811 C174.226202,49.4149811 174.55737,49.0891893 174.55737,48.6890665 C174.55737,48.2889436 174.226202,47.9631518 173.819553,47.9631518 M173.819553,50.3148622 C172.916942,50.3148622 172.182286,49.5857845 172.182286,48.6890665 C172.182286,47.7927437 172.916942,47.0632707 173.819553,47.0632707 C174.722163,47.0632707 175.456819,47.7927437 175.456819,48.6890665 C175.456819,49.5857845 174.722163,50.3148622 173.819553,50.3148622" id="Fill-154" fill="#184657"></path>
        <path d="M207.081673,36.6392787 C207.081673,35.9896721 207.613202,35.4634235 208.269215,35.4634235 C208.924833,35.4634235 209.456757,35.9896721 209.456757,36.6392787 C209.456757,37.2888853 208.924833,37.8151339 208.269215,37.8151339 C207.613202,37.8151339 207.081673,37.2888853 207.081673,36.6392787" id="Fill-155" fill="#FFFFFF"></path>
        <path d="M208.269096,35.9134036 C207.862447,35.9134036 207.531674,36.2391954 207.531674,36.6393182 C207.531674,37.0398365 207.862447,37.3652329 208.269096,37.3652329 C208.675745,37.3652329 209.006913,37.0398365 209.006913,36.6393182 C209.006913,36.2391954 208.675745,35.9134036 208.269096,35.9134036 M208.269096,38.265114 C207.366485,38.265114 206.63183,37.5360363 206.63183,36.6393182 C206.63183,35.7429955 207.366485,35.0135225 208.269096,35.0135225 C209.171707,35.0135225 209.906363,35.7429955 209.906363,36.6393182 C209.906363,37.5360363 209.171707,38.265114 208.269096,38.265114" id="Fill-156" fill="#184657"></path>
        <path d="M121.214133,82.1840572 C121.214133,81.5344505 121.745662,81.008202 122.401675,81.008202 C123.057293,81.008202 123.589217,81.5344505 123.589217,82.1840572 C123.589217,82.8336638 123.057293,83.3599124 122.401675,83.3599124 C121.745662,83.3599124 121.214133,82.8336638 121.214133,82.1840572" id="Fill-157" fill="#FFFFFF"></path>
        <path d="M122.401596,81.4579844 C121.994947,81.4579844 121.663779,81.7837761 121.663779,82.183899 C121.663779,82.5844173 121.994947,82.9098137 122.401596,82.9098137 C122.808245,82.9098137 123.139413,82.5844173 123.139413,82.183899 C123.139413,81.7837761 122.808245,81.4579844 122.401596,81.4579844 M122.401596,83.8096948 C121.498985,83.8096948 120.764329,83.0806171 120.764329,82.183899 C120.764329,81.2875763 121.498985,80.5581033 122.401596,80.5581033 C123.304207,80.5581033 124.038862,81.2875763 124.038862,82.183899 C124.038862,83.0806171 123.304207,83.8096948 122.401596,83.8096948" id="Fill-158" fill="#184657"></path>
        <path d="M155.481692,65.1513161 C155.481692,64.5017095 156.013221,63.9754609 156.669234,63.9754609 C157.325247,63.9754609 157.856776,64.5017095 157.856776,65.1513161 C157.856776,65.8009227 157.325247,66.3271713 156.669234,66.3271713 C156.013221,66.3271713 155.481692,65.8009227 155.481692,65.1513161" id="Fill-159" fill="#FFFFFF"></path>
        <path d="M156.669195,64.425441 C156.262546,64.425441 155.931377,64.7512328 155.931377,65.1513556 C155.931377,65.5514785 156.262546,65.8772703 156.669195,65.8772703 C157.075844,65.8772703 157.407012,65.5514785 157.407012,65.1513556 C157.407012,64.7512328 157.075844,64.425441 156.669195,64.425441 M156.669195,66.7771514 C155.766584,66.7771514 155.031928,66.0480737 155.031928,65.1513556 C155.031928,64.2550329 155.766584,63.5255599 156.669195,63.5255599 C157.571806,63.5255599 158.306461,64.2550329 158.306461,65.1513556 C158.306461,66.0480737 157.571806,66.7771514 156.669195,66.7771514" id="Fill-160" fill="#184657"></path>
        <path d="M189.748935,46.8714331 C189.748935,46.2222219 190.280464,45.6955779 190.936477,45.6955779 C191.592095,45.6955779 192.124019,46.2222219 192.124019,46.8714331 C192.124019,47.5210397 191.592095,48.0472883 190.936477,48.0472883 C190.280464,48.0472883 189.748935,47.5210397 189.748935,46.8714331" id="Fill-161" fill="#FFFFFF"></path>
        <path d="M190.936359,46.145558 C190.52971,46.145558 190.198542,46.4713498 190.198542,46.8714727 C190.198542,47.2719909 190.52971,47.5973873 190.936359,47.5973873 C191.343008,47.5973873 191.674176,47.2719909 191.674176,46.8714727 C191.674176,46.4713498 191.343008,46.145558 190.936359,46.145558 M190.936359,48.4972684 C190.033748,48.4972684 189.299092,47.7681907 189.299092,46.8714727 C189.299092,45.9751499 190.033748,45.2456769 190.936359,45.2456769 C191.83897,45.2456769 192.573625,45.9751499 192.573625,46.8714727 C192.573625,47.7681907 191.83897,48.4972684 190.936359,48.4972684" id="Fill-162" fill="#184657"></path>
        <path d="M326.45307,72.8496093 C326.285115,72.8496093 326.115579,72.7986055 325.969359,72.6930395 C325.599067,72.424973 325.516078,71.9078181 325.78362,71.5373486 L349.76683,38.3437548 C349.90475,38.1519963 350.118548,38.0290336 350.35329,38.0049155 C350.588427,37.9815882 350.821983,38.058687 350.995866,38.2184198 L368.355318,54.1521672 L379.789707,36.4111454 C380.000738,36.0837721 380.411339,35.9481573 380.775703,36.0849583 L396.063971,41.8337594 L413.017169,22.289417 C413.316722,21.9442517 413.839162,21.9074815 414.183766,22.2067829 C414.528766,22.5064797 414.565519,23.0291698 414.266361,23.3739398 L396.936153,43.352803 C396.709314,43.6141481 396.34416,43.7066667 396.0205,43.5848901 L380.817988,37.86851 L369.214063,55.8736446 C369.08207,56.0784505 368.866297,56.2148561 368.624442,56.2456956 C368.383377,56.2765351 368.139545,56.1998317 367.96013,56.0349589 L350.56274,40.0664182 L327.1241,72.5068163 C326.962468,72.7306004 326.709547,72.8496093 326.45307,72.8496093" id="Fill-163" fill="#184657"></path>
        <path d="M496.399644,66.9170363 C495.3848,66.9170363 494.562017,67.740214 494.562017,68.7555456 C494.562017,69.7712726 495.3848,70.5944503 496.399644,70.5944503 C497.414489,70.5944503 498.237272,69.7712726 498.237272,68.7555456 C498.237272,67.740214 497.414489,66.9170363 496.399644,66.9170363 M470.119204,66.9170363 C469.104359,66.9170363 468.281576,67.740214 468.281576,68.7555456 C468.281576,69.7712726 469.104359,70.5944503 470.119204,70.5944503 C471.134048,70.5944503 471.956831,69.7712726 471.956831,68.7555456 C471.956831,67.740214 471.134048,66.9170363 470.119204,66.9170363 M443.838763,66.9170363 C442.823918,66.9170363 442.001135,67.740214 442.001135,68.7555456 C442.001135,69.7712726 442.823918,70.5944503 443.838763,70.5944503 C444.854002,70.5944503 445.676785,69.7712726 445.676785,68.7555456 C445.676785,67.740214 444.854002,66.9170363 443.838763,66.9170363 M496.399644,45.5883513 C495.3848,45.5883513 494.562017,46.411529 494.562017,47.427256 C494.562017,48.4425876 495.3848,49.2657653 496.399644,49.2657653 C497.414489,49.2657653 498.237272,48.4425876 498.237272,47.427256 C498.237272,46.411529 497.414489,45.5883513 496.399644,45.5883513 M470.119204,45.5883513 C469.104359,45.5883513 468.281576,46.411529 468.281576,47.427256 C468.281576,48.4425876 469.104359,49.2657653 470.119204,49.2657653 C471.134048,49.2657653 471.956831,48.4425876 471.956831,47.427256 C471.956831,46.411529 471.134048,45.5883513 470.119204,45.5883513 M443.838763,45.5883513 C442.823918,45.5883513 442.001135,46.411529 442.001135,47.427256 C442.001135,48.4425876 442.823918,49.2657653 443.838763,49.2657653 C444.854002,49.2657653 445.676785,48.4425876 445.676785,47.427256 C445.676785,46.411529 444.854002,45.5883513 443.838763,45.5883513 M496.399644,24.2596663 C495.3848,24.2596663 494.562017,25.0828441 494.562017,26.098571 C494.562017,27.1139026 495.3848,27.9370803 496.399644,27.9370803 C497.414489,27.9370803 498.237272,27.1139026 498.237272,26.098571 C498.237272,25.0828441 497.414489,24.2596663 496.399644,24.2596663 M470.119204,24.2596663 C469.104359,24.2596663 468.281576,25.0828441 468.281576,26.098571 C468.281576,27.1139026 469.104359,27.9370803 470.119204,27.9370803 C471.134048,27.9370803 471.956831,27.1139026 471.956831,26.098571 C471.956831,25.0828441 471.134048,24.2596663 470.119204,24.2596663 M445.676785,26.098571 C445.676785,27.1139026 444.854002,27.9370803 443.838763,27.9370803 C442.823918,27.9370803 442.001135,27.1139026 442.001135,26.098571 C442.001135,25.0828441 442.823918,24.2596663 443.838763,24.2596663 C444.854002,24.2596663 445.676785,25.0828441 445.676785,26.098571" id="Fill-164" fill="#035E80"></path>
        <g id="编组-2" transform="translate(221.000079, 289.391462)">
            <g id="编组" transform="translate(0.000000, 0.427033)" fill="#FFD6CB">
                <path d="M4.03706949,72.6424952 C8.81529554,104.268018 17.6366967,129.641424 17.6366967,129.641424 L17.6366967,170.827591 C17.6366967,170.827591 40.4252507,182.22714 67.2569797,180.756727 C94.0887088,179.285525 109.526754,174.137699 109.526754,174.137699 L109.526754,79.2619195 L115.49924,53.6125399 C115.49924,53.6125399 113.569138,27.7793094 112.466562,20.0563842 C111.363986,12.3342496 111.97707,0.0759922527 111.97707,0.0759922527 C111.97707,0.0759922527 2.22332564,1.04186469 1.30411683,0.122610031 C1.30411683,0.122610031 -0.741156567,41.0173673 4.03706949,72.6424952 Z" id="Fill-5"></path>
            </g>
            <path d="M113.492472,29.6194644 C113.23797,27.025387 112.984654,24.6159514 112.750703,22.6734576 C112.804053,22.6782021 112.864517,22.6837374 112.917077,22.6884819 C112.71316,21.8704441 112.558641,21.1275282 112.466562,20.4834569 C112.087576,17.8288867 111.96902,13.870754 111.976923,9.81891672 C111.991941,2.08333934 111.976923,0.549643224 111.976923,0.549643224 C111.976923,0.549643224 1.58944304,0.835106392 1.30411683,0.549643224 C1.30411683,0.549643224 -0.741156567,41.44444 4.03706949,73.0695679 C4.29275655,74.7606011 4.56029927,76.4318654 4.83693133,78.0841515 C36.5887592,79.0184305 54.0248779,94.8584733 54.0248779,94.8584733 C54.0248779,94.8584733 56.2304258,89.3425499 67.8082679,82.1715728 C79.3865052,75.0009911 100.612878,70.5881734 108.882991,59.2799573 C113.636716,52.780728 116.841301,41.1791411 118.707777,32.4875389 C117.305252,35.714617 115.94027,38.9250892 114.630615,41.8726347 C114.263485,37.9504815 114.134258,34.5043639 113.492472,29.6194644 Z" id="Fill-15" fill="#FFC6B6"></path>
            <path d="M49.2466519,116.830043 C50.9412208,92.2473946 63.9488555,72.3341642 79.7540306,67.5536446 C95.5588106,62.773125 101.807534,59.8311147 107.688336,54.3151913 C113.569138,48.799268 122.379079,18.7327216 130.844415,10.5547158 C141.503839,0.258272891 159.146641,0.258272891 162.822291,5.40688973 C166.497546,10.5547158 149.590189,27.1028812 146.282065,44.3860549 C142.973941,61.669624 141.963048,115.819852 113.01785,135.402151 C88.2723221,152.14247 50.7167537,144.778943 50.7167537,144.778943 C50.7167537,144.778943 48.511601,127.494584 49.2466519,116.830043" id="Fill-17" fill="#FFD6CB"></path>
        </g>
    </g>
</svg>