<svg xmlns="http://www.w3.org/2000/svg" xmlns:xlink="http://www.w3.org/1999/xlink" viewBox="0 0 516 516"><defs><style>.cls-1{isolation:isolate;}.cls-2{fill:url(#linear-gradient);}.cls-3{fill:#feaabd;}.cls-4{fill:#532b6a;}.cls-12,.cls-4,.cls-9{opacity:0.2;}.cls-5{fill:url(#linear-gradient-2);}.cls-6{fill:#fdf1a9;}.cls-15,.cls-24,.cls-6{opacity:0.5;}.cls-7{fill:#fdc846;}.cls-26,.cls-7{opacity:0.7;}.cls-8{fill:#fff6e3;}.cls-9{fill:url(#linear-gradient-3);}.cls-10{fill:url(#linear-gradient-4);}.cls-11{fill:url(#linear-gradient-5);}.cls-12{fill:url(#linear-gradient-6);}.cls-13{fill:#fed3d1;}.cls-14{fill:url(#linear-gradient-7);}.cls-15{fill:#f3cf8f;mix-blend-mode:overlay;}.cls-16{fill:#a3432c;opacity:0.3;}.cls-17{fill:url(#linear-gradient-8);}.cls-18{fill:url(#linear-gradient-9);}.cls-19{fill:#ffdaa8;}.cls-20{fill:#b51f1b;opacity:0.3;mix-blend-mode:multiply;}.cls-21{fill:#3977a9;}.cls-22{fill:#2b446a;}.cls-23{fill:#ffe8f0;}.cls-24{fill:#a8f6ff;}.cls-25{fill:#e1171b;}.cls-26{fill:#fbc7b2;}.cls-27{fill:#c3d1e0;}</style><linearGradient id="linear-gradient" x1="221.81" y1="198.35" x2="283.29" y2="310.22" gradientUnits="userSpaceOnUse"><stop offset="0.23" stop-color="#78bde3"/><stop offset="0.37" stop-color="#74bbe2"/><stop offset="0.51" stop-color="#67b5e0"/><stop offset="0.67" stop-color="#52abdc"/><stop offset="0.82" stop-color="#349ed6"/><stop offset="0.98" stop-color="#0f8cce"/><stop offset="1" stop-color="#0889cd"/></linearGradient><linearGradient id="linear-gradient-2" x1="210.63" y1="165.37" x2="355.81" y2="202.41" gradientUnits="userSpaceOnUse"><stop offset="0" stop-color="#fce6da"/><stop offset="1" stop-color="#f7d6c3"/></linearGradient><linearGradient id="linear-gradient-3" x1="205.93" y1="216.55" x2="334.42" y2="137.66" gradientUnits="userSpaceOnUse"><stop offset="0" stop-color="#532b6a" stop-opacity="0.1"/><stop offset="1" stop-color="#8b60a3"/></linearGradient><linearGradient id="linear-gradient-4" x1="225.51" y1="34.31" x2="269.67" y2="121.86" gradientUnits="userSpaceOnUse"><stop offset="0" stop-color="#ff9087"/><stop offset="1" stop-color="#f5222c"/></linearGradient><linearGradient id="linear-gradient-5" x1="228.46" y1="34.62" x2="281.33" y2="139.43" xlink:href="#linear-gradient-4"/><linearGradient id="linear-gradient-6" x1="184.75" y1="106.76" x2="329.05" y2="106.76" gradientUnits="userSpaceOnUse"><stop offset="0" stop-color="#532b6a" stop-opacity="0.2"/><stop offset="1" stop-color="#532b6a"/></linearGradient><linearGradient id="linear-gradient-7" x1="230.73" y1="475.4" x2="256.84" y2="335.42" gradientUnits="userSpaceOnUse"><stop offset="0" stop-color="#f2ad68"/><stop offset="0.41" stop-color="#eda25b"/><stop offset="1" stop-color="#e38d40"/></linearGradient><linearGradient id="linear-gradient-8" x1="251.87" y1="360.13" x2="251.16" y2="343.82" xlink:href="#linear-gradient-7"/><linearGradient id="linear-gradient-9" x1="246.87" y1="310.77" x2="310.88" y2="310.77" xlink:href="#linear-gradient-7"/></defs><title>Artboard 3</title><g class="cls-1"><g id="Layer_1" data-name="Layer 1"><path class="cls-2" d="M308.87,193.66a82,82,0,0,0-56.47-22.38c-21.1,0-46.2,9-61.11,23.26C162,222.6,167,270,184.49,301.28c12,21.56,26.15,21.26,30.56-1.38,15.89,11.26,35.49,14,53.75,13.57,1.76,7.85,5.89,20.77,14,20.41,10-.43,14-16.69,15.53-27.64a68.69,68.69,0,0,0,12.23-7.79C343.74,272,338.93,222.43,308.87,193.66Z"/><path id="_Path_" data-name="&lt;Path&gt;" class="cls-3" d="M248.42,184.79c0-1.82,11.14-4.49,17.6-2.71,8.57,2.36,13,7.52,12.72,9.26s-4.88-1.15-13.46-3.59S248.39,187.44,248.42,184.79Z"/><path id="_Path_2" data-name="&lt;Path&gt;" class="cls-3" d="M284.06,192.94c1.1-.9,8.87,3.22,13.28,9.19,3.79,5.14,5.25,15.32,3.64,15.81-1.36.41-4.54-8.8-7.77-13.08C288.91,199.16,283,193.84,284.06,192.94Z"/><path id="_Path_3" data-name="&lt;Path&gt;" class="cls-3" d="M269,196.75c1.36-1.7,10.19,1.31,13.08,3.93,3.79,3.44,6.06,10.82,4.63,12.13-1,1-4.51-4.51-8-8C275.62,201.73,268,198.09,269,196.75Z"/><path class="cls-4" d="M331.85,234.59h0l0-.13c-.18-.81-.37-1.61-.57-2.42l-.15-.6c-.21-.8-.43-1.61-.67-2.42a2.76,2.76,0,0,0-.08-.27q-.33-1.09-.69-2.19l-.21-.64c-.26-.76-.53-1.51-.81-2.26l-.25-.66c-.25-.63-.5-1.26-.76-1.89-.07-.19-.15-.38-.23-.57-.31-.72-.63-1.44-.95-2.15-.12-.27-.24-.53-.37-.79-.33-.7-.67-1.4-1-2.09-.11-.23-.23-.45-.35-.67-.28-.54-.56-1.08-.85-1.61l-.45-.81c-.37-.65-.74-1.3-1.13-1.94-.17-.29-.34-.57-.52-.85-.3-.49-.61-1-.92-1.46s-.45-.7-.68-1c-.34-.51-.69-1-1-1.51l-.63-.9-1.3-1.76-.66-.83c-.31-.41-.63-.8-1-1.2l-.69-.85c-.47-.55-.94-1.1-1.42-1.64l-.78-.87c-.37-.4-.74-.8-1.12-1.19-.87-.93-1.76-1.84-2.69-2.72a82,82,0,0,0-56.47-22.38c-21.1,0-46.2,9-61.11,23.26l-.46.45c1.14,10.3,4,20,10.35,17.52,3.24-1.26,5-4.78,6.43-8,1.61,4.55,3.53,12.9,9.09,13.61a10.28,10.28,0,0,0,7.29-2.3,31.47,31.47,0,0,0,5.42-5.75c.83,4.63,1.71,9.4,4.29,13.29A11.85,11.85,0,0,0,247,228.47c4.11-1,11.71-4.86,15.25-.67,9.63,11.41-1.24,28,7.47,33.66,9.17,5.94,20.31-11.12,22.46-21,2,8.42,6.11,13.77,9.59,14.79a57.39,57.39,0,0,1-10.25,12.54c-12.53,13.5-34.93,22.06-53.27,22.06-20.41,0-38.53-8.53-53.27-22.06a75.59,75.59,0,0,1-14.62-20.6,112.65,112.65,0,0,0,14.15,54.1c12,21.56,26.15,21.26,30.56-1.38,15.9,11.26,35.49,14,53.75,13.57,1.76,7.85,5.89,20.77,14,20.41,10-.43,14-16.69,15.53-27.64a68.69,68.69,0,0,0,12.23-7.79C330.7,282.39,336.84,257.85,331.85,234.59Z"/><path class="cls-5" d="M288.55,102.67c34.88,11.12,61.87,46.17,56.4,87.43-3.91,29.54-33.27,64.19-49.16,60.5-3.54-.82-7.71-6.45-9.41-15.3-2.56,9.79-13.62,31.19-21.1,26.5-8.8-5.52.86-28.58-8.29-40.36-3.37-4.34-11.13-.81-15.27,0a11.86,11.86,0,0,1-13.06-5.66c-2.42-4-3.11-8.8-3.74-13.46a31.45,31.45,0,0,1-5.65,5.53,10.25,10.25,0,0,1-7.38,2c-5.53-.93-7.11-9.35-8.53-14-1.58,3.16-3.46,6.61-6.75,7.74-11.88,4.08-10.13-32.33-9.22-38.18C194.73,118.54,244.9,88.75,288.55,102.67Z"/><path class="cls-6" d="M246.4,104.23c-15,4.49-31.77,17.83-29.35,28.42,2.47,10.82,24.49,16.54,41.28,11.72,17.15-4.93,32.68-22,28.78-32.39C283.31,101.81,261.69,99.65,246.4,104.23Z"/><path id="_Path_4" data-name="&lt;Path&gt;" class="cls-7" d="M282.87,111.78c.36-1.52,10.18-1.65,15.26,1.06,6.72,3.6,9.47,8.77,8.9,10.17s-3.88-1.89-10.6-5.56S282.34,114,282.87,111.78Z"/><path id="_Path_5" data-name="&lt;Path&gt;" class="cls-8" d="M243.29,112.73c-2.73-4.84-17.1,3.18-14.79,7.61C230.35,123.89,245.63,116.89,243.29,112.73Z"/><path id="_Path_6" data-name="&lt;Path&gt;" class="cls-8" d="M226.11,136.2a2.7,2.7,0,1,0,1.69,3.43A2.74,2.74,0,0,0,226.11,136.2Z"/><path id="_Path_7" data-name="&lt;Path&gt;" class="cls-8" d="M215.84,149a2.65,2.65,0,1,0,1.65,3.36A2.68,2.68,0,0,0,215.84,149Z"/><path id="_Path_8" data-name="&lt;Path&gt;" class="cls-8" d="M215.38,135.44a4,4,0,1,0,2.48,5A4,4,0,0,0,215.38,135.44Z"/><path id="_Path_9" data-name="&lt;Path&gt;" class="cls-8" d="M217.94,126.74a2,2,0,1,0,1.28,2.6A2.07,2.07,0,0,0,217.94,126.74Z"/><path id="_Path_10" data-name="&lt;Path&gt;" class="cls-8" d="M202.9,150.5a1.74,1.74,0,1,0,1.09,2.21A1.77,1.77,0,0,0,202.9,150.5Z"/><path id="_Path_11" data-name="&lt;Path&gt;" class="cls-8" d="M229.7,127.62a1.62,1.62,0,1,0,1,2.06A1.66,1.66,0,0,0,229.7,127.62Z"/><path class="cls-9" d="M324.91,126.44c-14.76-16.73-36.13-27.57-59.86-27.18-.22,0-.44,0-.66,0h0a81.89,81.89,0,0,0-65,35.77c1,.9,2,1.78,3.13,2.59C203,153,207,164.73,213.29,166.1c5.53,1.19,11.07-9.59,12.23-17.08,2,25.47,6,38.44,12.3,39.25,9.6,1.23,16.75-19.62,17.75-37,1.24.94,8.27,9.93,16.53,8.12s13.63-11.63,16.22-20.66c2.44,7.65,6.21,12.31,11.63,12.54,6.22.27,10.29-6.88,12-15.52a78.94,78.94,0,0,1,6.53,28.79c1,27.55-17.22,48.32-40.85,60.73a49.45,49.45,0,0,1-16.93,5.35c2.07,12-2.28,26.92,4.58,31.22,7.48,4.69,18.54-16.71,21.1-26.5,1.7,8.85,5.87,14.48,9.41,15.3,15.89,3.69,45.25-31,49.16-60.5C348.08,166.53,339.91,143.44,324.91,126.44Z"/><path class="cls-10" d="M324.55,58.19A72.27,72.27,0,0,0,276.26,14c-30.37-8.34-66.09,1.31-86.15,26.12-23.35,28.88-21,75,5.46,94.74.48,15.36,4.47,27.1,10.77,28.46,5.53,1.2,11.06-9.59,12.23-17.08,2,25.47,5.62,40.21,11.94,41,9.6,1.23,15.13-21.24,16.13-38.66,1.24.94,10.25,9.79,18.51,8s10.07-8.27,12.66-17.3c3.35,5.93,6.71,9.55,12.13,9.55,4.78,0,10.59-7.62,11.88-15.83,14.2-4.57,19.83-11.33,23.76-23.94C330.49,93.31,330.23,73.72,324.55,58.19Z"/><path class="cls-11" d="M266.44,18.42c-36.69-9.46-79.2,17.4-82.12,53.45-2.23,27.47,19.12,52.86,43.77,61.21,34.71,11.75,80.36-8.82,86.77-45.33C320.24,57.18,296.21,26.09,266.44,18.42Z"/><path class="cls-12" d="M324.55,58.19a71.49,71.49,0,0,0-23.77-32c18.5,41.27-.22,73-13.67,85.77-15,14.3-41.08,23.89-61.53,23.12a79,79,0,0,1-40.83-11.54,48.37,48.37,0,0,0,10.82,11.3c.48,15.36,4.47,27.1,10.77,28.46,5.53,1.2,11.06-9.59,12.23-17.08,2,25.47,5.62,40.21,11.94,41,9.6,1.23,15.13-21.24,16.13-38.66,1.24.94,10.25,9.79,18.51,8s10.07-8.27,12.66-17.3c3.35,5.93,6.71,9.55,12.13,9.55,4.78,0,10.59-7.62,11.88-15.83,14.2-4.57,19.83-11.33,23.76-23.94C330.49,93.31,330.23,73.72,324.55,58.19Z"/><path id="_Path_12" data-name="&lt;Path&gt;" class="cls-13" d="M216.6,29.52c-3-4-14.13,5.09-10.71,8.84C208.62,41.36,219.48,33.41,216.6,29.52Z"/><path id="_Path_13" data-name="&lt;Path&gt;" class="cls-13" d="M184.47,68.5a3.49,3.49,0,1,0,2.83,4A3.53,3.53,0,0,0,184.47,68.5Z"/><path id="_Path_14" data-name="&lt;Path&gt;" class="cls-13" d="M195,61a3.75,3.75,0,1,0,3,4.34A3.79,3.79,0,0,0,195,61Z"/><path id="_Path_15" data-name="&lt;Path&gt;" class="cls-13" d="M190.22,50.63a2.64,2.64,0,1,0,2.14,3.06A2.67,2.67,0,0,0,190.22,50.63Z"/><path id="_Path_16" data-name="&lt;Path&gt;" class="cls-13" d="M184.26,83.77a2.25,2.25,0,1,0,1.82,2.61A2.28,2.28,0,0,0,184.26,83.77Z"/><path id="_Path_17" data-name="&lt;Path&gt;" class="cls-13" d="M193.68,77.59a2.25,2.25,0,1,0,1.83,2.61A2.28,2.28,0,0,0,193.68,77.59Z"/><g id="_Group_" data-name="&lt;Group&gt;"><g id="_Group_2" data-name="&lt;Group&gt;"><path id="_Path_18" data-name="&lt;Path&gt;" class="cls-14" d="M214.33,350.29S244.77,513.17,256.28,514s36.2-166.18,36.2-166.18Z"/><path class="cls-15" d="M248.17,498.68l7.18-6.83,8,9c.35-1.11.7-2.27,1.06-3.49l-6.78-7.68,11.53-11c.58-2.52,1.16-5.13,1.74-7.81L259,457.48l14-13.3,2.72,3.08c.25-1.28.49-2.56.74-3.85L275.22,442l1.79-1.71q.5-2.59,1-5.2l-4.81,4.58L260.4,425.25l14-13.31,6.47,7.33c.23-1.3.46-2.6.68-3.9l-4.91-5.56,7-6.68c.29-1.72.58-3.42.86-5.1l-9.93,9.45L261.81,393l14-13.3,9.9,11.22c.22-1.34.44-2.65.65-3.95l-8.3-9.41,11.58-11c.28-1.78.54-3.46.78-5L276,375.25l-12.77-14.47,13.08-12.44-4.65.14-10.48,10-8.27-9.38-4,.13,10.05,11.39-14,13.3L223.85,350l-4,.13L242.69,376l-14,13.3L220,379.46c.39,2,.8,4,1.22,6.06l5.25,6-3.38,3.22c.24,1.18.48,2.38.73,3.58l4.7-4.47,12.77,14.47L228.5,420.44c.68,3.15,1.37,6.33,2.07,9.5l9.31,10.56-5.7,5.43c.27,1.18.54,2.34.81,3.51l6.94-6.62,12.77,14.47-14,13.31-.82-.94c.57,2.26,1.15,4.48,1.72,6.63l11.68,13.24-6.2,5.89C247.46,496.55,247.82,497.64,248.17,498.68Zm24.16-89.06-14,13.3-12.76-14.47,14-13.3ZM261,362.92l12.76,14.46-14,13.31L247,376.22Zm-30.2,28.74,14-13.3,12.77,14.47-14,13.3Zm-1.41,32.23,14-13.3,12.76,14.47-14,13.3Zm14.82,16.8,14-13.31,12.76,14.47-14,13.3Zm-1.4,32.23,14-13.3,12.77,14.47-14,13.3Z"/><path id="_Path_19" data-name="&lt;Path&gt;" class="cls-16" d="M218.17,370.19a139.81,139.81,0,0,0,70.79.51c2.19-13.84,3.52-22.88,3.52-22.88l-78.15,2.47S215.78,358.06,218.17,370.19Z"/><path id="_Path_20" data-name="&lt;Path&gt;" class="cls-17" d="M251.35,319.85c-51-.27-65.19,19.81-63.35,25.51,9.6,29.61,102.83,32.35,125.87,3.84C318,344,305.64,320.15,251.35,319.85Z"/><path id="_Path_21" data-name="&lt;Path&gt;" class="cls-16" d="M248.47,342.89c25,0,44.73-5.55,55.42-10.63-9.48-6.47-26-12.26-52.54-12.41s-43.09,5.23-52.62,11.21C203.36,334.41,218.09,342.89,248.47,342.89Z"/><path class="cls-18" d="M235.36,305.06c-19.08-2-39.74-7.43-54.55-19.95l-5.14.19S174,338,249.7,338c71.13,0,79.07-41.15,79.79-54.37a124.72,124.72,0,0,1-12.33,6.88A152.35,152.35,0,0,1,235.36,305.06Z"/></g></g><path id="_Path_22" data-name="&lt;Path&gt;" class="cls-19" d="M171.31,271.73s8.07,6.49,8.33,6.67,28.18,22.06,72.53,22.06c38.61,0,65.93-16.18,81.41-30.67.64.47,1.37,9.27-.37,10.67-8.87,7.13-12,10.1-21.51,14.87-19.17,9.59-38.08,13.42-61.15,13.42-32.43,0-52.7-10.23-62.76-15.61-2.49-1.33-10.73-5.67-15.72-10.29C169,280,171.31,271.73,171.31,271.73Z"/><ellipse class="cls-20" cx="250.4" cy="18.01" rx="5.91" ry="4.16"/><ellipse class="cls-20" cx="206.06" cy="47.48" rx="5.91" ry="4.48"/><path class="cls-20" d="M306.83,31.38a8.11,8.11,0,0,0-.86-.05c-3.26,0-5.9,1.87-5.9,4.17s2.64,4.16,5.9,4.16c2.78,0,5.1-1.35,5.74-3.17C310.17,34.71,308.53,33,306.83,31.38Z"/><circle class="cls-21" cx="246.66" cy="15.17" r="6.48"/><circle class="cls-21" cx="203.15" cy="45.98" r="5.3"/><circle class="cls-21" cx="301.41" cy="32.09" r="7.05"/><path class="cls-22" d="M266.92,35.29,268.85,43c.61,2.42,4.34,1.39,3.74-1l-1.93-7.75c-.61-2.42-4.34-1.39-3.74,1Z"/><path class="cls-22" d="M280.77,54.57l9.69.3c2.49.08,2.49-3.8,0-3.87l-9.69-.3c-2.49-.08-2.49,3.8,0,3.87Z"/><path class="cls-22" d="M220.58,40v7.36c0,2.49,3.88,2.49,3.87,0V40c0-2.5-3.88-2.5-3.87,0Z"/><path class="cls-22" d="M244.26,64.24l-2.6,3.88a2,2,0,0,0,.31,2.72,1.94,1.94,0,0,0,2.72-.31l2.6-3.87a2,2,0,0,0-.31-2.72,2,2,0,0,0-2.72.3Z"/><path class="cls-22" d="M276,75.55l6.2-3.48c2.17-1.22.22-4.57-1.95-3.35L274,72.21c-2.18,1.22-.22,4.57,2,3.34Z"/><path class="cls-23" d="M253.49,80.75l7.81,4.53c2.16,1.25,4.12-2.09,2-3.34l-7.82-4.53c-2.16-1.26-4.11,2.09-1.95,3.34Z"/><path class="cls-23" d="M306.23,68.1l6.64,1.9a2,2,0,0,0,2.53-1,2,2,0,0,0-1-2.54l-6.63-1.9a2,2,0,0,0-2.54,1,2,2,0,0,0,1,2.54Z"/><path class="cls-23" d="M267.11,58.91l6.76,3.86c2.15,1.23,4.41-1.92,2.25-3.16l-6.76-3.86c-2.15-1.23-4.41,1.92-2.25,3.16Z"/><path class="cls-23" d="M216.68,65.19l6.3-5.38c1.89-1.62-.86-4.34-2.75-2.73l-6.3,5.38c-1.89,1.62.86,4.34,2.75,2.73Z"/><ellipse class="cls-24" cx="244.3" cy="13.07" rx="1.94" ry="1.6" transform="translate(62.31 176.57) rotate(-45)"/><ellipse class="cls-24" cx="298.9" cy="29.78" rx="1.94" ry="1.6" transform="translate(66.49 220.08) rotate(-45)"/><ellipse class="cls-24" cx="201.7" cy="44.41" rx="1.94" ry="1.6" transform="translate(27.68 155.63) rotate(-45)"/><path class="cls-25" d="M250.61,36.21c-1-5-2.25-9.09-3.19-9.18s-3.22,3.42-5.65,7.93c-4.3-.3-7.68,0-7.8,1.4-.11,1.23,1.49,3.81,3.8,6.7-2.4,5.31-4.08,10.07-3.38,10.79s5.15-1,10.17-3.41c3.61,3.44,7,5.93,8.07,5.26.58-.36.34-4.44-.32-9.42,4.49-2.65,8-5.24,7.78-6.4S255.62,37.24,250.61,36.21Z"/><path class="cls-25" d="M287.49,16.78c.4-1.08-4.09-2.78-9.59-4.19C277.25,5.47,276.6,2,275.66,2c-1.18,0-4.6,3.74-8,8.53-4.33-.61-7.74-.66-8.07.34s1.07,3.7,3.17,7.1c-2.19,3.66-3.62,6.68-3.17,7.35s3.57.22,7.6-.75c4.28,6,9,11.59,10.14,11.59s1.35-7.17,1.09-14.95C283.19,19.53,287.11,17.78,287.49,16.78Z"/><path class="cls-26" d="M261.23,11.64l3,5.62-2.74,6.39s4.78-4.21,4.5-6.39S261.23,11.64,261.23,11.64Z"/><path class="cls-25" d="M235.36,26.93c.7-.58-1.19-4.34-3.88-8.6,1.93-3.2,3.21-6,2.69-7.16s-3.57-.72-7.31.45c-3.13-4.19-6.11-7.41-7-6.69s-1.28,5-1.37,10c-4.32,2.1-7.79,4.42-7.55,5.74s3.64,2.69,7.85,3.9c.38,4.38,1.12,7.67,2.25,7.39.44-.11,2.54-2.53,4.94-5.7C230.61,27.16,234.64,27.53,235.36,26.93Z"/><path class="cls-26" d="M213.55,19.44l6.33-3.69.31-9.47s1.54,9.41,1.11,10.27S213.55,19.44,213.55,19.44Z"/><path id="_Path_23" data-name="&lt;Path&gt;" class="cls-27" d="M184.49,227.13a3.49,3.49,0,1,0,2.64,4.17A3.53,3.53,0,0,0,184.49,227.13Z"/><path id="_Path_24" data-name="&lt;Path&gt;" class="cls-27" d="M197.84,230.3a3.75,3.75,0,1,0,2.84,4.48A3.81,3.81,0,0,0,197.84,230.3Z"/><path id="_Path_25" data-name="&lt;Path&gt;" class="cls-27" d="M190.77,213.67a2.64,2.64,0,1,0,2,3.16A2.7,2.7,0,0,0,190.77,213.67Z"/><path id="_Path_26" data-name="&lt;Path&gt;" class="cls-27" d="M192.41,258.65a2.25,2.25,0,1,0,1.7,2.69A2.28,2.28,0,0,0,192.41,258.65Z"/><path id="_Path_27" data-name="&lt;Path&gt;" class="cls-27" d="M186.93,238.28a2.25,2.25,0,1,0,1.71,2.69A2.28,2.28,0,0,0,186.93,238.28Z"/></g></g></svg>