<?xml version="1.0" encoding="iso-8859-1"?>
<!-- Generator: Adobe Illustrator 23.0.0, SVG Export Plug-In . SVG Version: 6.00 Build 0)  -->
<svg version="1.1" id="&#x56FE;&#x5C42;_1" xmlns="http://www.w3.org/2000/svg" xmlns:xlink="http://www.w3.org/1999/xlink" x="0px"
	 y="0px" viewBox="0 0 500 500" style="enable-background:new 0 0 500 500;" xml:space="preserve">
<g>
	
		<radialGradient id="SVGID_1_" cx="1505.6685" cy="249.7635" r="242.7635" gradientTransform="matrix(-1 0 0 1 1755.3368 0)" gradientUnits="userSpaceOnUse">
		<stop  offset="0" style="stop-color:#3BE3FF"/>
		<stop  offset="0.3492" style="stop-color:#37B6FF;stop-opacity:0.6508"/>
		<stop  offset="0.7854" style="stop-color:#3283FF;stop-opacity:0.2146"/>
		<stop  offset="1" style="stop-color:#306FFF;stop-opacity:0"/>
	</radialGradient>
	<circle style="fill:url(#SVGID_1_);" cx="249.668" cy="249.763" r="242.763"/>
	<circle style="opacity:0.1;fill:#3BE3FF;" cx="249.668" cy="249.763" r="188.752"/>
	<circle style="opacity:0.4;fill:#3BE3FF;" cx="249.668" cy="249.763" r="163.687"/>
	<g>
		<defs>
			<circle id="SVGID_2_" cx="249.668" cy="249.763" r="148.192"/>
		</defs>
		<clipPath id="SVGID_3_">
			<use xlink:href="#SVGID_2_"  style="overflow:visible;"/>
		</clipPath>
		<circle style="clip-path:url(#SVGID_3_);fill:#3BE3FF;" cx="249.668" cy="249.763" r="148.192"/>
		<path style="clip-path:url(#SVGID_3_);fill:#00BCFF;" d="M201.348,109.631c15.145-5.221,31.401-8.06,48.32-8.06
			c25.034,0,48.618,6.209,69.297,17.168c-1.181,6.51-3.035,12.962-5.629,18.725c-11.144,24.765,17.336,38.077,26.003,46.744
			c8.668,8.668,3.715,24.765,33.433,32.814c7.594,2.057,15.147,3.061,22.185,3.418c1.903,9.479,2.903,19.284,2.903,29.323
			c0,44.309-19.448,84.074-50.271,111.231l-77.283-36.243l-43.339-104.014L201.348,109.631z"/>
		<path style="clip-path:url(#SVGID_3_);fill:#306FFF;" d="M202.218,390.196L139.67,265.625l4.79-120.223
			c23.739-23.931,55.585-39.805,91.078-43.162c-0.242,3.785-0.796,8.076-1.76,12.937c-6.81,34.362,22.908,47.054,8.049,62.842
			s4.953,56.96,16.097,56.96s21.05,7.12,17.336,24.765s51.697,61.294,66.557,57.889c8.312-1.905,21.175,6.748,30.898,14.744
			c-26.61,39.556-71.788,65.58-123.046,65.58C233.073,397.956,217.115,395.227,202.218,390.196z"/>
		<path style="clip-path:url(#SVGID_3_);fill:#4344F2;" d="M175.208,121.611c13.542,16.901,5.398,62.215-8.606,76.219
			c-17.336,17.336,16.097,83.892,27.242,83.892s57.889,28.17,55.722,59.127c-1.394,19.918,48.344,27.917,83.994,31.089
			c-23.853,16.41-52.75,26.018-83.891,26.018c-81.844,0-148.192-66.348-148.192-148.192
			C101.476,195.062,131.115,147.286,175.208,121.611z"/>
		<g style="clip-path:url(#SVGID_3_);">
			<ellipse style="fill:#0079FA;" cx="278.046" cy="240.612" rx="21.67" ry="25.245"/>
			<path style="fill:#009CFE;" d="M256.376,240.612c0-7.082,2.504-13.482,6.536-18.066c3.179-2.133,6.867-3.354,10.8-3.354
				c11.968,0,21.67,11.303,21.67,25.245c0,7.082-2.504,13.482-6.536,18.066c-3.179,2.133-6.867,3.354-10.8,3.354
				C266.078,265.857,256.376,254.555,256.376,240.612z"/>
		</g>
		<g style="clip-path:url(#SVGID_3_);">
			
				<ellipse transform="matrix(0.4069 -0.9135 0.9135 0.4069 -102.5322 498.562)" style="fill:#0079FA;" cx="332.684" cy="328.243" rx="25.245" ry="17.181"/>
			<path style="fill:#009CFE;" d="M316.99,321.251c2.882-6.469,7.3-11.507,12.085-14.394c3.171-0.923,6.338-0.848,9.186,0.421
				c8.668,3.861,11.095,17.316,5.421,30.052c-2.882,6.469-7.3,11.507-12.085,14.394c-3.171,0.923-6.338,0.848-9.186-0.421
				C313.743,347.442,311.316,333.987,316.99,321.251z"/>
		</g>
		<g style="clip-path:url(#SVGID_3_);">
			
				<ellipse transform="matrix(0.0069 -1 1 0.0069 -162.1403 569.7242)" style="fill:#0079FA;" cx="205.775" cy="366.497" rx="31.538" ry="34.535"/>
			<path style="fill:#009CFE;" d="M171.241,366.257c0.061-8.847,4.108-16.814,10.573-22.497c5.085-2.63,10.973-4.114,17.24-4.071
				c19.072,0.132,34.436,14.359,34.315,31.777c-0.061,8.847-4.108,16.814-10.573,22.497c-5.085,2.63-10.973,4.114-17.24,4.07
				C186.484,397.902,171.12,383.675,171.241,366.257z"/>
		</g>
		<g style="clip-path:url(#SVGID_3_);">
			<ellipse style="fill:#0079FA;" cx="300.644" cy="150.862" rx="10.525" ry="12.262"/>
			<path style="fill:#009CFE;" d="M290.119,150.862c0-3.44,1.216-6.548,3.175-8.775c1.544-1.036,3.335-1.629,5.246-1.629
				c5.813,0,10.525,5.49,10.525,12.262c0,3.44-1.216,6.548-3.175,8.775c-1.544,1.036-3.335,1.629-5.246,1.629
				C294.831,163.124,290.119,157.634,290.119,150.862z"/>
		</g>
		<g style="clip-path:url(#SVGID_3_);">
			
				<ellipse transform="matrix(0.9835 -0.1808 0.1808 0.9835 -32.9469 72.5534)" style="fill:#0079FA;" cx="381.441" cy="216.971" rx="5.263" ry="14.291"/>
			<path style="fill:#009CFE;" d="M376.265,217.923c-0.725-3.943-0.782-7.616-0.288-10.346c0.541-1.327,1.297-2.169,2.236-2.342
				c2.859-0.526,6.333,5.341,7.76,13.104c0.725,3.943,0.782,7.616,0.288,10.346c-0.541,1.327-1.297,2.169-2.236,2.342
				C381.166,231.553,377.692,225.686,376.265,217.923z"/>
		</g>
		<g style="clip-path:url(#SVGID_3_);">
			
				<ellipse transform="matrix(0.5135 -0.8581 0.8581 0.5135 -82.7445 213.3529)" style="fill:#0079FA;" cx="146.79" cy="179.651" rx="25.245" ry="11.144"/>
			<path style="fill:#009CFE;" d="M137.227,173.928c3.637-6.077,8.028-10.907,12.162-13.776c2.499-0.991,4.753-1.064,6.488-0.026
				c5.281,3.161,3.759,15.421-3.401,27.385c-3.637,6.077-8.028,10.907-12.162,13.776c-2.499,0.991-4.753,1.064-6.488,0.026
				C128.545,198.153,130.068,185.892,137.227,173.928z"/>
		</g>
		<g style="clip-path:url(#SVGID_3_);">
			
				<ellipse transform="matrix(0.157 -0.9876 0.9876 0.157 59.4557 336.7089)" style="fill:#0079FA;" cx="226.967" cy="133.526" rx="11.156" ry="21.422"/>
			<path style="fill:#009CFE;" d="M205.812,130.162c0.491-3.091,3.38-5.495,7.635-6.87c3.252-0.438,6.937-0.398,10.776,0.213
				c11.684,1.858,20.372,8.297,19.404,14.381c-0.491,3.091-3.38,5.495-7.635,6.87c-3.252,0.437-6.937,0.398-10.776-0.213
				C213.532,142.685,204.844,136.247,205.812,130.162z"/>
		</g>
	</g>
</g>
</svg>
